<?xml version="1.0" encoding="iso-8859-1"?>
<!-- Generator: Adobe Illustrator 16.0.0, SVG Export Plug-In . SVG Version: 6.00 Build 0)  -->
<!DOCTYPE svg PUBLIC "-//W3C//DTD SVG 1.1//EN" "http://www.w3.org/Graphics/SVG/1.1/DTD/svg11.dtd">
<svg version="1.1" id="Capa_1" xmlns="http://www.w3.org/2000/svg" xmlns:xlink="http://www.w3.org/1999/xlink" x="0px" y="0px"
	 width="370px" height="370px" viewBox="0 0 370 370" style="enable-background:new 0 0 370 370;" xml:space="preserve">
<g>
	<g>
		<path d="M227.53,107.699l-45.643,31.957l-36.33-24.183c-5.219-3.479-12.266-2.063-15.74,3.157
			c-3.474,5.223-2.06,12.268,3.159,15.743l42.782,28.478c1.906,1.27,4.098,1.902,6.289,1.902c2.28,0,4.558-0.686,6.513-2.055
			l51.99-36.4c5.137-3.594,6.385-10.674,2.79-15.809C239.744,105.355,232.666,104.104,227.53,107.699z"/>
		<path d="M109.552,9.154c-6.221-5.476-14.378-8.802-23.315-8.802c-19.5,0-35.309,15.807-35.309,35.31
			c0,8.503,3.007,16.299,8.013,22.396C71.68,38.023,89.056,21.213,109.552,9.154z"/>
		<path d="M311.06,58.058c5.006-6.097,8.014-13.893,8.014-22.396c0-19.503-15.81-35.31-35.31-35.31
			c-8.938,0-17.094,3.326-23.314,8.802C280.944,21.213,298.32,38.023,311.06,58.058z"/>
		<path d="M322.875,324.71l0.052-186.783C322.927,61.752,261.176,0,185,0S47.073,61.752,47.073,137.927l0.052,186.783
			c-5.906,4.641-9.702,11.845-9.702,19.938c0,14.003,11.352,25.352,25.352,25.352h244.45c14,0,25.353-11.349,25.353-25.352
			C332.577,336.555,328.779,329.351,322.875,324.71z M185,234.421c-50.157,0-90.817-40.662-90.817-90.817S134.844,52.787,185,52.787
			c50.157,0,90.815,40.662,90.815,90.817S235.157,234.421,185,234.421z"/>
	</g>
</g>
<g>
</g>
<g>
</g>
<g>
</g>
<g>
</g>
<g>
</g>
<g>
</g>
<g>
</g>
<g>
</g>
<g>
</g>
<g>
</g>
<g>
</g>
<g>
</g>
<g>
</g>
<g>
</g>
<g>
</g>
</svg>
