<?xml version="1.0" encoding="iso-8859-1"?>
<!-- Generator: Adobe Illustrator 16.0.0, SVG Export Plug-In . SVG Version: 6.00 Build 0)  -->
<!DOCTYPE svg PUBLIC "-//W3C//DTD SVG 1.1//EN" "http://www.w3.org/Graphics/SVG/1.1/DTD/svg11.dtd">
<svg version="1.1" id="Capa_1" xmlns="http://www.w3.org/2000/svg" xmlns:xlink="http://www.w3.org/1999/xlink" x="0px" y="0px"
	 width="365.473px" height="365.473px" viewBox="0 0 365.473 365.473" style="enable-background:new 0 0 365.473 365.473;"
	 xml:space="preserve">
<g>
	<g>
		<path d="M72.712,0c-34.463,0-62.5,28.037-62.5,62.5v249.725c0,26.873,30.716,53.248,62.011,53.248h6.012L78.213,0H72.712L72.712,0
			z M62.692,349.467c-7.984-1.623-15.399-5.252-21.592-10.588c-4.572-3.939-8.393-8.768-11.19-14.109h32.782V349.467z"/>
		<path d="M355.212,62.5c0-34.463-28.037-62.5-62.5-62.5h-2.811h-12.086v96.704c0,2.76-1.785,5.202-4.414,6.042
			c-0.635,0.204-1.287,0.302-1.93,0.302c-2.014,0-3.955-0.961-5.168-2.665l-23.061-32.389l-23.062,32.389
			c-1.6,2.249-4.472,3.202-7.099,2.363c-2.628-0.84-4.412-3.282-4.412-6.042V0H103.212l0.057,364.361h189.933
			c30.604,0,56.686-21.742,62.02-51.699l0.039-0.217L355.212,62.5z M324.323,337.77c-8.643,7.445-19.695,11.547-31.123,11.547
			H118.313v-25.658h217.2C332.716,329.002,328.896,333.828,324.323,337.77z"/>
	</g>
</g>
<g>
</g>
<g>
</g>
<g>
</g>
<g>
</g>
<g>
</g>
<g>
</g>
<g>
</g>
<g>
</g>
<g>
</g>
<g>
</g>
<g>
</g>
<g>
</g>
<g>
</g>
<g>
</g>
<g>
</g>
</svg>
