<?xml version="1.0" encoding="iso-8859-1"?>
<!-- Generator: Adobe Illustrator 16.0.0, SVG Export Plug-In . SVG Version: 6.00 Build 0)  -->
<!DOCTYPE svg PUBLIC "-//W3C//DTD SVG 1.1//EN" "http://www.w3.org/Graphics/SVG/1.1/DTD/svg11.dtd">
<svg version="1.1" id="Capa_1" xmlns="http://www.w3.org/2000/svg" xmlns:xlink="http://www.w3.org/1999/xlink" x="0px" y="0px"
	 width="380px" height="380px" viewBox="0 0 380 380" style="enable-background:new 0 0 380 380;" xml:space="preserve">
<g>
	<path d="M346.392,19.459C333.708,6.91,316.813,0,298.823,0H42.317C26.358,0,13.858,12.302,13.858,28.006v323.536
		c0,15.691,12.767,28.458,28.459,28.458h256.506c37.119,0,67.318-30.2,67.318-67.324V66.872
		C366.142,48.897,359.128,32.061,346.392,19.459z M348.091,312.676c0,27.169-22.102,49.271-49.268,49.271H42.317
		c-5.74,0-10.407-4.668-10.407-10.403V341.1c0.052,0,0.099,0.008,0.15,0.008h30.656V59.798c0-5.983,4.849-10.832,10.832-10.832
		c5.983,0,10.832,4.849,10.832,10.832v281.31h185.095c29.912,0,54.164-24.248,54.164-54.162V24.729
		c14.609,8.477,24.449,24.189,24.449,42.143v245.804H348.091z"/>
</g>
<g>
</g>
<g>
</g>
<g>
</g>
<g>
</g>
<g>
</g>
<g>
</g>
<g>
</g>
<g>
</g>
<g>
</g>
<g>
</g>
<g>
</g>
<g>
</g>
<g>
</g>
<g>
</g>
<g>
</g>
</svg>
