<?xml version="1.0" encoding="iso-8859-1"?>
<!-- Generator: Adobe Illustrator 16.0.0, SVG Export Plug-In . SVG Version: 6.00 Build 0)  -->
<!DOCTYPE svg PUBLIC "-//W3C//DTD SVG 1.1//EN" "http://www.w3.org/Graphics/SVG/1.1/DTD/svg11.dtd">
<svg version="1.1" id="Capa_1" xmlns="http://www.w3.org/2000/svg" xmlns:xlink="http://www.w3.org/1999/xlink" x="0px" y="0px"
	 width="442.311px" height="442.311px" viewBox="0 0 442.311 442.311" style="enable-background:new 0 0 442.311 442.311;"
	 xml:space="preserve">
<g>
	<path d="M440.496,250.577l-20.711-29.42l20.713-29.42c2.135-3.036,2.402-7.008,0.693-10.301c-1.707-3.294-5.109-5.361-8.822-5.361
		l-38.766-0.001c-2.635,0.001-5.164,1.048-7.029,2.911l-28.916,28.919l-120.993-0.001
		c-4.054-104.124-55.514-186.748-118.198-186.748C53.144,21.155,0,110.875,0,221.155c0,110.279,53.144,200,118.466,200
		c62.684,0,114.144-82.621,118.198-186.744h120.994l28.918,28.918c1.863,1.863,4.391,2.911,7.027,2.91h38.766
		c3.713,0.001,7.113-2.066,8.822-5.361C442.904,257.585,442.633,253.613,440.496,250.577z M134.967,378.951
		c-51.538,0-93.467-70.787-93.467-157.796S83.429,63.359,134.967,63.359c48.894,0,89.135,63.714,93.135,144.545h-57.12
		c-3.608-27.971-18.381-48.986-36.015-48.986c-20.329,0-36.868,27.919-36.868,62.237c0,34.32,16.539,62.241,36.868,62.241
		c17.633,0,32.406-21.015,36.015-48.985h57.12C224.099,315.239,183.86,378.951,134.967,378.951z"/>
</g>
<g>
</g>
<g>
</g>
<g>
</g>
<g>
</g>
<g>
</g>
<g>
</g>
<g>
</g>
<g>
</g>
<g>
</g>
<g>
</g>
<g>
</g>
<g>
</g>
<g>
</g>
<g>
</g>
<g>
</g>
</svg>
