<?xml version="1.0" encoding="iso-8859-1"?>
<!-- Generator: Adobe Illustrator 16.0.0, SVG Export Plug-In . SVG Version: 6.00 Build 0)  -->
<!DOCTYPE svg PUBLIC "-//W3C//DTD SVG 1.1//EN" "http://www.w3.org/Graphics/SVG/1.1/DTD/svg11.dtd">
<svg version="1.1" id="Capa_1" xmlns="http://www.w3.org/2000/svg" xmlns:xlink="http://www.w3.org/1999/xlink" x="0px" y="0px"
	 width="464.98px" height="464.98px" viewBox="0 0 464.98 464.98" style="enable-background:new 0 0 464.98 464.98;"
	 xml:space="preserve">
<g>
	<g>
		<path d="M315.059,159.173c-9.453-19.817-23.169-35.522-36.695-42.012l-20.286-9.41l-8.877-7.483
			c-0.589-0.496-1.456-0.459-2.002,0.083l-13.568,13.491c-0.549,0.564-0.403,1.371-0.403,1.371l7.032,50.61
			c-2.463-0.382-4.992-0.596-7.563-0.596c-2.568,0-5.101,0.213-7.563,0.596l6.999-50.484c0-0.001,0.181-0.965-0.369-1.495
			l-13.569-13.493c-0.546-0.543-1.413-0.578-2.002-0.083l-8.857,7.471l-20.718,9.422c-13.525,6.49-27.242,22.195-36.694,42.012
			c-6.068,12.712-14.969,37.095-6.449,57.565c6.955,16.723,30.345,22.888,38.529,24.561l0.002,7.854
			c0,8.713,3.068,16.479,7.996,22.963l0.012,173.565c0,10.659,8.647,19.3,19.308,19.3c10.652-0.001,19.302-8.645,19.302-19.302
			l-0.018-153.011c1.379,0.116,2.744,0.182,4.086,0.182c1.354,0,2.719-0.065,4.093-0.182l-0.005,153.012
			c0,10.657,8.649,19.3,19.312,19.301c10.65,0,19.3-8.644,19.3-19.301l0.001-173.563c4.938-6.487,7.999-14.25,7.999-22.964
			l0.001-7.941c8.526-1.787,31.281-8.015,38.116-24.473C330.027,196.267,321.126,171.885,315.059,159.173z M172.785,203.724
			c-2.901-8.443,1.941-23.722,9.205-36.58l0.007,40.975C178.057,206.786,174.311,205.096,172.785,203.724z M263.454,228.758
			c0.451,2.328,1.383,4.435,2.68,6.248c-6.852,11.313-19.277,18.893-33.438,18.893c-14.294,0-26.818-7.729-33.626-19.225
			c1.177-1.737,2.037-3.727,2.456-5.916c1.342-6.902-1.988-13.614-7.762-16.928c1.543-20.134,18.409-36.049,38.932-36.049
			c20.447,0,37.257,15.79,38.919,35.812C265.587,214.822,262.089,221.696,263.454,228.758z M292.196,203.721
			c-1.414,1.266-4.9,2.903-8.804,4.254l0.01-40.09C290.433,180.584,295.035,195.439,292.196,203.721z"/>
		<path d="M232.688,99.078c23.446,0,40.938-21.837,41.336-58.458C274.271,15.208,262.178,0,232.688,0
			c-29.475,0-41.573,15.208-41.324,40.62C191.762,77.241,209.252,99.078,232.688,99.078z"/>
		<path d="M232.694,184.443c-2.919,0-5.279,2.362-5.279,5.277v21.812h-13.719c-2.912,0-5.274,2.363-5.274,5.277
			c0,2.914,2.362,5.277,5.274,5.277h18.998c2.922,0,5.282-2.362,5.282-5.277V189.72
			C237.977,186.805,235.616,184.443,232.694,184.443z"/>
	</g>
</g>
<g>
</g>
<g>
</g>
<g>
</g>
<g>
</g>
<g>
</g>
<g>
</g>
<g>
</g>
<g>
</g>
<g>
</g>
<g>
</g>
<g>
</g>
<g>
</g>
<g>
</g>
<g>
</g>
<g>
</g>
</svg>
