<?xml version="1.0" encoding="iso-8859-1"?>
<!-- Generator: Adobe Illustrator 16.0.0, SVG Export Plug-In . SVG Version: 6.00 Build 0)  -->
<!DOCTYPE svg PUBLIC "-//W3C//DTD SVG 1.1//EN" "http://www.w3.org/Graphics/SVG/1.1/DTD/svg11.dtd">
<svg version="1.1" id="Capa_1" xmlns="http://www.w3.org/2000/svg" xmlns:xlink="http://www.w3.org/1999/xlink" x="0px" y="0px"
	 width="420px" height="420px" viewBox="0 0 420 420" style="enable-background:new 0 0 420 420;" xml:space="preserve">
<g>
	<g>
		<path d="M183.262,223.373c-0.948-1.104-2.311-1.764-3.765-1.823c-1.465-0.058-2.867,0.486-3.902,1.507l-14.001,13.805h-0.001
			c-8.41,4.492-36.617,19.574-37.647,20.142c-50.438,28.289-93.03,128.781-98.767,146.085c-1.217,3.647-1.89,7.521-2.003,11.514
			c-0.04,1.417,0.495,2.791,1.483,3.808c0.988,1.017,2.346,1.591,3.765,1.591h152.212c2.626,0,4.848-1.94,5.202-4.542
			l21.903-160.907c0.203-1.488-0.242-2.99-1.223-4.13L183.262,223.373z"/>
		<path d="M394.815,402.983c-5.738-17.313-48.334-117.8-98.864-146.138l-36.619-19.855l-14.163-13.938
			c-1.034-1.019-2.443-1.555-3.898-1.503c-1.451,0.062-2.813,0.72-3.762,1.822l-23.271,27.058c-0.979,1.141-1.423,2.645-1.22,4.133
			l21.945,160.897c0.354,2.601,2.575,4.54,5.2,4.54h151.413c1.417,0,2.771-0.572,3.76-1.585c0.988-1.014,1.524-2.384,1.488-3.799
			C396.723,410.611,396.047,406.697,394.815,402.983z"/>
		<path d="M300.602,89.066C301.167,33.346,274.633,0,209.997,0c-64.637,0-91.147,33.346-90.609,89.066
			c0.872,80.284,39.214,128.17,90.609,128.17C261.384,217.238,299.735,169.351,300.602,89.066z"/>
	</g>
</g>
<g>
</g>
<g>
</g>
<g>
</g>
<g>
</g>
<g>
</g>
<g>
</g>
<g>
</g>
<g>
</g>
<g>
</g>
<g>
</g>
<g>
</g>
<g>
</g>
<g>
</g>
<g>
</g>
<g>
</g>
</svg>
