<?xml version="1.0" encoding="iso-8859-1"?>
<!-- Generator: Adobe Illustrator 16.0.0, SVG Export Plug-In . SVG Version: 6.00 Build 0)  -->
<!DOCTYPE svg PUBLIC "-//W3C//DTD SVG 1.1//EN" "http://www.w3.org/Graphics/SVG/1.1/DTD/svg11.dtd">
<svg version="1.1" id="Capa_1" xmlns="http://www.w3.org/2000/svg" xmlns:xlink="http://www.w3.org/1999/xlink" x="0px" y="0px"
	 width="439.319px" height="439.319px" viewBox="0 0 439.319 439.319" style="enable-background:new 0 0 439.319 439.319;"
	 xml:space="preserve">
<g>
	<g>
		<path d="M129.741,107.072c0.084,0,0.167-0.005,0.25-0.006c0.083,0.001,0.166,0.006,0.25,0.006
			c12.246,0,22.174-9.928,22.174-22.174c0-6.46-2.765-12.274-7.174-16.327v-52.5c0-8.284-6.716-15-15-15
			c-0.084,0-0.166,0.011-0.25,0.013c-0.084-0.001-0.166-0.013-0.25-0.013c-8.284,0-15,6.716-15,15v52.5
			c-4.409,4.053-7.174,9.866-7.174,16.327C107.567,97.144,117.494,107.072,129.741,107.072z"/>
		<path d="M210.241,107.072c12.246,0,22.174-9.928,22.174-22.174c0-6.46-2.765-12.274-7.174-16.327v-52.5c0-8.284-6.716-15-15-15
			s-15,6.716-15,15v52.5c-4.409,4.053-7.174,9.866-7.174,16.327C188.067,97.144,197.994,107.072,210.241,107.072z"/>
		<path d="M290.241,107.072c12.246,0,22.174-9.928,22.174-22.174c0-6.46-2.765-12.274-7.174-16.327v-52.5c0-8.284-6.716-15-15-15
			s-15,6.716-15,15v52.5c-4.409,4.053-7.174,9.866-7.174,16.327C268.067,97.144,277.994,107.072,290.241,107.072z"/>
		<path d="M389.981,112.894v176.55h6.671c8.301,0,16.189,1.777,23.329,4.947V112.894c0-41.355-33.646-75-75-75v30
			C369.793,67.894,389.981,88.081,389.981,112.894z"/>
		<path d="M175.243,408.25H75c-24.813,0-45-20.187-45-45V112.894c0-24.813,20.187-45,45-45v-30c-41.355,0-75,33.645-75,75v250.355
			c0,41.355,33.645,75,75,75h118.385C184.527,430.49,178.062,420.073,175.243,408.25z"/>
		<circle cx="329.991" cy="205.161" r="16"/>
		<circle cx="89.991" cy="270.072" r="16"/>
		<circle cx="169.991" cy="270.072" r="16"/>
		<circle cx="249.991" cy="270.072" r="16"/>
		<circle cx="329.991" cy="270.072" r="16"/>
		<path d="M169.991,352.572c1.265,0,2.49-0.162,3.671-0.44v-5.021c0-8.507,1.867-16.582,5.188-23.859
			c-2.537-1.69-5.581-2.68-8.858-2.68c-8.836,0-16,7.164-16,16S161.154,352.572,169.991,352.572z"/>
		<path d="M221.82,198.203l6.958,6.958l-6.958,6.958c-5.858,5.858-5.858,15.354,0,21.213c2.929,2.929,6.768,4.394,10.605,4.394
			s7.678-1.465,10.606-4.395l6.958-6.958l6.958,6.958c2.929,2.93,6.767,4.395,10.606,4.395c3.839,0,7.678-1.465,10.605-4.394
			c5.858-5.858,5.858-15.355,0-21.213l-6.958-6.958l6.958-6.958c5.858-5.858,5.858-15.355,0-21.213
			c-5.857-5.857-15.355-5.858-21.213,0l-6.958,6.958l-6.958-6.958c-5.857-5.858-15.355-5.857-21.212,0
			C215.962,182.848,215.962,192.345,221.82,198.203z"/>
		<path d="M89.991,316.234l-6.958-6.958c-5.857-5.858-15.355-5.857-21.213,0c-5.858,5.857-5.858,15.355,0,21.213l6.958,6.958
			l-6.958,6.958c-5.858,5.857-5.858,15.355,0,21.213c2.929,2.929,6.768,4.393,10.606,4.393s7.678-1.464,10.606-4.394l6.958-6.958
			l6.958,6.958c2.929,2.929,6.768,4.394,10.606,4.394s7.678-1.465,10.606-4.393c5.858-5.857,5.858-15.355,0-21.213l-6.958-6.958
			l6.958-6.958c5.858-5.857,5.858-15.355,0-21.213c-5.857-5.857-15.355-5.858-21.213,0L89.991,316.234z"/>
		<path d="M345.16,351.34c-6.738,0-9.877,6.219-9.877,19.575c0,13.463,3.139,19.735,9.877,19.735c2.424,0,9.801,0,9.801-19.735
			C354.961,351.34,347.584,351.34,345.16,351.34z"/>
		<path d="M389.514,351.34c-6.739,0-9.879,6.219-9.879,19.575c0,13.463,3.14,19.735,9.879,19.735c2.425,0,9.8,0,9.8-19.735
			C399.313,351.34,391.938,351.34,389.514,351.34z"/>
		<path d="M238.545,351.34c-6.738,0-9.877,6.219-9.877,19.575c0,13.463,3.139,19.735,9.877,19.735c2.424,0,9.799,0,9.799-19.735
			C248.344,351.34,240.969,351.34,238.545,351.34z"/>
		<path d="M396.652,304.444H231.328c-23.563,0-42.667,19.103-42.667,42.667v47.768c0,23.564,19.104,42.667,42.667,42.667h165.323
			c23.563,0,42.668-19.103,42.668-42.667v-47.768C439.32,323.546,420.216,304.444,396.652,304.444z M238.545,401.325
			c-9.732,0-21.334-5.276-21.334-30.408c0-25.002,11.602-30.251,21.334-30.251c9.697,0,21.256,5.249,21.256,30.251
			C259.801,396.048,248.243,401.325,238.545,401.325z M280.239,401.325c-9.508,0-15.349-4.995-17.416-7.143
			c-1.204-1.25-1.33-3.187-0.297-4.581l2.098-2.838c0.604-0.817,1.531-1.337,2.545-1.427c1.011-0.089,2.019,0.259,2.757,0.958
			c1.627,1.539,5.133,4.121,10.313,4.121c5.858,0,10.111-3.891,10.111-9.252c0-5.585-4.675-9.486-11.363-9.486
			c-4.277,0-7.656,1.532-8.91,2.19c-0.979,0.514-2.144,0.543-3.147,0.078l-1.236-0.573c-1.369-0.635-2.188-2.063-2.045-3.564
			l2.07-21.602c0.405-4.558,2.496-6.603,6.775-6.603h19.243c4.501,0,6.784,2.283,6.784,6.785v5.184c0,1.963-1.593,3.556-3.557,3.556
			h-3.562c-1.964,0-3.557-1.592-3.557-3.556v-1.686h-11.444c-0.011,0.051-0.023,0.113-0.033,0.187l-1.092,10.062
			c1.354-0.395,3.11-0.74,5.119-0.74c12.45,0,21.489,8.38,21.489,19.926C301.885,392.723,292.578,401.325,280.239,401.325z
			 M318.702,391.141c0,1.964-1.592,3.555-3.556,3.555h-4.188c-1.963,0-3.555-1.591-3.555-3.555v-4.503
			c0-1.963,1.592-3.555,3.555-3.555h4.188c1.964,0,3.556,1.592,3.556,3.555V391.141z M318.702,359.617
			c0,1.964-1.592,3.556-3.556,3.556h-4.188c-1.963,0-3.555-1.591-3.555-3.556v-4.501c0-1.963,1.592-3.557,3.555-3.557h4.188
			c1.964,0,3.556,1.593,3.556,3.557V359.617z M345.16,401.325c-9.73,0-21.332-5.276-21.332-30.408
			c0-25.002,11.602-30.251,21.332-30.251c9.697,0,21.256,5.249,21.256,30.251C366.416,396.048,354.858,401.325,345.16,401.325z
			 M389.514,401.325c-9.731,0-21.334-5.276-21.334-30.408c0-25.002,11.603-30.251,21.334-30.251c9.697,0,21.255,5.249,21.255,30.251
			C410.769,396.048,399.211,401.325,389.514,401.325z"/>
	</g>
</g>
<g>
</g>
<g>
</g>
<g>
</g>
<g>
</g>
<g>
</g>
<g>
</g>
<g>
</g>
<g>
</g>
<g>
</g>
<g>
</g>
<g>
</g>
<g>
</g>
<g>
</g>
<g>
</g>
<g>
</g>
</svg>
