<?xml version="1.0" encoding="iso-8859-1"?>
<!-- Generator: Adobe Illustrator 16.0.0, SVG Export Plug-In . SVG Version: 6.00 Build 0)  -->
<!DOCTYPE svg PUBLIC "-//W3C//DTD SVG 1.1//EN" "http://www.w3.org/Graphics/SVG/1.1/DTD/svg11.dtd">
<svg version="1.1" id="Capa_1" xmlns="http://www.w3.org/2000/svg" xmlns:xlink="http://www.w3.org/1999/xlink" x="0px" y="0px"
	 width="423.803px" height="423.803px" viewBox="0 0 423.803 423.803" style="enable-background:new 0 0 423.803 423.803;"
	 xml:space="preserve">
<g>
	<path d="M324.901,143.946H293.44V60c0-33.137-26.863-60-60-60h-43.078c-33.137,0-60,26.863-60,60v83.946H98.901
		c-41.355,0-75,33.645-75,75v85.295c0,41.354,33.645,75,75,75c8.283,0,15-6.717,15-15c0-8.285-6.717-15-15-15
		c-24.813,0-45-20.188-45-45v-85.295c0-24.812,20.187-45,45-45h31.461v10.938c0,3.248,0.267,6.434,0.764,9.541
		c-8.518,5.086-14.225,14.392-14.225,25.035c0,16.097,13.047,29.142,29.142,29.142h53.71v106.896l-48.061-26.038
		c-5.899-3.192-13.273-1.004-16.469,4.896c-3.195,5.898-1.005,13.271,4.895,16.469l46.28,25.072l-46.28,25.074
		c-5.899,3.195-8.09,10.568-4.895,16.469c2.2,4.059,6.377,6.363,10.692,6.363c1.954,0,3.937-0.475,5.776-1.471l60.21-32.619
		l60.209,32.619c1.84,0.996,3.821,1.469,5.776,1.469c4.313,0,8.492-2.305,10.691-6.363c3.195-5.898,1.004-13.271-4.895-16.469
		l-46.281-25.072l46.281-25.074c5.897-3.195,8.09-10.568,4.895-16.469c-3.196-5.897-10.566-8.09-16.469-4.895l-48.062,26.037
		V248.602h53.711c16.093,0,29.142-13.045,29.142-29.143c0-10.643-5.707-19.947-14.225-25.033c0.496-3.108,0.764-6.294,0.764-9.542
		v-10.938h31.462c24.812,0,45,20.187,45,45v85.295c0,24.812-20.188,45-45,45c-8.284,0-15,6.715-15,15c0,8.283,6.716,15,15,15
		c41.355,0,75-33.646,75-75v-85.295C399.901,177.59,366.257,143.946,324.901,143.946z"/>
</g>
<g>
</g>
<g>
</g>
<g>
</g>
<g>
</g>
<g>
</g>
<g>
</g>
<g>
</g>
<g>
</g>
<g>
</g>
<g>
</g>
<g>
</g>
<g>
</g>
<g>
</g>
<g>
</g>
<g>
</g>
</svg>
