<?xml version="1.0" encoding="iso-8859-1"?>
<!-- Generator: Adobe Illustrator 16.0.0, SVG Export Plug-In . SVG Version: 6.00 Build 0)  -->
<!DOCTYPE svg PUBLIC "-//W3C//DTD SVG 1.1//EN" "http://www.w3.org/Graphics/SVG/1.1/DTD/svg11.dtd">
<svg version="1.1" id="Capa_1" xmlns="http://www.w3.org/2000/svg" xmlns:xlink="http://www.w3.org/1999/xlink" x="0px" y="0px"
	 width="373.262px" height="373.262px" viewBox="0 0 373.262 373.262" style="enable-background:new 0 0 373.262 373.262;"
	 xml:space="preserve">
<g>
	<g>
		<path d="M186.631,170c46.943,0,85-38.057,85-85c0-46.943-38.057-85-85-85c-46.943,0-85,38.057-85,85
			C101.631,131.943,139.688,170,186.631,170z M139.711,70.805c5.6-5.597,14.672-5.597,20.269,0l17.098,17.099l36.206-36.208
			c5.597-5.596,14.67-5.596,20.27,0c5.592,5.599,5.592,14.672,0,20.268l-46.343,46.341c-2.797,2.796-6.459,4.194-10.131,4.194
			c-3.669,0-7.336-1.398-10.134-4.194l-27.233-27.234C134.117,85.477,134.117,76.401,139.711,70.805z"/>
		<circle cx="186.631" cy="288.262" r="85"/>
	</g>
</g>
<g>
</g>
<g>
</g>
<g>
</g>
<g>
</g>
<g>
</g>
<g>
</g>
<g>
</g>
<g>
</g>
<g>
</g>
<g>
</g>
<g>
</g>
<g>
</g>
<g>
</g>
<g>
</g>
<g>
</g>
</svg>
