<?xml version="1.0" encoding="iso-8859-1"?>
<!-- Generator: Adobe Illustrator 16.0.0, SVG Export Plug-In . SVG Version: 6.00 Build 0)  -->
<!DOCTYPE svg PUBLIC "-//W3C//DTD SVG 1.1//EN" "http://www.w3.org/Graphics/SVG/1.1/DTD/svg11.dtd">
<svg version="1.1" id="Capa_1" xmlns="http://www.w3.org/2000/svg" xmlns:xlink="http://www.w3.org/1999/xlink" x="0px" y="0px"
	 width="413.455px" height="413.455px" viewBox="0 0 413.455 413.455" style="enable-background:new 0 0 413.455 413.455;"
	 xml:space="preserve">
<g>
	<g>
		<path d="M144.365,78.884h47.355c4.024,0,7.286-3.262,7.286-7.285s-3.262-7.286-7.286-7.286h-47.355
			c-4.023,0-7.286,3.263-7.286,7.286S140.342,78.884,144.365,78.884z"/>
		<path d="M144.365,108.026h47.355c4.024,0,7.286-3.262,7.286-7.285s-3.262-7.286-7.286-7.286h-47.355
			c-4.023,0-7.286,3.263-7.286,7.286S140.342,108.026,144.365,108.026z"/>
		<path d="M146.624,150.282c0,4.023,3.262,7.286,7.285,7.286H259.55c4.021,0,7.285-3.263,7.285-7.286s-3.264-7.285-7.285-7.285
			H153.909C149.886,142.997,146.624,146.258,146.624,150.282z"/>
		<path d="M259.55,172.138H153.909c-4.023,0-7.285,3.262-7.285,7.285s3.262,7.286,7.285,7.286H259.55
			c4.021,0,7.285-3.263,7.285-7.286S263.571,172.138,259.55,172.138z"/>
		<path d="M389.454,152.112l-59.318-44.977V52.374C330.136,23.495,306.642,0,277.763,0H135.695
			c-28.878,0-52.373,23.495-52.373,52.374v54.965l-59.319,44.978c-2.494,1.891-3.959,4.84-3.959,7.969l0.033,233.169
			c0,11.049,8.955,20,20,20H373.38c11.045,0,20-8.951,20-20l0.031-233.374C393.413,156.952,391.948,154.002,389.454,152.112z
			 M135.695,26.187h142.068c14.438,0,26.186,11.748,26.186,26.188v171.016l-95.252,72.223c-0.186,0.102-0.954,0.643-1.833,0.643
			c-0.879,0-1.643-0.539-1.83-0.641l-95.524-72.43V52.375C109.509,37.935,121.257,26.187,135.695,26.187z M49.045,169.723
			l34.278-25.99v59.596l-34.278-25.99V169.723z M364.413,177.543l-34.277,25.99v-60.005l34.277,25.99V177.543L364.413,177.543z"/>
	</g>
</g>
<g>
</g>
<g>
</g>
<g>
</g>
<g>
</g>
<g>
</g>
<g>
</g>
<g>
</g>
<g>
</g>
<g>
</g>
<g>
</g>
<g>
</g>
<g>
</g>
<g>
</g>
<g>
</g>
<g>
</g>
</svg>
