<?xml version="1.0" encoding="iso-8859-1"?>
<!-- Generator: Adobe Illustrator 16.0.0, SVG Export Plug-In . SVG Version: 6.00 Build 0)  -->
<!DOCTYPE svg PUBLIC "-//W3C//DTD SVG 1.1//EN" "http://www.w3.org/Graphics/SVG/1.1/DTD/svg11.dtd">
<svg version="1.1" id="Capa_1" xmlns="http://www.w3.org/2000/svg" xmlns:xlink="http://www.w3.org/1999/xlink" x="0px" y="0px"
	 width="420.529px" height="420.529px" viewBox="0 0 420.529 420.529" style="enable-background:new 0 0 420.529 420.529;"
	 xml:space="preserve">
<g>
	<g>
		<path d="M332.535,40.265h-48.197c-30.229,0-58.269,15.707-74.271,40.826H87.995C39.474,81.091,0,120.565,0,169.088V292.27
			c0,48.519,39.473,87.995,87.995,87.995h244.54c48.521,0,87.994-39.477,87.994-87.995V128.26
			C420.529,79.741,381.057,40.265,332.535,40.265z M373.598,292.27c0,22.642-18.42,41.063-41.062,41.063H87.995
			c-22.643,0-41.063-18.424-41.063-41.063V175.066h326.666V292.27L373.598,292.27z"/>
		<path d="M88.773,299.702c9.086-0.104,12.203-3.92,14.758-10.877l7.719-20.586h31.459l7.695,20.524
			c2.578,7.015,5.695,10.835,14.783,10.938c0.026,0,0.056,0,0.085,0c1.942,0,3.807-0.765,5.19-2.131
			c1.403-1.388,2.194-3.279,2.194-5.25v-0.787c0-3.893-3.021-7.106-6.887-7.365l-30.356-81.033
			c-1.081-2.885-3.835-4.794-6.914-4.794h-3.04c-3.081,0-5.836,1.91-6.916,4.794l-30.354,81.033
			c-3.865,0.258-6.887,3.473-6.887,7.365v0.787c0,1.969,0.791,3.861,2.192,5.25C84.897,298.956,86.788,299.758,88.773,299.702z
			 M126.987,226.118L137,252.698h-19.935L126.987,226.118z"/>
	</g>
</g>
<g>
</g>
<g>
</g>
<g>
</g>
<g>
</g>
<g>
</g>
<g>
</g>
<g>
</g>
<g>
</g>
<g>
</g>
<g>
</g>
<g>
</g>
<g>
</g>
<g>
</g>
<g>
</g>
<g>
</g>
</svg>
