<?xml version="1.0" encoding="iso-8859-1"?>
<!-- Generator: Adobe Illustrator 16.0.0, SVG Export Plug-In . SVG Version: 6.00 Build 0)  -->
<!DOCTYPE svg PUBLIC "-//W3C//DTD SVG 1.1//EN" "http://www.w3.org/Graphics/SVG/1.1/DTD/svg11.dtd">
<svg version="1.1" id="Capa_1" xmlns="http://www.w3.org/2000/svg" xmlns:xlink="http://www.w3.org/1999/xlink" x="0px" y="0px"
	 width="399px" height="399px" viewBox="0 0 399 399" style="enable-background:new 0 0 399 399;" xml:space="preserve">
<g>
	<path d="M374.195,241.486l-25.323-71.712l25.568-72.409c1.356-3.843,0.765-8.104-1.59-11.432
		c-2.354-3.328-6.176-5.306-10.251-5.306c0,0-121.6,0-129.267,0c-7.979,0-7.596-4.415-7.596-4.415
		c0-27.587-16.988-39.896-36.559-39.896H82.003c2.44-3.742,3.82-8.172,3.82-12.816c0-12.958-10.542-23.5-23.5-23.5h-15
		c-12.958,0-23.5,10.542-23.5,23.5c0,8.14,4.226,15.629,11,19.889V399h40V237.307h115.504c1.922,0,5.411,0.578,5.411,6v0.614
		c0,8.284,6.716,15,15,15c0.015,0,0.027-0.002,0.043-0.002c0.014,0,0.027,0.002,0.041,0.002H362.6c0.007,0,0.014,0,0.021,0
		c6.935,0,12.556-5.622,12.556-12.557C375.176,244.635,374.827,242.986,374.195,241.486z"/>
</g>
<g>
</g>
<g>
</g>
<g>
</g>
<g>
</g>
<g>
</g>
<g>
</g>
<g>
</g>
<g>
</g>
<g>
</g>
<g>
</g>
<g>
</g>
<g>
</g>
<g>
</g>
<g>
</g>
<g>
</g>
</svg>
