<?xml version="1.0" encoding="iso-8859-1"?>
<!-- Generator: Adobe Illustrator 16.0.0, SVG Export Plug-In . SVG Version: 6.00 Build 0)  -->
<!DOCTYPE svg PUBLIC "-//W3C//DTD SVG 1.1//EN" "http://www.w3.org/Graphics/SVG/1.1/DTD/svg11.dtd">
<svg version="1.1" id="Capa_1" xmlns="http://www.w3.org/2000/svg" xmlns:xlink="http://www.w3.org/1999/xlink" x="0px" y="0px"
	 width="394.61px" height="394.609px" viewBox="0 0 394.61 394.609" style="enable-background:new 0 0 394.61 394.609;"
	 xml:space="preserve">
<g>
	<g>
		<path d="M340.816,62.638h-63.829v-8.029C276.987,24.499,252.488,0,222.378,0H172.23c-30.11,0-54.609,24.499-54.609,54.609v8.029
			H53.792c-28.436,0-51.487,23.05-51.487,51.487v80.618c0,28.437,23.052,51.489,51.487,51.489h287.025
			c28.435,0,51.487-23.053,51.487-51.489v-80.618C392.303,85.689,369.25,62.638,340.816,62.638z M153.901,54.609
			c0-10.107,8.223-18.33,18.328-18.33h50.148c10.105,0,18.328,8.223,18.328,18.33v8.029H153.9L153.901,54.609L153.901,54.609z"/>
		<path d="M322.467,273.442v8.634c0,17.282-14.01,31.291-31.293,31.291c-17.28,0-31.289-14.009-31.289-31.291v-8.634H134.721v8.634
			c0,17.282-14.009,31.291-31.289,31.291c-17.283,0-31.293-14.009-31.293-31.291v-8.634H53.79c-10.854,0-21.201-2.21-30.618-6.201
			v72.95c0,30.055,24.362,54.418,54.418,54.418h239.426c30.056,0,54.418-24.363,54.418-54.418v-72.95
			c-9.417,3.992-19.764,6.201-30.618,6.201H322.467z"/>
	</g>
</g>
<g>
</g>
<g>
</g>
<g>
</g>
<g>
</g>
<g>
</g>
<g>
</g>
<g>
</g>
<g>
</g>
<g>
</g>
<g>
</g>
<g>
</g>
<g>
</g>
<g>
</g>
<g>
</g>
<g>
</g>
</svg>
