<?xml version="1.0" encoding="iso-8859-1"?>
<!-- Generator: Adobe Illustrator 16.0.0, SVG Export Plug-In . SVG Version: 6.00 Build 0)  -->
<!DOCTYPE svg PUBLIC "-//W3C//DTD SVG 1.1//EN" "http://www.w3.org/Graphics/SVG/1.1/DTD/svg11.dtd">
<svg version="1.1" id="Capa_1" xmlns="http://www.w3.org/2000/svg" xmlns:xlink="http://www.w3.org/1999/xlink" x="0px" y="0px"
	 width="452.151px" height="452.151px" viewBox="0 0 452.151 452.151" style="enable-background:new 0 0 452.151 452.151;"
	 xml:space="preserve">
<g>
	<g>
		<path d="M251.701,181.527c0-8.563-6.941-15.506-15.505-15.506c-20.162,0-30.706-11.269-44.056-25.535
			c-9.412-10.058-19.145-20.46-32.983-27.099l-20.288-9.529l-7.896-6.725c-0.541-0.462-1.341-0.429-1.845,0.078l-12.508,12.568
			c-0.507,0.523-0.369,1.275-0.369,1.275l12.141,81.42c0.076,0.545-0.079,1.095-0.427,1.521l-11.484,14.031
			c-0.375,0.459-0.935,0.723-1.525,0.723c-0.59,0-1.15-0.264-1.524-0.723l-11.483-14.031c-0.349-0.426-0.503-0.976-0.428-1.521
			l12.114-81.42c0,0,0.138-0.752-0.368-1.275l-12.509-12.568c-0.503-0.507-1.303-0.54-1.844-0.078l-7.896,6.725l-21.266,10.111
			c-31.131,15.814-36.663,59.643-43.036,110.325c-1.213,9.647-2.468,19.624-3.923,29.546c-1.242,8.476,4.619,16.351,13.092,17.592
			c0.763,0.111,1.521,0.166,2.27,0.166c7.567,0,14.191-5.547,15.322-13.258c1.501-10.24,2.775-20.373,4.008-30.174
			c2.334-18.558,4.71-37.406,8.397-52.899l0.016,65.858c0,8.436,2.963,15.949,7.741,22.227l0.011,167.972
			c0,10.316,8.363,18.678,18.68,18.678c10.317,0,18.679-8.363,18.678-18.68L111,283.243c1.327,0.11,2.648,0.176,3.957,0.176
			c1.308,0,2.629-0.063,3.957-0.176l-0.002,148.078c-0.001,10.316,8.361,18.68,18.679,18.68c10.315,0,18.679-8.363,18.679-18.68
			l0.002-167.97c4.778-6.276,7.742-13.791,7.742-22.227l0.022-85.218c1.812,1.868,3.624,3.804,5.461,5.768
			c14.741,15.752,33.086,35.357,66.7,35.357C244.759,197.033,251.701,190.091,251.701,181.527z"/>
		<path d="M114.956,95.888c22.682,0,39.611-21.136,39.995-56.577C155.195,14.717,143.484,0,114.956,0
			C86.426,0,74.713,14.717,74.96,39.311C75.343,74.752,92.271,95.888,114.956,95.888z"/>
		<path d="M314.722,316.977c-13.844-6.286-18.449-9.381-18.449-15.299c0-4.367,4.412-8.772,14.268-8.772
			c5.783,0,9.074,1.851,9.956,2.759v2.594c0,6.399,5.192,11.596,11.596,11.596h2.525c6.403,0,11.591-5.195,11.591-11.596v-4.607
			c0-14.393-11.658-22.031-24.224-24.965v-3.569c0-6.403-5.19-11.591-11.592-11.591h-2.528c-6.399,0-11.592,5.188-11.592,11.591
			v4.325c-15.671,4.732-26.01,17.175-26.01,32.385c0,23.3,19.147,32.09,33.131,38.51c13.441,6.174,19.335,9.623,19.335,16.777
			c0,6.934-5.437,11.592-13.526,11.592c-10.332,0-16.269-7.338-18.344-10.497c-1.771-2.696-4.586-4.53-7.77-5.067
			c-3.183-0.53-6.445,0.283-8.999,2.254l-2.104,1.623c-4.832,3.726-5.947,10.56-2.553,15.628
			c3.312,4.949,11.912,15.574,26.838,19.819v3.886c0,6.399,5.191,11.592,11.592,11.592h2.528c6.4,0,11.592-5.191,11.592-11.592
			v-3.887c17.601-5.186,26.751-20.862,26.751-35.647C348.736,332.42,329.078,323.496,314.722,316.977z"/>
		<path d="M308.105,209.312c-66.951,0-121.42,54.469-121.42,121.42c0,66.95,54.469,121.419,121.42,121.419
			c66.949,0,121.419-54.469,121.419-121.419C429.524,263.781,375.054,209.312,308.105,209.312z M308.105,423.888
			c-51.366,0-93.157-41.789-93.157-93.155s41.791-93.156,93.157-93.156c51.365,0,93.155,41.79,93.155,93.156
			S359.472,423.888,308.105,423.888z"/>
	</g>
</g>
<g>
</g>
<g>
</g>
<g>
</g>
<g>
</g>
<g>
</g>
<g>
</g>
<g>
</g>
<g>
</g>
<g>
</g>
<g>
</g>
<g>
</g>
<g>
</g>
<g>
</g>
<g>
</g>
<g>
</g>
</svg>
