<?xml version="1.0" encoding="iso-8859-1"?>
<!-- Generator: Adobe Illustrator 16.0.0, SVG Export Plug-In . SVG Version: 6.00 Build 0)  -->
<!DOCTYPE svg PUBLIC "-//W3C//DTD SVG 1.1//EN" "http://www.w3.org/Graphics/SVG/1.1/DTD/svg11.dtd">
<svg version="1.1" id="Capa_1" xmlns="http://www.w3.org/2000/svg" xmlns:xlink="http://www.w3.org/1999/xlink" x="0px" y="0px"
	 width="385.875px" height="385.875px" viewBox="0 0 385.875 385.875" style="enable-background:new 0 0 385.875 385.875;"
	 xml:space="preserve">
<g>
	<path d="M338.66,83.114h-62.721V56.525c0-21.278-17.309-38.588-38.588-38.588h-88.828c-21.278,0-38.588,17.31-38.588,38.588v26.589
		h-62.72C21.142,83.114,0,104.254,0,130.329v190.396c0,26.075,21.142,47.213,47.216,47.213h291.442
		c26.074,0,47.217-21.138,47.217-47.213V130.329C385.875,104.253,364.734,83.114,338.66,83.114z M113.938,296.533
		c0,6.075-4.925,11-11,11s-11-4.925-11-11V164.937c0-6.075,4.925-11,11-11s11,4.925,11,11V296.533z M203.938,296.533
		c0,6.075-4.924,11-11,11c-6.075,0-11-4.925-11-11V164.937c0-6.075,4.925-11,11-11c6.076,0,11,4.925,11,11V296.533z M242.867,83.114
		H143.01V56.525c0-3.041,2.475-5.512,5.515-5.512h88.829c3.039,0,5.515,2.471,5.515,5.512L242.867,83.114L242.867,83.114z
		 M293.938,296.533c0,6.075-4.924,11-11,11c-6.074,0-11-4.925-11-11V164.937c0-6.075,4.926-11,11-11c6.076,0,11,4.925,11,11V296.533
		z"/>
</g>
<g>
</g>
<g>
</g>
<g>
</g>
<g>
</g>
<g>
</g>
<g>
</g>
<g>
</g>
<g>
</g>
<g>
</g>
<g>
</g>
<g>
</g>
<g>
</g>
<g>
</g>
<g>
</g>
<g>
</g>
</svg>
