<?xml version="1.0" encoding="iso-8859-1"?>
<!-- Generator: Adobe Illustrator 16.0.0, SVG Export Plug-In . SVG Version: 6.00 Build 0)  -->
<!DOCTYPE svg PUBLIC "-//W3C//DTD SVG 1.1//EN" "http://www.w3.org/Graphics/SVG/1.1/DTD/svg11.dtd">
<svg version="1.1" id="Capa_1" xmlns="http://www.w3.org/2000/svg" xmlns:xlink="http://www.w3.org/1999/xlink" x="0px" y="0px"
	 width="410px" height="410px" viewBox="0 0 410 410" style="enable-background:new 0 0 410 410;" xml:space="preserve">
<g>
	<path d="M257.617,110.456c5.531-7.913,12.131-17.612,18.53-27.665c28.773-45.199,29.59-59.524,21.577-67.983
		C282.31-1.472,240.582-3.95,218.502,5.516c-5.079,2.177-9.935,5.039-14.627,7.808c-12.736,7.509-19.344,10.651-24.899,7.036
		c-16.32-10.633-38.718-13.932-53.257-7.854c-8.667,3.627-14.41,10.377-16.172,19.009c-1.429,7.005-0.67,19.446,18.032,53.782
		c6.856,12.592,13.854,23.929,17.521,29.731c-45.982,31.175-77.693,96.035-77.693,164.695C67.408,375.419,82.352,410,205,410
		c122.648,0,137.593-34.581,137.593-130.276C342.592,207.496,307.499,139.48,257.617,110.456z M146.68,75.42
		c-17.129-31.363-16.115-39.307-16.068-39.605c0.16-0.784,0.457-2.241,3.402-3.474c7.049-2.946,22.084-1.229,33.229,6.03
		c17.335,11.294,34.799,0.99,47.553-6.531c4.301-2.535,8.362-4.931,12.176-6.564c15.729-6.741,43.701-3.975,53.379,2.818
		c-0.78,4.021-4.866,16.338-25.514,48.085c-6.029,9.27-12.122,18.111-17.068,25.121c-10.502-3.637-21.475-5.602-32.769-5.602
		c-14.309,0-28.107,3.134-41.081,8.857C160.691,99.471,153.56,88.016,146.68,75.42z M219.492,322.277v4.058
		c0,6.684-5.419,12.104-12.104,12.104h-2.64c-6.684,0-12.104-5.422-12.104-12.104v-4.056c-15.585-4.433-24.565-15.53-28.022-20.695
		c-3.546-5.292-2.381-12.428,2.664-16.317l2.196-1.695c2.668-2.059,6.074-2.91,9.397-2.352c3.323,0.558,6.263,2.476,8.112,5.289
		c2.165,3.299,8.365,10.961,19.152,10.961c8.448,0,14.125-4.863,14.125-12.104c0-7.47-6.152-11.074-20.188-17.52
		c-14.601-6.703-34.594-15.882-34.594-40.214c0-15.881,10.794-28.872,27.157-33.815v-4.516c0-6.686,5.421-12.104,12.104-12.104h2.64
		c6.685,0,12.104,5.418,12.104,12.104v3.729c13.121,3.062,25.295,11.042,25.295,26.067v4.812c0,6.687-5.418,12.107-12.104,12.107
		h-2.639c-6.686,0-12.105-5.422-12.105-12.107v-2.707c-0.922-0.951-4.358-2.88-10.396-2.88c-10.291,0-14.898,4.6-14.898,9.158
		c0,6.184,4.81,9.414,19.264,15.975c14.989,6.81,35.518,16.129,35.518,41.599C247.425,300.493,237.872,316.861,219.492,322.277z"/>
</g>
<g>
</g>
<g>
</g>
<g>
</g>
<g>
</g>
<g>
</g>
<g>
</g>
<g>
</g>
<g>
</g>
<g>
</g>
<g>
</g>
<g>
</g>
<g>
</g>
<g>
</g>
<g>
</g>
<g>
</g>
</svg>
