<?xml version="1.0" encoding="iso-8859-1"?>
<!-- Generator: Adobe Illustrator 16.0.0, SVG Export Plug-In . SVG Version: 6.00 Build 0)  -->
<!DOCTYPE svg PUBLIC "-//W3C//DTD SVG 1.1//EN" "http://www.w3.org/Graphics/SVG/1.1/DTD/svg11.dtd">
<svg version="1.1" id="Capa_1" xmlns="http://www.w3.org/2000/svg" xmlns:xlink="http://www.w3.org/1999/xlink" x="0px" y="0px"
	 width="359.999px" height="359.999px" viewBox="0 0 359.999 359.999" style="enable-background:new 0 0 359.999 359.999;"
	 xml:space="preserve">
<g>
	<path d="M336.733,26.436C323.945,13.641,308.391,1.42,289.64,0.121c-24.459-1.698-45.76,14.788-62.065,30.86
		c-17.07,16.837-33.024,39.553-29.001,64.967c3.199,20.189,17.329,36.958,31.352,50.923c0,0-16.844,23.813-35.849,42.817
		c-18.995,18.994-47.204,40.234-47.204,40.234c-13.974-14.021-30.728-28.153-50.923-31.352
		c-25.415-4.023-48.128,11.93-64.962,29.001C14.91,243.879-1.579,265.179,0.121,289.639c1.303,18.752,13.519,34.302,26.316,47.094
		c30.184,30.157,84.836,30.294,117.674,4.491c73.339-57.938,139.177-123.776,197.117-197.117
		C367.026,111.273,366.89,56.609,336.733,26.436z"/>
</g>
<g>
</g>
<g>
</g>
<g>
</g>
<g>
</g>
<g>
</g>
<g>
</g>
<g>
</g>
<g>
</g>
<g>
</g>
<g>
</g>
<g>
</g>
<g>
</g>
<g>
</g>
<g>
</g>
<g>
</g>
</svg>
