<?xml version="1.0" encoding="iso-8859-1"?>
<!-- Generator: Adobe Illustrator 16.0.0, SVG Export Plug-In . SVG Version: 6.00 Build 0)  -->
<!DOCTYPE svg PUBLIC "-//W3C//DTD SVG 1.1//EN" "http://www.w3.org/Graphics/SVG/1.1/DTD/svg11.dtd">
<svg version="1.1" id="Capa_1" xmlns="http://www.w3.org/2000/svg" xmlns:xlink="http://www.w3.org/1999/xlink" x="0px" y="0px"
	 width="410.001px" height="410.001px" viewBox="0 0 410.001 410.001" style="enable-background:new 0 0 410.001 410.001;"
	 xml:space="preserve">
<g>
	<path d="M394.067,169.788l-34.613-34.614l10.324-10.325c21.245-21.245,21.243-55.688,0-76.933l-7.692-7.693
		c-21.246-21.243-55.688-21.244-76.934,0l-10.324,10.325l-34.614-34.613c-21.244-21.245-55.688-21.244-76.932,0l-31.362,31.362
		l23.531,23.531c21.244,21.245,21.244,55.688,0,76.932l-7.692,7.693c-21.246,21.245-55.688,21.246-76.934,0l-23.529-23.53
		l-31.362,31.362c-21.244,21.244-21.246,55.685,0,76.929l34.612,34.615l22.262-22.262c21.245-21.242,55.688-21.242,76.932,0
		l7.694,7.692c21.241,21.244,21.242,55.688-0.001,76.933l-22.26,22.262l34.612,34.615c21.245,21.241,55.69,21.241,76.933-0.002
		l31.362-31.363l13.284,13.287c21.245,21.244,55.688,21.244,76.933,0l7.693-7.693c21.244-21.244,21.245-55.688,0-76.932
		l-13.286-13.285l31.363-31.361C415.312,225.477,415.312,191.032,394.067,169.788z"/>
</g>
<g>
</g>
<g>
</g>
<g>
</g>
<g>
</g>
<g>
</g>
<g>
</g>
<g>
</g>
<g>
</g>
<g>
</g>
<g>
</g>
<g>
</g>
<g>
</g>
<g>
</g>
<g>
</g>
<g>
</g>
</svg>
