<?xml version="1.0" encoding="iso-8859-1"?>
<!-- Generator: Adobe Illustrator 16.0.0, SVG Export Plug-In . SVG Version: 6.00 Build 0)  -->
<!DOCTYPE svg PUBLIC "-//W3C//DTD SVG 1.1//EN" "http://www.w3.org/Graphics/SVG/1.1/DTD/svg11.dtd">
<svg version="1.1" id="Capa_1" xmlns="http://www.w3.org/2000/svg" xmlns:xlink="http://www.w3.org/1999/xlink" x="0px" y="0px"
	 width="360.001px" height="360.001px" viewBox="0 0 360.001 360.001" style="enable-background:new 0 0 360.001 360.001;"
	 xml:space="preserve">
<g>
	<g>
		<path d="M81.987,165.207c6.078,0,12.154-2.316,16.791-6.947c9.26-9.269,9.26-24.295,0-33.569l-11.02-11.007l11.02-11.008
			c9.26-9.267,9.26-24.295,0-33.563c-9.271-9.27-24.307-9.272-33.566,0L54.204,80.122L43.183,69.112
			c-9.258-9.272-24.293-9.27-33.553,0c-9.275,9.269-9.275,24.297,0,33.563l11.006,11.008L9.63,124.69
			c-9.275,9.274-9.275,24.301,0,33.569c4.635,4.631,10.701,6.947,16.775,6.947c6.078,0,12.154-2.316,16.777-6.951l11.021-11.005
			l11.008,11.005C69.847,162.89,75.911,165.207,81.987,165.207z"/>
		<path d="M250.603,187.093c-30.585,0-55.374,24.79-55.374,55.375s24.789,55.375,55.374,55.375c30.584,0,55.388-24.79,55.388-55.375
			S281.187,187.093,250.603,187.093z"/>
		<path d="M356.897,58.524c-1.021-4.274-3.781-7.933-7.599-10.097L267.346,2.056c-7.598-4.302-17.248-1.631-21.547,5.965
			l-5.162,9.101c-2.069,3.652-2.604,7.979-1.485,12.023c1.116,4.046,3.809,7.48,7.463,9.548l29.571,16.729
			c-30.79,11.656-59.528,28.811-85.75,51.206c-31.078,26.548-58.768,60.509-82.283,100.937
			c-34.674,59.63-49.719,114.674-53.506,130.113c-1.004,4.144-0.307,8.511,1.943,12.128c2.25,3.619,5.857,6.18,10.025,7.097
			l12.373,2.728c1.139,0.254,2.289,0.371,3.418,0.371c7.107,0,13.559-4.823,15.336-12c3.51-14.113,17.396-64.314,48.717-118.159
			c37.254-64.053,83.781-107.779,138.668-130.401l-17.693,26.548c-2.325,3.495-3.172,7.77-2.35,11.893
			c0.832,4.116,3.26,7.735,6.752,10.06l8.711,5.787c7.273,4.833,17.088,2.864,21.933-4.4l52.188-78.358
			C357.112,67.31,357.915,62.805,356.897,58.524z"/>
	</g>
</g>
<g>
</g>
<g>
</g>
<g>
</g>
<g>
</g>
<g>
</g>
<g>
</g>
<g>
</g>
<g>
</g>
<g>
</g>
<g>
</g>
<g>
</g>
<g>
</g>
<g>
</g>
<g>
</g>
<g>
</g>
</svg>
