<?xml version="1.0" encoding="iso-8859-1"?>
<!-- Generator: Adobe Illustrator 16.0.0, SVG Export Plug-In . SVG Version: 6.00 Build 0)  -->
<!DOCTYPE svg PUBLIC "-//W3C//DTD SVG 1.1//EN" "http://www.w3.org/Graphics/SVG/1.1/DTD/svg11.dtd">
<svg version="1.1" id="Capa_1" xmlns="http://www.w3.org/2000/svg" xmlns:xlink="http://www.w3.org/1999/xlink" x="0px" y="0px"
	 width="420px" height="420px" viewBox="0 0 420 420" style="enable-background:new 0 0 420 420;" xml:space="preserve">
<g>
	<g>
		<path d="M374.123,59.18L320.207,5.264C316.838,1.894,312.266,0,307.5,0h-195C72.861,0,40.613,32.249,40.613,71.889v276.222
			C40.613,387.75,72.861,420,112.5,420h195c39.639,0,71.887-32.25,71.887-71.889V71.889
			C379.387,67.122,377.494,62.551,374.123,59.18z M343.443,348.111c0,19.819-16.125,35.944-35.943,35.944h-195
			c-19.818,0-35.943-16.125-35.943-35.944V71.889c0-19.82,16.125-35.945,35.943-35.945h155.82v55.659
			c0,10.733,8.732,19.464,19.465,19.464h55.658V348.111z"/>
		<path d="M186.103,146.329l-6.958-6.958l6.958-6.958c5.858-5.858,5.858-15.355,0-21.213c-5.857-5.857-15.355-5.858-21.213,0
			l-6.959,6.958l-6.958-6.958c-5.857-5.858-15.355-5.857-21.212,0c-5.858,5.858-5.858,15.355,0,21.213l6.958,6.958l-6.958,6.958
			c-5.858,5.858-5.858,15.355,0,21.213c2.929,2.929,6.768,4.393,10.606,4.393c3.838,0,7.678-1.464,10.606-4.394l6.958-6.958
			l6.959,6.958c2.929,2.929,6.767,4.394,10.606,4.394s7.678-1.465,10.606-4.393C191.96,161.684,191.96,152.187,186.103,146.329z"/>
		<path d="M270.93,161.823l-6.957-6.958c-5.857-5.858-15.355-5.857-21.213,0c-5.857,5.858-5.857,15.354,0,21.213l6.959,6.958
			l-6.959,6.958c-5.857,5.858-5.857,15.355,0,21.213c2.93,2.929,6.769,4.393,10.607,4.393c3.838,0,7.678-1.464,10.605-4.394
			l6.957-6.958l6.959,6.958c2.93,2.929,6.768,4.394,10.607,4.394c3.838,0,7.678-1.465,10.605-4.393
			c5.857-5.858,5.857-15.355,0-21.213l-6.959-6.958l6.959-6.958c5.857-5.858,5.857-15.355,0-21.213
			c-5.857-5.857-15.355-5.858-21.213,0L270.93,161.823z"/>
		<path d="M238.172,262.15c-5.857-5.856-15.355-5.857-21.213,0L210,269.109l-6.959-6.957c-5.856-5.858-15.354-5.857-21.212,0
			s-5.858,15.354,0,21.213l6.958,6.958l-6.958,6.958c-5.858,5.857-5.858,15.355,0,21.213c2.929,2.929,6.768,4.393,10.606,4.393
			s7.678-1.464,10.605-4.394l6.959-6.958l6.958,6.958c2.93,2.929,6.768,4.394,10.606,4.394s7.679-1.465,10.606-4.393
			c5.857-5.857,5.857-15.355,0-21.213l-6.959-6.958l6.959-6.958C244.029,277.507,244.029,268.009,238.172,262.15z"/>
	</g>
</g>
<g>
</g>
<g>
</g>
<g>
</g>
<g>
</g>
<g>
</g>
<g>
</g>
<g>
</g>
<g>
</g>
<g>
</g>
<g>
</g>
<g>
</g>
<g>
</g>
<g>
</g>
<g>
</g>
<g>
</g>
</svg>
