<?xml version="1.0" encoding="iso-8859-1"?>
<!-- Generator: Adobe Illustrator 16.0.0, SVG Export Plug-In . SVG Version: 6.00 Build 0)  -->
<!DOCTYPE svg PUBLIC "-//W3C//DTD SVG 1.1//EN" "http://www.w3.org/Graphics/SVG/1.1/DTD/svg11.dtd">
<svg version="1.1" id="Capa_1" xmlns="http://www.w3.org/2000/svg" xmlns:xlink="http://www.w3.org/1999/xlink" x="0px" y="0px"
	 width="396.525px" height="396.525px" viewBox="0 0 396.525 396.525" style="enable-background:new 0 0 396.525 396.525;"
	 xml:space="preserve">
<g>
	<path d="M317.922,96.526h58.123c10.604,0,19.201-8.597,19.201-19.201V19.201C395.246,8.597,386.648,0,376.045,0h-58.123
		c-10.605,0-19.201,8.597-19.201,19.201v10.275h-75.217c-8.285,0-15,6.716-15,15v138.787h-28.482c-7.162-42.511-44.228-75-88.743-75
		c-49.626,0-90,40.373-90,90c0,49.625,40.374,90,90,90c44.516,0,81.581-32.49,88.743-75h28.482v138.787c0,8.283,6.715,15,15,15
		h75.217v10.273c0,10.605,8.596,19.201,19.201,19.201h58.123c10.604,0,19.201-8.596,19.201-19.201v-58.123
		c0-10.604-8.598-19.201-19.201-19.201h-58.123c-10.605,0-19.201,8.598-19.201,19.201v17.85h-60.217V213.264h60.217v14.062
		c0,10.604,8.596,19.201,19.201,19.201h58.123c10.604,0,19.201-8.597,19.201-19.201v-58.124c0-10.604-8.598-19.201-19.201-19.201
		h-58.123c-10.605,0-19.201,8.597-19.201,19.201v14.062h-60.217V59.476h60.217v17.849C298.721,87.929,307.316,96.526,317.922,96.526
		z M100.52,198.271c0,5.084-4.138,9.222-9.225,9.222H58.653c-5.081,0-9.216-4.138-9.216-9.222c0-5.086,4.135-9.224,9.216-9.224
		h23.416v-39.24c0-5.083,4.138-9.221,9.226-9.221c5.087,0,9.225,4.138,9.225,9.221V198.271z"/>
</g>
<g>
</g>
<g>
</g>
<g>
</g>
<g>
</g>
<g>
</g>
<g>
</g>
<g>
</g>
<g>
</g>
<g>
</g>
<g>
</g>
<g>
</g>
<g>
</g>
<g>
</g>
<g>
</g>
<g>
</g>
</svg>
