<?xml version="1.0" encoding="iso-8859-1"?>
<!-- Generator: Adobe Illustrator 16.0.0, SVG Export Plug-In . SVG Version: 6.00 Build 0)  -->
<!DOCTYPE svg PUBLIC "-//W3C//DTD SVG 1.1//EN" "http://www.w3.org/Graphics/SVG/1.1/DTD/svg11.dtd">
<svg version="1.1" id="Capa_1" xmlns="http://www.w3.org/2000/svg" xmlns:xlink="http://www.w3.org/1999/xlink" x="0px" y="0px"
	 width="389.695px" height="389.695px" viewBox="0 0 389.695 389.695" style="enable-background:new 0 0 389.695 389.695;"
	 xml:space="preserve">
<g>
	<g>
		<path d="M338.182,0H171.514c-8.641,0-15.747,6.576-16.58,15h71.025c15.316,0,27.775,12.462,27.775,27.778v125.556
			c0,21.453-3.404,41.252-15.504,57.127l-0.008,92.568h-34.997c-9.203,0-16.666,7.464-16.666,16.666
			c0,9.207,7.463,16.666,16.666,16.666h103.328c9.203,0,16.666-7.459,16.666-16.666c0-9.202-7.463-16.666-16.666-16.666h-34.996
			v-92.477c45.929-0.021,83.29-37.396,83.29-83.332V16.666C354.848,7.462,347.385,0,338.182,0z"/>
		<path d="M186.511,356.361h-34.997V256.11c45.952,0,83.334-37.382,83.334-83.331V47.222c0-9.207-7.463-16.665-16.666-16.665H51.514
			c-9.203,0-16.666,7.458-16.666,16.665v125.557c0,45.949,37.382,83.331,83.334,83.331v100.251H83.185
			c-9.206,0-16.668,7.463-16.668,16.668s7.462,16.666,16.668,16.666h103.326c9.206,0,16.668-7.461,16.668-16.666
			S195.717,356.361,186.511,356.361z M68.182,172.779V63.888h133.332v108.891c0,27.568-22.428,50-50,50h-33.332
			C90.61,222.779,68.182,200.348,68.182,172.779z"/>
	</g>
</g>
<g>
</g>
<g>
</g>
<g>
</g>
<g>
</g>
<g>
</g>
<g>
</g>
<g>
</g>
<g>
</g>
<g>
</g>
<g>
</g>
<g>
</g>
<g>
</g>
<g>
</g>
<g>
</g>
<g>
</g>
</svg>
