<?xml version="1.0" encoding="iso-8859-1"?>
<!-- Generator: Adobe Illustrator 16.0.0, SVG Export Plug-In . SVG Version: 6.00 Build 0)  -->
<!DOCTYPE svg PUBLIC "-//W3C//DTD SVG 1.1//EN" "http://www.w3.org/Graphics/SVG/1.1/DTD/svg11.dtd">
<svg version="1.1" id="Capa_1" xmlns="http://www.w3.org/2000/svg" xmlns:xlink="http://www.w3.org/1999/xlink" x="0px" y="0px"
	 width="439.999px" height="439.998px" viewBox="0 0 439.999 439.998" style="enable-background:new 0 0 439.999 439.998;"
	 xml:space="preserve">
<g>
	<g>
		<path d="M103.843,37.378h0.282v123.325c0,50.697,40.59,92.057,90.953,93.376v12.823c-9.547,0.818-17.064,8.83-17.064,18.605
			c0,9.776,7.518,17.786,17.064,18.605v23.068c0,25.983-13.845,62.979-37.514,62.979h-22.09c-13.781,0-24.922,11.15-24.922,24.916
			s11.141,24.922,24.922,24.922h169.051c13.78,0,24.922-11.157,24.922-24.922c0-13.766-11.142-24.916-24.922-24.916
			c0,0,1.523,0-22.135,0s-37.47-36.995-37.47-63.219v-22.828c9.55-0.82,17.063-8.83,17.063-18.606s-7.516-17.786-17.063-18.606
			v-12.821c50.362-1.319,90.952-42.679,90.952-93.376V37.378h0.301c10.322,0,18.696-8.373,18.696-18.689
			C354.871,8.375,346.497,0,336.174,0h-19.013H122.839h-18.996C93.502,0,85.127,8.375,85.127,18.689
			C85.127,29.005,93.502,37.378,103.843,37.378z M141.502,37.378h156.995v123.325c0,30.916-25.162,56.073-56.074,56.073h-44.847
			c-30.909,0-56.074-25.158-56.074-56.073V37.378L141.502,37.378z"/>
		<path d="M193.104,102.546c1.335,1.396,3.182,2.191,5.116,2.211c1.935,0.041,3.812-0.726,5.195-2.083l6.925-6.818
			c0.632-0.633,1.182-1.22,1.699-1.776l-0.001,71.388h-13.468c-4.011,0-7.267,3.247-7.267,7.26v3.571
			c0,4.013,3.256,7.261,7.267,7.261h45.589c4.029,0,7.285-3.248,7.285-7.261v-3.571c0-4.013-3.256-7.26-7.285-7.26h-11.792v-91.76
			c0-4.014-3.263-7.261-7.286-7.261h-7.391c-1.864,0-3.7,0.735-5.037,2.049l-21.879,21.221c-2.872,2.793-2.947,7.375-0.161,10.266
			L193.104,102.546z"/>
	</g>
</g>
<g>
</g>
<g>
</g>
<g>
</g>
<g>
</g>
<g>
</g>
<g>
</g>
<g>
</g>
<g>
</g>
<g>
</g>
<g>
</g>
<g>
</g>
<g>
</g>
<g>
</g>
<g>
</g>
<g>
</g>
</svg>
