<?xml version="1.0" encoding="iso-8859-1"?>
<!-- Generator: Adobe Illustrator 18.1.1, SVG Export Plug-In . SVG Version: 6.00 Build 0)  -->
<svg version="1.1" id="Capa_1" xmlns="http://www.w3.org/2000/svg" xmlns:xlink="http://www.w3.org/1999/xlink" x="0px" y="0px"
	 viewBox="0 0 26.443 26.443" style="enable-background:new 0 0 26.443 26.443;" xml:space="preserve">
<g>
	<path style="fill:#010002;" d="M24.163,1.871c-1.256,0-2.278,1.022-2.278,2.278v2.113H18.86c-0.284-1.704-1.743-2.957-3.5-2.957
		c-1.333,0-2.533,0.75-3.137,1.894c-0.604-1.144-1.805-1.894-3.138-1.894c-1.756,0-3.216,1.253-3.5,2.957H4.556V4.149
		c0-1.256-1.022-2.278-2.278-2.278S0,2.893,0,4.149v18.145c0,1.256,1.022,2.278,2.278,2.278s2.278-1.022,2.278-2.278v-2.163h6.116
		c0.284,1.702,1.743,2.956,3.5,2.956s3.216-1.253,3.5-2.956h4.214v2.163c0,1.256,1.022,2.278,2.278,2.278s2.279-1.022,2.279-2.278
		V4.149C26.442,2.893,25.419,1.871,24.163,1.871z M12.346,6.688l0.013-0.047c-0.002,0.05-0.008,0.099-0.008,0.15
		c0,0.104,0.007,0.207,0.016,0.309l-0.026-0.097c0.004-0.07,0.01-0.14,0.01-0.211C12.351,6.756,12.348,6.723,12.346,6.688z
		 M3.962,22.294c0,0.929-0.755,1.684-1.684,1.684c-0.928,0-1.685-0.755-1.685-1.684V4.149c0-0.928,0.756-1.684,1.685-1.684
		S3.962,3.22,3.962,4.149v2.707V22.294z M21.885,18.941h-4.214c-0.284-1.703-1.744-2.956-3.5-2.956s-3.216,1.253-3.5,2.956H4.556
		V7.45h1.029c0.284,1.703,1.744,2.956,3.5,2.956c1.333,0,2.533-0.749,3.138-1.894c0.604,1.145,1.805,1.894,3.137,1.894
		c1.757,0,3.216-1.252,3.5-2.956h3.025V18.941z M25.848,22.294c0,0.929-0.755,1.684-1.685,1.684c-0.928,0-1.684-0.755-1.684-1.684
		v-2.759V6.856V4.149c0-0.928,0.755-1.684,1.684-1.684s1.685,0.755,1.685,1.684V22.294z"/>
</g>
<g>
</g>
<g>
</g>
<g>
</g>
<g>
</g>
<g>
</g>
<g>
</g>
<g>
</g>
<g>
</g>
<g>
</g>
<g>
</g>
<g>
</g>
<g>
</g>
<g>
</g>
<g>
</g>
<g>
</g>
</svg>
