<?xml version="1.0" encoding="iso-8859-1"?>
<!-- Generator: Adobe Illustrator 18.1.1, SVG Export Plug-In . SVG Version: 6.00 Build 0)  -->
<svg version="1.1" id="Capa_1" xmlns="http://www.w3.org/2000/svg" xmlns:xlink="http://www.w3.org/1999/xlink" x="0px" y="0px"
	 viewBox="0 0 110.001 110.001" style="enable-background:new 0 0 110.001 110.001;" xml:space="preserve">
<g>
	<g>
		<path style="fill:#010002;" d="M104.982,22.548H5.016C2.235,22.548,0,24.788,0,27.564v54.871c0,2.772,2.234,5.019,5.016,5.019
			h99.967c2.771,0,5.018-2.244,5.018-5.019V27.564C109.998,24.79,107.754,22.548,104.982,22.548z M102.114,77.419H8.357V32.576
			h93.757C102.114,32.576,102.114,77.419,102.114,77.419z"/>
		<path style="fill:#010002;" d="M17.772,67.489h9.434c1.826,0,3.207-1.41,3.207-3.213V45.729c0-1.767-1.445-3.217-3.207-3.217
			h-9.434c-1.766,0-3.212,1.45-3.212,3.217v18.546C14.561,66.079,15.937,67.489,17.772,67.489z M17.772,45.729h9.434v18.546h-9.434
			C17.772,64.276,17.772,45.729,17.772,45.729z"/>
		<path style="fill:#010002;" d="M34.585,47.332c1.036,0,1.61-0.902,1.61-1.602h9.432v4.426c0,1.413,0.064,1.381-0.998,2.31
			l-4.432,3.819c-0.8,0.707-0.831,0.805-0.831,1.857v7.736c0,1.031,0.449,1.602,1.599,1.602c1.16,0,1.606-0.57,1.606-1.602v-6.224
			c0-1.127,0.064-1.188,0.901-1.922l4.495-3.888c0.902-0.768,0.871-0.901,0.871-2.023v-9.309H34.585
			c-1.025,0-1.605,0.907-1.605,1.606v1.605C32.979,46.43,33.564,47.332,34.585,47.332z"/>
		<path style="fill:#010002;" d="M52.949,65.524h1.326c0.408,0,0.699,0,0.963-0.348c0.197-0.277,0.197-0.48,0.197-0.826v-1.041
			c0-0.344,0-0.557-0.197-0.836c-0.264-0.346-0.555-0.346-0.963-0.346h-1.326c-0.412,0-0.703,0-0.967,0.346
			c-0.198,0.279-0.198,0.49-0.198,0.836v1.041c0,0.346,0,0.549,0.198,0.826C52.246,65.524,52.537,65.524,52.949,65.524z"/>
		<path style="fill:#010002;" d="M52.949,51.938h1.326c0.408,0,0.699,0,0.963-0.351c0.197-0.278,0.197-0.478,0.197-0.832V49.72
			c0-0.349,0-0.558-0.197-0.828c-0.264-0.353-0.555-0.353-0.963-0.353h-1.326c-0.412,0-0.703,0-0.967,0.353
			c-0.198,0.271-0.198,0.484-0.198,0.828v1.036c0,0.354,0,0.554,0.198,0.832C52.246,51.938,52.537,51.938,52.949,51.938z"/>
		<path style="fill:#010002;" d="M62.889,67.489h9.433c1.828,0,3.203-1.41,3.203-3.213V45.729c0-1.767-1.441-3.217-3.203-3.217
			h-9.433c-1.771,0-3.219,1.45-3.219,3.217v18.546C59.67,66.079,61.053,67.489,62.889,67.489z M62.889,45.729h9.433v18.546h-9.433
			V45.729z"/>
		<path style="fill:#010002;" d="M82.788,67.489h9.439c1.827,0,3.21-1.41,3.21-3.213V45.729c0-1.767-1.448-3.217-3.21-3.217h-9.439
			c-1.766,0-3.213,1.45-3.213,3.217v18.546C79.575,66.079,80.957,67.489,82.788,67.489z M82.788,45.729h9.439v18.546h-9.439V45.729z
			"/>
	</g>
</g>
<g>
</g>
<g>
</g>
<g>
</g>
<g>
</g>
<g>
</g>
<g>
</g>
<g>
</g>
<g>
</g>
<g>
</g>
<g>
</g>
<g>
</g>
<g>
</g>
<g>
</g>
<g>
</g>
<g>
</g>
</svg>
