<?xml version="1.0" encoding="iso-8859-1"?>
<!-- Generator: Adobe Illustrator 18.1.1, SVG Export Plug-In . SVG Version: 6.00 Build 0)  -->
<svg version="1.1" id="Capa_1" xmlns="http://www.w3.org/2000/svg" xmlns:xlink="http://www.w3.org/1999/xlink" x="0px" y="0px"
	 viewBox="0 0 23.085 23.085" style="enable-background:new 0 0 23.085 23.085;" xml:space="preserve">
<g>
	<g>
		<path style="fill:#010002;" d="M17.181,11.44h-5.387V6.508c0-0.601-0.911-0.604-0.911,0v5.387c0,0.224,0.164,0.399,0.374,0.438
			c0.018,0.01,0.042,0.018,0.081,0.018h5.843c0.252,0,0.456-0.205,0.456-0.456S17.433,11.44,17.181,11.44z"/>
		<path style="fill:#010002;" d="M22.493,11.104c0-2.017-0.558-3.901-1.512-5.526c0.213-0.06,0.406-0.151,0.558-0.299
			c0.686-0.688,0.404-2.113-0.6-3.369l0.114-0.114c0.277-0.275,0.277-0.726,0-1.001c-0.276-0.276-0.726-0.276-1.002,0l-0.124,0.122
			c-1.236-0.956-2.616-1.212-3.289-0.541c-0.22,0.219-0.329,0.521-0.359,0.864c-0.023-0.012-0.049-0.02-0.071-0.031
			c-1.418-0.671-2.995-1.058-4.666-1.058c-1.265,0-2.474,0.226-3.605,0.623c-0.154,0.053-0.305,0.11-0.456,0.168
			c-0.117,0.047-0.234,0.095-0.35,0.146C7.01,1.141,6.883,1.184,6.764,1.241c-0.031-0.343-0.14-0.646-0.36-0.864
			c-0.672-0.672-2.053-0.415-3.29,0.54L2.99,0.794c-0.276-0.276-0.725-0.276-1.002,0c-0.276,0.276-0.276,0.727,0,1.001l0.114,0.114
			c-1.004,1.256-1.285,2.68-0.599,3.369c0.152,0.15,0.349,0.243,0.566,0.302C2.016,5.675,1.975,5.776,1.925,5.872
			C1.9,5.918,1.879,5.966,1.855,6.013C1.753,6.216,1.647,6.417,1.558,6.628c-0.616,1.368-0.967,2.881-0.967,4.476
			c0,3.514,1.669,6.637,4.249,8.642l-1.641,3.036L4,23.085l2.345-2.345c1.547,0.839,3.317,1.315,5.196,1.315
			c1.869,0,3.628-0.473,5.169-1.301l2.33,2.33l0.802-0.303l-1.628-3.014C20.812,17.764,22.493,14.631,22.493,11.104z M2.547,11.104
			c0-4.96,4.035-8.996,8.995-8.996c4.961,0,8.997,4.036,8.997,8.996s-4.035,8.995-8.997,8.995
			C6.581,20.099,2.547,16.064,2.547,11.104z"/>
	</g>
</g>
<g>
</g>
<g>
</g>
<g>
</g>
<g>
</g>
<g>
</g>
<g>
</g>
<g>
</g>
<g>
</g>
<g>
</g>
<g>
</g>
<g>
</g>
<g>
</g>
<g>
</g>
<g>
</g>
<g>
</g>
</svg>
