<?xml version="1.0" encoding="iso-8859-1"?>
<!-- Generator: Adobe Illustrator 18.1.1, SVG Export Plug-In . SVG Version: 6.00 Build 0)  -->
<svg version="1.1" id="Capa_1" xmlns="http://www.w3.org/2000/svg" xmlns:xlink="http://www.w3.org/1999/xlink" x="0px" y="0px"
	 viewBox="0 0 25.308 25.308" style="enable-background:new 0 0 25.308 25.308;" xml:space="preserve">
<g>
	<g>
		<path style="fill:#010002;" d="M11.987,14.129c0.051-0.021,0.104-0.05,0.152-0.076c-0.073,0.351,0.067,0.665,0.562,0.557
			c2.089-0.452,3.064-2.175,2.738-4.177c-0.079-0.5-0.642-0.352-0.935-0.155c-0.672,0.449-1.307,0.969-1.873,1.547
			c0.044-1.596,0.207-3.184,0.526-4.757c0.074-0.357-0.284-0.579-0.604-0.496c-0.406,0.106-0.646,0.466-0.727,0.844
			c-0.408,2.007-0.563,4.04-0.532,6.084c-0.995-0.075-1.487-0.658-1.598-1.463c0.065-0.363,0.084-0.735,0.062-1.104
			c0.209-0.2,0.357-0.471,0.307-0.758C10.001,9.816,9.583,9.739,9.296,9.91c-1.208,0.714-2.61,1.576-3.191,2.896
			c-0.281,0.636-0.178,1.418,0.566,1.662c0.746,0.242,1.567-0.189,2.098-0.684c0.45,0.7,1.244,1.138,2.381,1.109
			C11.513,14.883,11.864,14.495,11.987,14.129z M14.166,11.92c-0.058,0.699-0.438,1.155-1.347,1.352l0,0
			C13.206,12.771,13.669,12.323,14.166,11.92z M8.054,12.948c-0.122,0.133-0.424,0.229-0.621,0.183
			c-0.132-0.035-0.127-0.062-0.159-0.123c0.022,0.04,0.009-0.033,0.105-0.197c0.215-0.369,0.571-0.686,0.962-0.965
			c-0.015,0.208-0.015,0.41,0.002,0.606C8.282,12.63,8.19,12.799,8.054,12.948z"/>
		<path style="fill:#010002;" d="M18.844,13.922c0.695-0.343,0.715-1.665-0.224-1.208c-0.396,0.193-1.453,0.667-1.625-0.047
			c-0.157-0.644,0.488-1.298,0.95-1.656c0.269-0.21,0.517-0.646,0.33-0.979c-0.188-0.34-0.643-0.204-0.883-0.015
			c-0.981,0.764-2.013,2.096-1.696,3.405C16.049,14.893,17.871,14.394,18.844,13.922z"/>
		<path style="fill:#010002;" d="M25.036,3.712c-0.172-0.133-0.396-0.181-0.605-0.128c-0.851,0.202-2.243,0.509-2.921,0.612V2.767
			c0-1.187-0.698-1.896-1.868-1.896c-1.921,0-5.532,2.209-6.987,3.294C11.199,3.08,7.588,0.871,5.668,0.871
			c-1.171,0-1.869,0.709-1.869,1.896v1.43C3.121,4.094,1.728,3.786,0.877,3.584C0.669,3.532,0.444,3.58,0.272,3.712
			C0.101,3.843,0,4.044,0,4.259v18.083c0,0.199,0.088,0.39,0.245,0.525c0.154,0.13,0.361,0.189,0.564,0.16
			c6.992-0.617,10.804,0.907,11.846,1.41c1.041-0.504,4.853-2.027,11.846-1.41c0.203,0.029,0.409-0.03,0.563-0.16
			c0.155-0.136,0.244-0.326,0.244-0.525V4.259C25.308,4.044,25.207,3.843,25.036,3.712z M5.666,2.26
			c1.636,0,5.236,2.205,6.275,2.968l0.712,0.501l0.712-0.501c1.039-0.764,4.641-2.968,6.275-2.968c0.309,0,0.444,0.02,0.444,0.507
			h0.001v13.827c-4.502,0.145-6.687,1.026-7.432,1.407c-0.745-0.382-2.93-1.263-7.432-1.407V2.767l0,0
			C5.221,2.28,5.357,2.26,5.666,2.26z M23.886,20.275c-6.91-0.822-10.256,0.574-11.231,1.099c-0.974-0.524-4.324-1.921-11.232-1.099
			V5.135C2.182,5.305,3.23,5.53,3.8,5.6v12.377h0.813c1.894,0,5.412,0.188,7.687,1.464l0.354,0.197l0.354-0.197
			c2.276-1.275,5.792-1.464,7.688-1.464h0.814V5.6c0.569-0.069,1.618-0.294,2.376-0.465L23.886,20.275L23.886,20.275z"/>
	</g>
</g>
<g>
</g>
<g>
</g>
<g>
</g>
<g>
</g>
<g>
</g>
<g>
</g>
<g>
</g>
<g>
</g>
<g>
</g>
<g>
</g>
<g>
</g>
<g>
</g>
<g>
</g>
<g>
</g>
<g>
</g>
</svg>
