<?xml version="1.0" encoding="iso-8859-1"?>
<!-- Generator: Adobe Illustrator 18.1.1, SVG Export Plug-In . SVG Version: 6.00 Build 0)  -->
<svg version="1.1" id="Capa_1" xmlns="http://www.w3.org/2000/svg" xmlns:xlink="http://www.w3.org/1999/xlink" x="0px" y="0px"
	 viewBox="0 0 28.544 28.544" style="enable-background:new 0 0 28.544 28.544;" xml:space="preserve">
<g>
	<g>
		<path style="fill:#010002;" d="M10.698,8.893v7.528h15.504V8.893H10.698z M16.627,15.06l-0.479-1.361H14.48l-0.453,1.361h-0.994
			l1.689-4.805h1.232l1.714,4.805C17.667,15.06,16.627,15.06,16.627,15.06z M20.272,15.06h-1.105l-1.707-4.805h1.051l0.72,2.19
			c0.203,0.604,0.384,1.16,0.517,1.745h0.017c0.142-0.569,0.336-1.155,0.541-1.74l0.767-2.195h1.026L20.272,15.06z M23.635,15.06
			h-0.966v-4.805h0.966V15.06z"/>
		<path style="fill:#010002;" d="M15.311,10.955h-0.016c-0.079,0.276-0.165,0.611-0.251,0.898l-0.407,1.182h1.354l-0.415-1.182
			C15.476,11.559,15.388,11.231,15.311,10.955z"/>
		<path style="fill:#010002;" d="M21.707,22.61h-4.359v4.007L17.29,26.67H4.217V1.875h17.49v6.088h1.874V0.938
			C23.581,0.422,23.162,0,22.645,0H3.28C2.763,0,2.343,0.422,2.343,0.938v26.669c0,0.519,0.42,0.937,0.937,0.937h14.369
			c0.229,0,0.452-0.084,0.624-0.239l4.997-4.471c0.199-0.179,0.312-0.431,0.312-0.698v-5.884h-1.874L21.707,22.61L21.707,22.61z"/>
	</g>
</g>
<g>
</g>
<g>
</g>
<g>
</g>
<g>
</g>
<g>
</g>
<g>
</g>
<g>
</g>
<g>
</g>
<g>
</g>
<g>
</g>
<g>
</g>
<g>
</g>
<g>
</g>
<g>
</g>
<g>
</g>
</svg>
