<?xml version="1.0" encoding="iso-8859-1"?>
<!-- Generator: Adobe Illustrator 18.1.1, SVG Export Plug-In . SVG Version: 6.00 Build 0)  -->
<svg version="1.1" id="Capa_1" xmlns="http://www.w3.org/2000/svg" xmlns:xlink="http://www.w3.org/1999/xlink" x="0px" y="0px"
	 viewBox="0 0 490.015 490.015" style="enable-background:new 0 0 490.015 490.015;" xml:space="preserve">
<g>
	<g>
		<path style="fill:#010002;" d="M135.145,399.894c-2.424,0-4.223-1.91-4.223-4.221c0-2.313,1.815-4.205,4.223-4.205h128.314
			c0-6.984,1.425-14.23,5.108-21.127H98.702v50.609H270.53c-2.484-5.475-5.178-12.875-6.376-21.059L135.145,399.894z"/>
		<path style="fill:#010002;" d="M430.319,133.944h-54.657v-3.327C375.661,58.62,317.043,0,245.046,0S114.428,58.62,114.428,130.617
			v3.354H59.75L27.799,490.015h434.418L430.319,133.944z M245.043,15.974c47.674,0,88.572,29.267,105.789,70.721
			c-22.795-34.228-61.694-56.82-105.789-56.82c-44.104,0-83.03,22.595-105.833,56.892C156.445,45.293,197.403,15.974,245.043,15.974
			z M245.043,48.108c52.19,0,95.904,36.807,106.52,85.836H138.567C149.243,84.914,192.895,48.108,245.043,48.108z M89.938,283.611
			c0-3.266,2.615-5.891,5.89-5.891h180.506c2.398,0,4.519,1.443,5.455,3.615c0.887,2.205,0.365,4.775-1.303,6.479
			c-18.711,18.711-2.084,48.125,0.469,52.365c0.834,1.041,1.355,2.328,1.355,3.787c0,3.197-2.677,5.838-5.941,5.838c0,0,0,0-0.035,0
			H95.827c-3.274,0-5.89-2.641-5.89-5.838L89.938,283.611L89.938,283.611z M276.941,431.706c0,0,0,0-0.033,0H96.426
			c-3.258,0-5.89-2.605-5.89-5.855v-60.373c0-3.268,2.632-5.838,5.89-5.838h180.481c2.414,0,4.551,1.391,5.473,3.613
			c0.938,2.189,0.398,4.727-1.285,6.357c-18.729,18.799-2.066,48.18,0.451,52.398c0.834,1.063,1.338,2.363,1.338,3.807
			C282.884,429.099,280.242,431.706,276.941,431.706z M395.763,408.251l-58.186,15.984c-3.162,0.887-6.342-0.938-7.264-4.102
			l-47.83-174.018c-0.625-2.293,0.227-4.743,2.051-6.256c1.895-1.389,4.482-1.656,6.516-0.391
			c23.037,13.04,47.065-10.763,50.453-14.358c1.17-1.109,2.607-2.144,4.015-2.517c3.146-0.869,5.61,1.211,6.497,4.35l47.865,174.043
			C400.714,404.185,398.837,407.417,395.763,408.251z"/>
		<path style="fill:#010002;" d="M324.685,247.786l34.19,124.361c0.626,2.293-0.66,4.553-2.919,5.178
			c-2.224,0.607-4.552-0.66-5.178-2.918l-34.052-123.771c-6.74,1.842-14.039,2.449-21.685,0.693l45.033,163.715l48.751-13.377
			l-45.569-165.722C338.706,239.829,332.294,244.415,324.685,247.786z"/>
		<path style="fill:#010002;" d="M263.529,318.011H134.485c-2.372,0-4.18-1.857-4.18-4.205c0-2.293,1.834-4.168,4.18-4.168h128.419
			c0-7.02,1.354-14.248,5.039-21.127H98.085v50.645h171.838C267.439,333.612,264.71,326.212,263.529,318.011z"/>
	</g>
</g>
<g>
</g>
<g>
</g>
<g>
</g>
<g>
</g>
<g>
</g>
<g>
</g>
<g>
</g>
<g>
</g>
<g>
</g>
<g>
</g>
<g>
</g>
<g>
</g>
<g>
</g>
<g>
</g>
<g>
</g>
</svg>
