<?xml version="1.0" encoding="iso-8859-1"?>
<!-- Generator: Adobe Illustrator 18.1.1, SVG Export Plug-In . SVG Version: 6.00 Build 0)  -->
<svg version="1.1" id="Capa_1" xmlns="http://www.w3.org/2000/svg" xmlns:xlink="http://www.w3.org/1999/xlink" x="0px" y="0px"
	 viewBox="0 0 24.419 24.419" style="enable-background:new 0 0 24.419 24.419;" xml:space="preserve">
<g>
	<g>
		<path style="fill:#010002;" d="M2.429,6.32c-0.14,0.096-0.208,0.273-0.157,0.439c0.051,0.164,0.203,0.276,0.373,0.276h19.131
			c0.17,0,0.322-0.112,0.373-0.276c0.051-0.166-0.017-0.343-0.157-0.439c0,0-7.917-5.19-9.518-6.237c-0.17-0.111-0.39-0.111-0.56,0
			L2.429,6.32z"/>
		<path style="fill:#010002;" d="M3.319,7.566c-0.216,0-0.394,0.174-0.394,0.39v12.615c0,0.217,0.178,0.391,0.394,0.391h2.438
			c0.214,0,0.39-0.174,0.39-0.391V7.956c0-0.216-0.176-0.39-0.39-0.39C5.757,7.566,3.319,7.566,3.319,7.566z M5.367,20.182H3.708
			V8.346h1.658v11.836H5.367z"/>
		<path style="fill:#010002;" d="M8.431,7.566c-0.215,0-0.389,0.174-0.389,0.39v12.615c0,0.217,0.174,0.391,0.389,0.391h2.438
			c0.215,0,0.39-0.174,0.39-0.391V7.956c0-0.216-0.175-0.39-0.39-0.39C10.869,7.566,8.431,7.566,8.431,7.566z M10.479,20.182H8.821
			V8.346h1.658C10.479,8.346,10.479,20.182,10.479,20.182z"/>
		<path style="fill:#010002;" d="M18.665,7.566c-0.214,0-0.39,0.174-0.39,0.39v12.615c0,0.217,0.176,0.391,0.39,0.391h2.438
			c0.216,0,0.394-0.174,0.394-0.391V7.956c0-0.216-0.178-0.39-0.394-0.39C21.103,7.566,18.665,7.566,18.665,7.566z M20.712,20.182
			h-1.658V8.346h1.658V20.182z"/>
		<path style="fill:#010002;" d="M13.548,7.566c-0.215,0-0.39,0.174-0.39,0.39v12.615c0,0.217,0.175,0.391,0.39,0.391h2.438
			c0.215,0,0.389-0.174,0.389-0.391V7.956c0-0.216-0.174-0.39-0.389-0.39C15.986,7.566,13.548,7.566,13.548,7.566z M15.596,20.182
			h-1.658V8.346h1.658V20.182z"/>
		<path style="fill:#010002;" d="M22.129,21.366H2.291c-0.216,0-0.391,0.174-0.391,0.391v2.271c0,0.215,0.175,0.391,0.391,0.391
			h19.838c0.216,0,0.391-0.176,0.391-0.391v-2.271C22.52,21.539,22.345,21.366,22.129,21.366z"/>
	</g>
</g>
<g>
</g>
<g>
</g>
<g>
</g>
<g>
</g>
<g>
</g>
<g>
</g>
<g>
</g>
<g>
</g>
<g>
</g>
<g>
</g>
<g>
</g>
<g>
</g>
<g>
</g>
<g>
</g>
<g>
</g>
</svg>
