<?xml version="1.0" encoding="iso-8859-1"?>
<!-- Generator: Adobe Illustrator 18.1.1, SVG Export Plug-In . SVG Version: 6.00 Build 0)  -->
<svg version="1.1" id="Capa_1" xmlns="http://www.w3.org/2000/svg" xmlns:xlink="http://www.w3.org/1999/xlink" x="0px" y="0px"
	 viewBox="0 0 105.402 105.402" style="enable-background:new 0 0 105.402 105.402;" xml:space="preserve">
<g>
	<g>
		<path style="fill:#010002;" d="M105.4,86.101v-77.8c0-2.3-2.9-2.9-2.9-2.9h-60c-8.7,0-8.7,9.3-8.7,9.3v24.1
			c16.1,2.4,28.5,16.3,28.5,33c0,7.8-2.7,15-7.2,20.7H93c1.7,0,3.1-1.4,3.1-3.1h6.2C105.6,89.401,105.4,86.101,105.4,86.101z
			 M96,83.701v-65.8c0-1.7-1.4-3.1-3.1-3.1h-5.3v28.2c0,0.2-0.1,0.4-0.3,0.5c-0.2,0.1-0.4,0-0.6-0.1l-8.6-8.7l-8.6,8.6
			c-0.1,0.1-0.2,0.2-0.4,0.2c-0.1,0-0.1,0-0.2,0c-0.2-0.1-0.3-0.3-0.3-0.5v-28.2H40c0-2.1,1.8-3.2,3.2-3.2s52.9,0,52.9,0
			c3.3,0,3.2,2.9,3.2,2.9v66.9l0,0C99.3,81.401,99.5,83.701,96,83.701z"/>
		<path style="fill:#010002;" d="M28.4,43.401c-15.7,0-28.4,12.7-28.4,28.3s12.7,28.3,28.3,28.3c15.7,0.1,28.4-12.6,28.4-28.3
			C56.7,56.101,44,43.401,28.4,43.401z M32.2,47.001l-2,10.8c-0.9-0.1-1.7-0.1-2.4-0.1s-1.5,0.2-2.4,0.4l-3.1-10.6
			C25.6,46.601,29,46.501,32.2,47.001z M28.4,82.901c-6.2,0-11.2-5-11.2-11.1c0-6.2,5-11.2,11.2-11.2s11.2,5,11.2,11.2
			C39.5,77.901,34.5,82.901,28.4,82.901z"/>
		<path style="fill:#010002;" d="M28.4,67.601c-2.3,0-4.1,1.9-4.1,4.1s1.9,4.1,4.1,4.1c2.3,0,4.1-1.9,4.1-4.1
			C32.5,69.401,30.6,67.601,28.4,67.601z"/>
	</g>
</g>
<g>
</g>
<g>
</g>
<g>
</g>
<g>
</g>
<g>
</g>
<g>
</g>
<g>
</g>
<g>
</g>
<g>
</g>
<g>
</g>
<g>
</g>
<g>
</g>
<g>
</g>
<g>
</g>
<g>
</g>
</svg>
