<?xml version="1.0" encoding="iso-8859-1"?>
<!-- Generator: Adobe Illustrator 18.1.1, SVG Export Plug-In . SVG Version: 6.00 Build 0)  -->
<svg version="1.1" id="Capa_1" xmlns="http://www.w3.org/2000/svg" xmlns:xlink="http://www.w3.org/1999/xlink" x="0px" y="0px"
	 viewBox="0 0 111.288 111.288" style="enable-background:new 0 0 111.288 111.288;" xml:space="preserve">
<g>
	<path style="fill:#010002;" d="M100.687,72.708h10.584V36.771c0.004,0,0.705-10.02-7.168-10.02s-28.938,0-28.938,0V16.05
		c0,0,0.508-5.206-5.994-5.206s-19.345,0-27.05,0c-6.685,0-5.927,7.085-5.927,7.085v8.824c0,0-18.403,0-28.679,0
		c-8.894,0-7.424,10.705-7.424,10.705v35.251h12.74V62.664h11.303v10.045h-11.3v5.295H0.095v22.441h111.18V78.003h-10.588V72.708z
		 M24.133,87.123h-11.3v-9.111h11.3V87.123z M45.499,17.555h20.352v9.198H45.499V17.555z M100.683,86.55H89.38v-8.539h11.303V86.55z
		 M100.683,72.708H89.38v5.295H24.139v-5.295h65.242V62.089h11.303L100.683,72.708L100.683,72.708z"/>
</g>
<g>
</g>
<g>
</g>
<g>
</g>
<g>
</g>
<g>
</g>
<g>
</g>
<g>
</g>
<g>
</g>
<g>
</g>
<g>
</g>
<g>
</g>
<g>
</g>
<g>
</g>
<g>
</g>
<g>
</g>
</svg>
