<?xml version="1.0" encoding="iso-8859-1"?>
<!-- Generator: Adobe Illustrator 18.1.1, SVG Export Plug-In . SVG Version: 6.00 Build 0)  -->
<svg version="1.1" id="Capa_1" xmlns="http://www.w3.org/2000/svg" xmlns:xlink="http://www.w3.org/1999/xlink" x="0px" y="0px"
	 viewBox="0 0 27.06 27.06" style="enable-background:new 0 0 27.06 27.06;" xml:space="preserve">
<g>
	<g>
		<g>
			<g>
				<path style="fill:#010002;" d="M23.609,18.194H3.45c-0.421,0-0.764-0.342-0.764-0.764V2.607c0-0.422,0.343-0.764,0.764-0.764
					h20.159c0.421,0,0.765,0.342,0.765,0.764V17.43C24.374,17.852,24.031,18.194,23.609,18.194z M4.215,16.665h18.63V3.372H4.215
					V16.665z"/>
			</g>
		</g>
		<g>
			<g>
				<g>
					<polygon style="fill:#010002;" points="21.506,27.056 18.505,18.21 19.953,17.719 23.153,27.06 					"/>
				</g>
			</g>
		</g>
		<g>
			<g>
				<g>
					<polygon style="fill:#010002;" points="5.699,27.055 8.701,18.208 7.253,17.718 4.053,27.058 					"/>
				</g>
			</g>
		</g>
		<g>
			<g>
				<rect x="12.766" y="17.962" style="fill:#010002;" width="1.528" height="8.833"/>
			</g>
		</g>
		<g>
			<g>
				<path style="fill:#010002;" d="M13.53,3.183c-0.422,0-0.764-0.341-0.764-0.764V0.764C12.766,0.342,13.108,0,13.53,0
					s0.764,0.342,0.764,0.764v1.654C14.294,2.841,13.952,3.183,13.53,3.183z"/>
			</g>
		</g>
	</g>
</g>
<g>
</g>
<g>
</g>
<g>
</g>
<g>
</g>
<g>
</g>
<g>
</g>
<g>
</g>
<g>
</g>
<g>
</g>
<g>
</g>
<g>
</g>
<g>
</g>
<g>
</g>
<g>
</g>
<g>
</g>
</svg>
