<?xml version="1.0" encoding="iso-8859-1"?>
<!-- Generator: Adobe Illustrator 18.1.1, SVG Export Plug-In . SVG Version: 6.00 Build 0)  -->
<svg version="1.1" id="Capa_1" xmlns="http://www.w3.org/2000/svg" xmlns:xlink="http://www.w3.org/1999/xlink" x="0px" y="0px"
	 viewBox="0 0 27.708 27.708" style="enable-background:new 0 0 27.708 27.708;" xml:space="preserve">
<g>
	<g>
		<g>
			<g>
				<polygon style="fill:#010002;" points="0,7.982 0,23.925 27.708,23.925 27.708,7.982 13.854,17.858 				"/>
			</g>
		</g>
		<g>
			<g>
				<path style="fill:#010002;" d="M13.854,16.052c-0.169,0-0.336-0.055-0.48-0.157L0.561,6.666C0.347,6.512,0.22,6.264,0.22,5.999
					V4.602c0-0.455,0.368-0.819,0.821-0.819h25.625c0.453,0,0.819,0.364,0.819,0.819v1.343c0,0.262-0.126,0.509-0.338,0.664
					l-12.813,9.285C14.191,15.998,14.022,16.052,13.854,16.052z M1.861,5.579l11.991,8.639l11.994-8.689V5.422H1.861V5.579z"/>
			</g>
		</g>
	</g>
</g>
<g>
</g>
<g>
</g>
<g>
</g>
<g>
</g>
<g>
</g>
<g>
</g>
<g>
</g>
<g>
</g>
<g>
</g>
<g>
</g>
<g>
</g>
<g>
</g>
<g>
</g>
<g>
</g>
<g>
</g>
</svg>
