<?xml version="1.0" encoding="iso-8859-1"?>
<!-- Generator: Adobe Illustrator 18.1.1, SVG Export Plug-In . SVG Version: 6.00 Build 0)  -->
<svg version="1.1" id="Capa_1" xmlns="http://www.w3.org/2000/svg" xmlns:xlink="http://www.w3.org/1999/xlink" x="0px" y="0px"
	 viewBox="0 0 28.913 28.913" style="enable-background:new 0 0 28.913 28.913;" xml:space="preserve">
<g>
	<path style="fill:#010002;" d="M28.878,14.443L21.159,1.789c-0.069-0.113-0.22-0.15-0.333-0.079l-9.961,6.074
		c-0.148-0.083-0.413-0.271-0.483-0.571c-0.091-0.401,0.173-0.948,0.765-1.581c0.793-0.849,1.139-1.688,1.024-2.495
		c-0.156-1.08-1.091-1.646-1.131-1.67l-0.496,0.837c0.005,0.004,0.575,0.356,0.664,0.971c0.07,0.499-0.188,1.07-0.771,1.694
		C9.601,5.86,9.264,6.689,9.434,7.432c0.092,0.397,0.315,0.687,0.543,0.894l-9.861,6.018c-0.055,0.035-0.094,0.087-0.109,0.148
		c-0.016,0.063-0.005,0.131,0.028,0.186l7.722,12.653c0.044,0.073,0.124,0.115,0.207,0.115c0.042,0,0.086-0.012,0.125-0.037
		l20.708-12.632C28.911,14.706,28.947,14.557,28.878,14.443z M23.526,10.507l-2.155,1.314l-1.316-2.156l2.157-1.314L23.526,10.507z
		 M20.005,4.733l1.314,2.156l-2.155,1.315L17.85,6.048L20.005,4.733z M19.92,12.704l-2.155,1.316l-1.314-2.156l2.154-1.315
		L19.92,12.704z M16.4,6.934l1.315,2.154l-2.156,1.316l-1.315-2.155L16.4,6.934z M16.151,15.003l-2.153,1.316l-1.315-2.156
		l2.155-1.315L16.151,15.003z M13.947,11.387L11.791,12.7l-1.314-2.153l2.155-1.315L13.947,11.387z M12.499,17.234l-2.156,1.315
		l-1.314-2.156l2.152-1.315L12.499,17.234z M8.977,11.463l1.314,2.154L8.137,14.93L6.82,12.777L8.977,11.463z M3.183,14.998
		l2.154-1.315l1.314,2.156l-2.154,1.313L3.183,14.998z M5.387,18.615l2.156-1.316l1.313,2.156l-2.154,1.314L5.387,18.615z
		 M8.729,24.261l-1.276-2.095l9.674-5.9l1.276,2.093L8.729,24.261z M19.866,17.465l-1.314-2.155l2.156-1.316l1.314,2.156
		L19.866,17.465z M23.473,15.266l-1.315-2.155l2.156-1.316l1.313,2.156L23.473,15.266z"/>
</g>
<g>
</g>
<g>
</g>
<g>
</g>
<g>
</g>
<g>
</g>
<g>
</g>
<g>
</g>
<g>
</g>
<g>
</g>
<g>
</g>
<g>
</g>
<g>
</g>
<g>
</g>
<g>
</g>
<g>
</g>
</svg>
