<?xml version="1.0" encoding="iso-8859-1"?>
<!-- Generator: Adobe Illustrator 18.1.1, SVG Export Plug-In . SVG Version: 6.00 Build 0)  -->
<svg version="1.1" id="Capa_1" xmlns="http://www.w3.org/2000/svg" xmlns:xlink="http://www.w3.org/1999/xlink" x="0px" y="0px"
	 viewBox="0 0 32.399 32.399" style="enable-background:new 0 0 32.399 32.399;" xml:space="preserve">
<g>
	<g>
		<g>
			<g>
				<path style="fill:#010002;" d="M13.853,16.68c-0.169,0-0.336-0.052-0.48-0.155L0.443,7.21C0.229,7.056,0.102,6.808,0.102,6.544
					V5.132c0-0.451,0.367-0.819,0.821-0.819h25.86c0.453,0,0.821,0.368,0.821,0.819v1.355c0,0.264-0.126,0.511-0.34,0.665
					l-12.93,9.37C14.191,16.628,14.021,16.68,13.853,16.68z M1.743,6.124l12.108,8.725l12.111-8.778V5.953H1.743V6.124z"/>
			</g>
		</g>
		<g>
			<g>
				<path style="fill:#010002;" d="M27.706,13.616V8.562L13.853,18.44L0,8.562v15.942h18.493c1.323,2.146,3.688,3.583,6.395,3.583
					c4.148,0,7.511-3.362,7.511-7.513C32.398,17.426,30.457,14.732,27.706,13.616z M24.887,25.931c-1.404,0-2.677-0.543-3.631-1.427
					c-1.059-0.977-1.726-2.373-1.726-3.93c0-2.959,2.397-5.354,5.357-5.354c1.037,0,2,0.301,2.818,0.81
					c1.521,0.943,2.537,2.623,2.537,4.545C30.242,23.534,27.845,25.931,24.887,25.931z"/>
			</g>
		</g>
		<g>
			<g>
				<rect x="21.168" y="19.208" style="fill:#010002;" width="7.722" height="2.399"/>
			</g>
		</g>
	</g>
</g>
<g>
</g>
<g>
</g>
<g>
</g>
<g>
</g>
<g>
</g>
<g>
</g>
<g>
</g>
<g>
</g>
<g>
</g>
<g>
</g>
<g>
</g>
<g>
</g>
<g>
</g>
<g>
</g>
<g>
</g>
</svg>
