<?xml version="1.0" encoding="iso-8859-1"?>
<!-- Generator: Adobe Illustrator 18.1.1, SVG Export Plug-In . SVG Version: 6.00 Build 0)  -->
<svg version="1.1" id="Capa_1" xmlns="http://www.w3.org/2000/svg" xmlns:xlink="http://www.w3.org/1999/xlink" x="0px" y="0px"
	 viewBox="0 0 498.587 498.587" style="enable-background:new 0 0 498.587 498.587;" xml:space="preserve">
<g>
	<g>
		<path style="fill:#010002;" d="M183.141,394.835l1.885-1.857c0,0,75.211-75.229,142.674-142.63V76.038
			c0-9.066-7.365-16.361-16.38-16.361l-279.086-0.14c0-11.276,8.382-16.966,16.914-16.966s278.57,0,278.57,0
			c17.413,0,16.904,15.371,16.904,15.371v175.473c8.941-8.978,17.589-17.615,25.796-25.787V31.592
			c0-12.258-10.382-15.353-15.346-15.353c-2.719,0-308.978,0-308.978,0C0,16.239,0,58.983,0,58.983v393.229
			c0,9.049,7.304,16.413,16.379,16.413h139.517c3.385-13.521,11.048-35.106,26.226-71.267L183.141,394.835z M80.538,152.521v-31.968
			H249.69v31.968H80.538z"/>
		<path style="fill:#010002;" d="M370.418,355.274c-8.716,8.73-17.361,17.343-25.762,25.776c0,0,0,32.193,0,34.613
			c0,1.841,0.639,12.638-8.383,12.638c0,0-5.046,0.024-8.54,0.024v-30.336c-25.796,25.776-47.574,47.558-59.358,59.377
			l-10.854,11.294h53.818c9.014,0,16.396-7.365,16.396-16.414l26.341-0.034c17.589,0,16.396-17.36,16.396-17.36V355.29h-0.052
			L370.418,355.274L370.418,355.274z"/>
		<path style="fill:#010002;" d="M440.334,154.635C420.938,174.1,194.653,400.307,194.653,400.307s-32.038,76.229-26.733,81.474
			c5.278,5.241,81.972-27.516,81.972-27.516c12.311-12.292,230.442-230.458,245.049-245.059c2.562-2.551,3.646-5.839,3.646-9.592
			C498.624,176.871,456.993,137.976,440.334,154.635z M485.438,200.352c-12.978,12.827-193.003,192.799-236.193,236.042
			l-36.037-36.055L449.63,163.918c0.315-0.377,2.597-0.377,6.085,1.114c4.191,1.727,8.313,4.594,12.258,7.988L254.759,386.19
			c-0.956,0.964-1.438,2.209-1.438,3.453c0,1.264,0.481,2.524,1.438,3.474c1.92,1.895,5.041,1.895,6.953,0L474.88,179.904
			c6.208,7.128,10.608,14.844,10.608,19.737C485.488,200.106,485.438,200.352,485.438,200.352z"/>
	</g>
</g>
<g>
</g>
<g>
</g>
<g>
</g>
<g>
</g>
<g>
</g>
<g>
</g>
<g>
</g>
<g>
</g>
<g>
</g>
<g>
</g>
<g>
</g>
<g>
</g>
<g>
</g>
<g>
</g>
<g>
</g>
</svg>
