<?xml version="1.0" encoding="iso-8859-1"?>
<!-- Generator: Adobe Illustrator 18.1.1, SVG Export Plug-In . SVG Version: 6.00 Build 0)  -->
<svg version="1.1" id="Capa_1" xmlns="http://www.w3.org/2000/svg" xmlns:xlink="http://www.w3.org/1999/xlink" x="0px" y="0px"
	 viewBox="0 0 494.711 494.711" style="enable-background:new 0 0 494.711 494.711;" xml:space="preserve">
<g>
	<g>
		<path style="fill:#010002;" d="M415.192,0H79.548c-8.986,0-16.235,7.268-16.235,16.254v462.228
			c0,8.959,7.249,16.229,16.235,16.229h248.993c4.018,0,7.883-1.486,10.818-4.146l86.648-77.524
			c3.422-3.085,5.391-7.451,5.391-12.101V16.252C431.399,7.266,424.151,0,415.192,0z M398.913,391.885h-75.537l0.008,70.331H95.803
			V32.47h186.385v185.809l41.521-54.124l41.484,54.124V32.47h33.717L398.913,391.885L398.913,391.885z"/>
		<rect x="125.022" y="124.834" style="fill:#010002;" width="101.882" height="101.882"/>
		<g>
			<rect x="155.356" y="268.353" style="fill:#010002;" width="168" height="30"/>
		</g>
		<g>
			<rect x="155.356" y="348.353" style="fill:#010002;" width="168" height="30"/>
		</g>
	</g>
</g>
<g>
</g>
<g>
</g>
<g>
</g>
<g>
</g>
<g>
</g>
<g>
</g>
<g>
</g>
<g>
</g>
<g>
</g>
<g>
</g>
<g>
</g>
<g>
</g>
<g>
</g>
<g>
</g>
<g>
</g>
</svg>
