<?xml version="1.0" encoding="iso-8859-1"?>
<!-- Generator: Adobe Illustrator 18.1.1, SVG Export Plug-In . SVG Version: 6.00 Build 0)  -->
<svg version="1.1" id="Capa_1" xmlns="http://www.w3.org/2000/svg" xmlns:xlink="http://www.w3.org/1999/xlink" x="0px" y="0px"
	 viewBox="0 0 33.88 33.88" style="enable-background:new 0 0 33.88 33.88;" xml:space="preserve">
<g>
	<path style="fill:#010002;" d="M4.858,11.991l-2.274-0.979l2.415-0.546l0.229-2.464l1.266,2.127l2.415-0.546l-1.635,1.863
		l1.266,2.128l-2.273-0.98l-1.634,1.861L4.858,11.991z M17.375,12.209l-13.3,3.329l0.109,0.44l13.301-3.329L17.375,12.209z
		 M17.834,14.046l-13.3,3.327l0.11,0.44l13.299-3.326L17.834,14.046z M18.276,15.811l-13.3,3.327l0.11,0.441l13.3-3.329
		L18.276,15.811z M18.733,17.647l-13.297,3.33l0.11,0.44l13.298-3.327L18.733,17.647z M19.149,19.298L5.851,22.629L5.96,23.07
		l13.3-3.33L19.149,19.298z M19.609,21.137L6.311,24.464l0.11,0.441l13.299-3.327L19.609,21.137z M20.051,22.9l-13.3,3.327
		l0.11,0.44l13.299-3.326L20.051,22.9z M20.507,24.734L7.21,28.066l0.109,0.438l13.298-3.33L20.507,24.734z M33.862,8.052
		l-6.393,22.466c-0.071,0.255-0.34,0.401-0.593,0.329l-8.742-2.487L5.783,31.151c-0.262,0.06-0.519-0.104-0.577-0.363L0.013,7.825
		c-0.061-0.262,0.102-0.52,0.365-0.579l15.775-3.567l0.175-0.614c0.073-0.256,0.338-0.404,0.594-0.331l16.606,4.727
		C33.786,7.532,33.933,7.798,33.862,8.052z M22.078,26.474l-4.98-22.016L1.063,8.085l4.976,22.017L22.078,26.474z M32.806,8.251
		L17.994,4.037l0.796,3.519l0.624,0.18l1.371-2.04l0.091,2.455l2.361,0.673l-2.309,0.844l0.089,2.454l-1.512-1.933l-0.11,0.04
		l0.556,2.46l9.411,2.448l-0.113,0.436l-9.187-2.389l0.352,1.565l8.475,2.204l-0.113,0.436l-8.248-2.145l0.338,1.484l7.57,1.969
		l-0.112,0.438l-7.346-1.912l0.354,1.566l6.632,1.727l-0.112,0.437l-6.406-1.669l0.308,1.361l5.784,1.505l-0.111,0.438l-5.563-1.444
		l0.354,1.563l4.851,1.263l-0.113,0.438l-4.623-1.203l0.338,1.486l3.944,1.024l-0.11,0.438l-3.723-0.968l0.351,1.549
		c0.001,0.007-0.001,0.013,0,0.019l3.011,0.785l-0.113,0.437l-3.04-0.788c-0.06,0.061-0.134,0.109-0.224,0.132l-2.676,0.605
		l6.589,1.875L32.806,8.251z"/>
</g>
<g>
</g>
<g>
</g>
<g>
</g>
<g>
</g>
<g>
</g>
<g>
</g>
<g>
</g>
<g>
</g>
<g>
</g>
<g>
</g>
<g>
</g>
<g>
</g>
<g>
</g>
<g>
</g>
<g>
</g>
</svg>
