<?xml version="1.0" encoding="iso-8859-1"?>
<!-- Generator: Adobe Illustrator 18.1.1, SVG Export Plug-In . SVG Version: 6.00 Build 0)  -->
<svg version="1.1" id="Capa_1" xmlns="http://www.w3.org/2000/svg" xmlns:xlink="http://www.w3.org/1999/xlink" x="0px" y="0px"
	 viewBox="0 0 27.892 27.892" style="enable-background:new 0 0 27.892 27.892;" xml:space="preserve">
<g>
	<path style="fill:#010002;" d="M8.719,11.543c0.093-0.08,0.163-0.177,0.22-0.284H8.99c0.139,0.259,0.302,0.493,0.477,0.712H8.196
		L8.719,11.543z M19.012,20.568V15.48v-1.509h-0.548v1.303v4.581h-5.441H2.339v-4.149H2.337v-3.735h0.52l-0.22-0.712H1.79v4.305
		v5.004h10.876H19.012z M0.188,25.191h20.284l0.15-0.5H0L0.188,25.191z M19.66,21.354l1.09,2.91l-0.052,0.167H0l1.389-3.077H19.66z
		 M11.448,24.3l-0.389-0.988H9.041L8.714,24.3H11.448z M19.277,23.15l-0.583-1.439H2.061L1.378,23.15H19.277z M24.122,5.834
		c-0.124,0-0.247,0.006-0.369,0.02c-0.747-1.849-2.556-3.153-4.674-3.153c-1.82,0-3.411,0.968-4.298,2.416
		c-0.425-0.138-0.877-0.216-1.346-0.216c-2.432,0-4.402,1.971-4.402,4.403c0,3.852,4.024,4.296,4.024,4.296h11.906
		c1.678-0.453,2.929-2.204,2.929-3.997C27.892,7.521,26.204,5.834,24.122,5.834z M4.194,14.484c0.061,0.02,0.125,0.006,0.172-0.033
		l3.59-2.94c0.052-0.046,0.077-0.113,0.065-0.181c-0.013-0.067-0.063-0.123-0.128-0.142l-1.436-0.431
		c0.177-0.581,0.348-1.049,0.516-1.436c0.803-1.85,2.109-2.018,2.165-2.024C9.211,7.29,9.275,7.236,9.295,7.165
		c0.003-0.011,0.006-0.022,0.008-0.033C9.312,7.041,9.257,6.959,9.17,6.935c-2.905-0.875-4.562,2.392-4.907,3.16L2.927,9.694
		c-0.064-0.02-0.134-0.002-0.184,0.049C2.692,9.792,2.677,9.862,2.696,9.928l1.374,4.434C4.088,14.421,4.135,14.467,4.194,14.484z"
		/>
</g>
<g>
</g>
<g>
</g>
<g>
</g>
<g>
</g>
<g>
</g>
<g>
</g>
<g>
</g>
<g>
</g>
<g>
</g>
<g>
</g>
<g>
</g>
<g>
</g>
<g>
</g>
<g>
</g>
<g>
</g>
</svg>
