<?xml version="1.0" encoding="iso-8859-1"?>
<!-- Generator: Adobe Illustrator 18.1.1, SVG Export Plug-In . SVG Version: 6.00 Build 0)  -->
<svg version="1.1" id="Capa_1" xmlns="http://www.w3.org/2000/svg" xmlns:xlink="http://www.w3.org/1999/xlink" x="0px" y="0px"
	 viewBox="0 0 493.243 493.243" style="enable-background:new 0 0 493.243 493.243;" xml:space="preserve">
<g>
	<g>
		<polygon style="fill:#010002;" points="151.737,446.35 490.121,446.35 492.611,438.008 148.612,438.008 		"/>
		<path style="fill:#010002;" d="M155.895,384.027V195.949h137.236l0.43-1.535l1.979-10.106l-3.193-14.106l-32.217-13.291
			c0,0-3.143,10.487,5.188,23.362c0,0-2.758,14.626-9.578,10.827l-18.708-9.387c0,0-6.282-2.68-16.379,3.34
			c-10.046,6.047-27.173-0.268-27.173-0.268s1.371-10.178,11.989-15.435l8.692-5.726c0,0-2.29-10.344-0.313-18.42
			c2.014-8.05,5.569-0.998,13.639-7.063c8.016-6.02,13.62,11.85,25.68,9.865c12.133-2.039,6.059-4.069,14.162-8.068
			c8.066-4.068,14.105,8.068,14.105,8.068l16.119,1.986c0,0-2.533-18.211-1.422-13.516c7.529,12.953,17.627,41.824,20.23,59.453
			h20.352c-9.889-83.9-78.66-149.035-167.717-149.035C73.719,46.894,0,119.665,0,215.839c0,90.158,64.909,157.584,148.591,167.666
			L155.895,384.027z M232.499,113.967l12.11-8.086c0,0-5.084-13.055-4.233-19.435c2.949-1.388,14.856,4.833,24.938,15.399
			c-6.818,25.175-22.665,22.207-22.665,22.207S230.971,123.813,232.499,113.967z M130.667,262.709
			c-0.764,3.816-5.311,12.926-8.312,18.912c-3.053,6.037-4.581,8.363-8.362,11.348c-3.78,3.088-6.055,8.328-6.055,8.328
			l-0.747,12.891c0,0,1.474,10.604,3.73,14.42c2.273,3.779-8.102,26.27-8.102,26.27c-6.559-1.25-10.202-8.885-12.493-14.924
			c-2.273-6.107-5.273-9.299-4.528-16.102c0.781-6.818-5.865-10.445-8.104-14.211c-2.255-3.781-5.291-9.072-5.291-12.855
			c0-3.818-8.295-9.127-8.295-9.127s-15.164-6.801-17.42-9.785c-2.273-3.053-4.563-15.928-5.31-21.195
			c-0.748-5.268,2.273-18.87,2.273-18.87s6.09-4.573,2.239-8.32c-3.766-3.782-4.511-13.682-4.511-13.682l-6.817-7.531
			c0,0-5.274-7.546-6.021-11.356c-0.747-3.78,0-6.088,0.747-9.838c0.764-3.826-1.491-10.627-1.491-14.373
			c28.229-69.289,75.614-85.463,75.614-85.463l3.8,15.885c0,0-8.31,2.273-12.838,0.764c-4.547-1.525-6.854-1.525-6.854-1.525
			l-6.021,8.311c0,0-2.288,5.281-3.053,8.318c-0.747,3.037,1.492,7.547,1.492,7.547s10.636,0.764,10.636-2.256
			c0-3.037-1.492-4.545-1.492-4.545l-1.56-5.283c0,0,6.868-3.781,24.949-2.273c18.185,1.49,11.418,14.375,18.947,17.395
			c7.581,3.063-6.074,13.596-9.091,19.65c-3.003,6.1-7.547-7.546-7.547-7.546s4.545-5.257-3.038-6.819
			c-7.581-1.492-12.578,13.62-8.762,12.909c3.78-0.719,8.016,4.078,7.252,7.808c-0.764,3.818-0.764,3.496-4.545,11.815
			c-3.783,8.312-11.99,14.463-11.99,14.463s-3.868-2.353-1.614,2.222c2.291,4.508-0.746,15.094-0.746,18.139
			c0,3.018-9.11-5.303-10.603-12.9c-1.545-7.537-10.41-0.927-13.447-0.183c-3.02,0.762-8.502-1.31-9.994-5.058
			c-1.526-3.791-15.181,7.545-18.964,9.767c-3.766,2.307-2.221,8.372,3.8,5.312c6.054-3.005,11.331-0.73,9.839,5.367
			c-1.511,6.003-7.548,2.24-6.802,6.003c0.729,3.782,6.782,7.548,8.274,12.901c1.563,5.257,15.928,0.729,20.458-1.545
			c4.527-2.273,17.401-4.538,18.895,1.545c1.563,6.055,15.91,8.26,21.187,9.802c5.31,1.517,15.909,2.245,21.948,8.319
			C141.996,247.594,131.412,258.951,130.667,262.709z M142.725,110.789c-10.564-11.354-21.184-15.224-20.371-22.813
			c0.141-1.526,10.914-3.913,11.123-6.542c16.017-14.887,41.645-11.816,43.585-8.293c-4.563,7.494-11.606,5.021-12.389,12.563
			c-0.764,7.598-12.838,17.409-11.346,20.446C154.838,109.203,153.327,122.121,142.725,110.789z"/>
		<polygon style="fill:#010002;" points="168.816,372.951 472.41,372.951 472.41,208.858 426.074,208.858 426.074,225.685 
			453.871,225.685 453.871,356.062 187.302,356.062 187.302,287.408 187.272,287.408 187.272,225.685 345.797,225.685 
			345.797,208.858 168.816,208.858 		"/>
		<path style="fill:#010002;" d="M473.051,381.33H168.177l-20.19,51.289h345.256L473.051,381.33z M305.715,429.918l3.725-13.793
			h22.354l3.727,13.793H305.715z M168.276,413.166l10.139-24.996h284.396l10.143,24.996H168.276z"/>
		<polygon style="fill:#010002;" points="386.131,302.787 446.899,242.018 406.744,242.019 406.744,158.011 365.517,158.011 
			365.517,242.019 325.362,242.019 		"/>
	</g>
</g>
<g>
</g>
<g>
</g>
<g>
</g>
<g>
</g>
<g>
</g>
<g>
</g>
<g>
</g>
<g>
</g>
<g>
</g>
<g>
</g>
<g>
</g>
<g>
</g>
<g>
</g>
<g>
</g>
<g>
</g>
</svg>
