<?xml version="1.0" encoding="iso-8859-1"?>
<!-- Generator: Adobe Illustrator 18.1.1, SVG Export Plug-In . SVG Version: 6.00 Build 0)  -->
<svg version="1.1" id="Capa_1" xmlns="http://www.w3.org/2000/svg" xmlns:xlink="http://www.w3.org/1999/xlink" x="0px" y="0px"
	 viewBox="0 0 99.598 99.598" style="enable-background:new 0 0 99.598 99.598;" xml:space="preserve">
<g>
	<path style="fill:#010002;" d="M99.455,39.379c-1.23-5.98-10.486-9.412-25.397-9.412c-3.268,0-6.723,0.186-10.278,0.522
		c-3.342-1.979-7.239-3.117-11.404-3.117c-7.448,0-14.043,3.633-18.123,9.221c-10.295,3.335-19.385,7.723-24.562,12.51
		c-0.584-0.139-1.19-0.22-1.816-0.22C3.526,48.883,0,52.408,0,56.758c0,4.351,3.526,7.875,7.875,7.875
		c0.734,0,1.441-0.107,2.115-0.296c4.32,2.456,11.404,3.796,20.701,3.796c2.653,0,5.433-0.124,8.285-0.347
		c3.738,2.79,8.375,4.441,13.399,4.441c8.268,0,15.484-4.478,19.374-11.135C88.119,55.602,101.115,47.466,99.455,39.379z
		 M60.474,36.605l1.577-1.062c0,0-0.664-1.699-0.549-2.524c0.389-0.178,1.937,0.633,3.246,2.014
		c-0.879,3.285-2.961,2.889-2.961,2.889S60.276,37.889,60.474,36.605z M7.39,58.632c0,0.403-0.327,0.731-0.731,0.731
		c-0.403,0-0.73-0.328-0.73-0.731c0-0.402,0.327-0.73,0.73-0.73C7.064,57.901,7.39,58.23,7.39,58.632z M11.796,59.567
		c-0.532,0-0.963-0.434-0.963-0.964c0-0.532,0.432-0.966,0.963-0.966c0.533,0,0.964,0.434,0.964,0.966
		C12.758,59.133,12.327,59.567,11.796,59.567z M6.966,51.883c0.404,0,0.731,0.328,0.731,0.731s-0.327,0.73-0.731,0.73
		s-0.73-0.327-0.73-0.73S6.562,51.883,6.966,51.883z M6.146,61.46c-1.1,0-1.992-0.894-1.992-1.994c0-1.1,0.892-1.995,1.992-1.995
		c1.103,0,1.995,0.896,1.995,1.995C8.14,60.567,7.249,61.46,6.146,61.46z M30.692,65.133c-7.452,0-13.541-0.942-17.505-2.572
		c1.572-1.439,2.563-3.502,2.563-5.803c0-2.517-1.185-4.752-3.021-6.192c4.055-3.385,10.659-6.956,19.222-10.026
		c-1.283,2.824-2.003,5.958-2.003,9.262c0,5.853,2.243,11.179,5.914,15.172C34.099,65.067,32.362,65.133,30.692,65.133z
		 M47.188,56.029c-0.099,0.495-0.692,1.682-1.089,2.473c-0.39,0.777-0.593,1.082-1.084,1.474c-0.493,0.398-0.792,1.093-0.792,1.093
		l-0.095,1.681c0,0,0.191,1.379,0.492,1.878c0.292,0.492-1.06,3.428-1.06,3.428c-0.859-0.169-1.334-1.16-1.631-1.938
		c-0.298-0.796-0.692-1.225-0.588-2.098c0.093-0.889-0.773-1.363-1.068-1.856c-0.292-0.495-0.682-1.188-0.682-1.682
		c0-0.498-1.087-1.195-1.087-1.195s-1.978-0.881-2.273-1.27c-0.298-0.408-0.596-2.085-0.695-2.771
		c-0.104-0.689,0.292-2.467,0.292-2.467s0.79-0.604,0.29-1.093c-0.491-0.5-0.59-1.791-0.59-1.791l-0.889-0.987
		c0,0-0.689-0.996-0.785-1.478c-0.101-0.49,0-0.787,0.096-1.287c0.099-0.494-0.196-1.375-0.196-1.873
		c0.996-2.435,2.171-4.359,3.357-5.884l0.669-0.823c2.99-3.463,5.845-4.447,5.845-4.447l0.499,2.066c0,0-1.089,0.295-1.68,0.103
		c-0.594-0.196-0.89-0.196-0.89-0.196l-0.788,1.086l-0.224,1.755c0,0,1.403,0.42,1.403,0.023s-0.194-0.592-0.194-0.592l-0.146-0.527
		c0.481-0.156,0.953-0.318,1.44-0.471c0.47-0.037,1.022-0.059,1.766,0.009c2.377,0.196,1.489,1.87,2.477,2.278
		c0.991,0.396-0.792,1.766-1.188,2.564c-0.39,0.788-0.99-0.995-0.99-0.995s0.601-0.684-0.39-0.881
		c-0.993-0.191-1.648,1.771-1.143,1.686c0.491-0.097,1.042,0.528,0.945,1.015c-0.101,0.495-0.101,0.456-0.602,1.538
		c-0.488,1.092-1.564,1.897-1.564,1.897s-0.502-0.306-0.205,0.288c0.298,0.595-0.107,1.972-0.107,2.371
		c0,0.396-1.178-0.688-1.372-1.682c-0.198-0.982-1.353-0.126-1.75-0.027c-0.394,0.104-1.114-0.174-1.314-0.661
		c-0.193-0.492-1.974,0.989-2.472,1.276c-0.492,0.293-0.293,1.095,0.498,0.695c0.79-0.406,1.476-0.092,1.283,0.694
		c-0.195,0.775-0.988,0.292-0.888,0.775c0.096,0.498,0.888,0.999,1.084,1.696c0.196,0.689,2.075,0.096,2.668-0.199
		c0.595-0.292,2.265-0.595,2.468,0.199c0.199,0.789,2.075,1.084,2.765,1.278c0.695,0.188,2.072,0.29,2.869,1.093
		C48.667,54.052,47.286,55.535,47.188,56.029z M51.621,32.92c-0.023,0.198-0.113,0.41-0.229,0.633l-0.434,0.668
		c-0.446,0.602-0.931,1.133-0.816,1.368c0.192,0.399,0,2.081-1.388,0.6c-0.431-0.458-0.845-0.811-1.232-1.125l-0.518-0.428
		c-0.577-0.481-0.968-0.877-0.912-1.421c0.026-0.195,1.433-0.5,1.455-0.852c2.093-1.943,5.441-1.547,5.696-1.091
		C52.644,32.259,51.716,31.921,51.621,32.92z M71.341,49.03c-0.426-0.183-0.788-0.353-0.788-0.353h-2.64l1.582,1.852
		c0,0,0.764,1.114,1.846,1.051c-0.467,5.389-3.563,9.503-5.65,11.723l-0.878,0.885c-0.649,0.621-1.078,0.946-1.078,0.946
		c-0.173-0.166-0.242-0.313-0.335-0.481l-0.233-0.502c-0.146-0.568,0.044-0.984,0.044-0.984l0.293-1.587l0.174-2.662
		c0,0,0-2.755-2.64-1.447c-2.829,0.72-1.644,0.72-4.51,0.917c-2.869,0.204-2.391-5.834-2.391-5.834c0-9.04,6.925-2.217,6.925-2.217
		c3.951,2.638,4.477-2.177,4.477-2.177l2.9-1.045l0.262-1.319l-0.418-1.843l-4.207-1.738c0,0-0.404,1.361,0.669,3.056
		c0,0-0.351,1.907-1.241,1.408l-2.434-1.231c0,0-0.818-0.35-2.147,0.442c-1.313,0.782-3.543-0.041-3.543-0.041
		s0.179-1.329,1.565-2.009l1.126-0.76c0,0-0.292-1.348-0.033-2.402c0.264-1.054,0.723-0.134,1.777-0.925
		c1.05-0.781,1.776,1.546,3.354,1.285c1.574-0.265,0.784-0.529,1.844-1.055c1.056-0.528,1.839,1.055,1.839,1.055l2.108,0.261
		c0.008,0.008-0.327-2.366-0.179-1.753C70.112,41.83,72.067,47.943,71.341,49.03z M73.51,57.307
		c0.834-2.348,1.292-4.872,1.292-7.507c0-6.577-2.831-12.491-7.341-16.595c2.264-0.152,4.476-0.238,6.597-0.238
		c12.768,0,21.582,2.754,22.457,7.017C97.476,44.661,88.65,51.759,73.51,57.307z"/>
</g>
<g>
</g>
<g>
</g>
<g>
</g>
<g>
</g>
<g>
</g>
<g>
</g>
<g>
</g>
<g>
</g>
<g>
</g>
<g>
</g>
<g>
</g>
<g>
</g>
<g>
</g>
<g>
</g>
<g>
</g>
</svg>
