<?xml version="1.0" encoding="iso-8859-1"?>
<!-- Generator: Adobe Illustrator 18.1.1, SVG Export Plug-In . SVG Version: 6.00 Build 0)  -->
<svg version="1.1" id="Capa_1" xmlns="http://www.w3.org/2000/svg" xmlns:xlink="http://www.w3.org/1999/xlink" x="0px" y="0px"
	 viewBox="0 0 25.325 25.325" style="enable-background:new 0 0 25.325 25.325;" xml:space="preserve">
<g>
	<path style="fill:#010002;" d="M12.748,19.419c-0.082,0-0.164-0.021-0.239-0.06c-0.169-0.089-0.275-0.264-0.275-0.455v-8.803
		c0-0.191,0.106-0.367,0.275-0.456c0.168-0.089,0.373-0.077,0.531,0.031l6.419,4.401c0.139,0.096,0.224,0.254,0.224,0.424
		s-0.084,0.328-0.224,0.424l-6.419,4.402C12.952,19.388,12.85,19.419,12.748,19.419z M24.632,4.326H11.961l0.525,0.826
		c0.081,0.12,0.122,0.19,0.153,0.265c0.024,0.056,0.06,0.147,0.063,0.294h11.236v17.58H6.36V10.88
		c-0.458-0.087-0.937-0.204-1.385-0.344v13.448c0,0.383,0.31,0.693,0.691,0.693h18.966c0.383,0,0.693-0.311,0.693-0.693V5.019
		C25.325,4.637,25.016,4.326,24.632,4.326z M11.7,5.006l-1.086-1.714l-2.945,3.96L2.863,6.513l0.508,2.125
		c0-0.003,0.002-0.007,0.005-0.011C3.361,8.722,3.369,8.811,3.402,8.891c0.293,0.703,4.147,1.644,5.131,1.235
		s3.678-4.07,3.386-4.773C11.888,5.276,11.833,5.211,11.7,5.006z M7.528,6.827L0,5.682l5.232-4.43l6.802-0.603L7.528,6.827z
		 M0.176,5.987l1.299,4.143l0.858,1.047L2.17,9.841L0.176,5.987z"/>
</g>
<g>
</g>
<g>
</g>
<g>
</g>
<g>
</g>
<g>
</g>
<g>
</g>
<g>
</g>
<g>
</g>
<g>
</g>
<g>
</g>
<g>
</g>
<g>
</g>
<g>
</g>
<g>
</g>
<g>
</g>
</svg>
