<?xml version="1.0" encoding="iso-8859-1"?>
<!-- Generator: Adobe Illustrator 18.1.1, SVG Export Plug-In . SVG Version: 6.00 Build 0)  -->
<svg version="1.1" id="Capa_1" xmlns="http://www.w3.org/2000/svg" xmlns:xlink="http://www.w3.org/1999/xlink" x="0px" y="0px"
	 viewBox="0 0 97.246 97.246" style="enable-background:new 0 0 97.246 97.246;" xml:space="preserve">
<g>
	<g>
		<polygon style="fill:#010002;" points="29.416,74.357 26.192,71.531 34.195,66.97 17.956,68.002 21.176,70.826 12.967,75.206 		
			"/>
		<polygon style="fill:#010002;" points="12.922,85.858 18.015,90.317 5.037,97.246 31.038,95.918 25.945,91.451 38.596,84.241 		
			"/>
		<path style="fill:#010002;" d="M80.977,8.156C67.303-3.825,46.426-2.446,34.453,11.238L8.146,44.54l14.559,12.75l26.307-33.311
			c4.949-5.647,13.567-6.218,19.217-1.272c5.647,4.946,6.222,13.568,1.274,19.217L39.956,72.402l14.56,12.747l29.543-30.476
			C96.034,40.997,94.65,20.126,80.977,8.156z M82.44,53.258L63.457,72.732l-11.321-9.917l18.982-19.466
			c5.729-6.544,5.063-16.53-1.47-22.256c-6.543-5.729-16.528-5.067-22.255,1.474l-16.8,21.389l-11.322-9.92l16.8-21.389
			C47.265-0.127,66.775-1.424,79.557,9.773C92.34,20.965,93.635,40.475,82.44,53.258z"/>
	</g>
</g>
<g>
</g>
<g>
</g>
<g>
</g>
<g>
</g>
<g>
</g>
<g>
</g>
<g>
</g>
<g>
</g>
<g>
</g>
<g>
</g>
<g>
</g>
<g>
</g>
<g>
</g>
<g>
</g>
<g>
</g>
</svg>
