<?xml version="1.0" encoding="iso-8859-1"?>
<!-- Generator: Adobe Illustrator 18.1.1, SVG Export Plug-In . SVG Version: 6.00 Build 0)  -->
<svg version="1.1" id="Capa_1" xmlns="http://www.w3.org/2000/svg" xmlns:xlink="http://www.w3.org/1999/xlink" x="0px" y="0px"
	 viewBox="0 0 22.723 22.723" style="enable-background:new 0 0 22.723 22.723;" xml:space="preserve">
<g>
	<path style="fill:#010002;" d="M19.735,6.896c0.007,0.245-0.139,0.47-0.366,0.563L9.114,11.655
		c-0.071,0.03-0.147,0.044-0.223,0.044c-0.115,0-0.23-0.034-0.329-0.1c-0.163-0.11-0.261-0.293-0.261-0.489V3.433
		c0-0.19,0.092-0.369,0.246-0.479C8.702,2.844,8.9,2.814,9.08,2.876l10.255,3.481C19.568,6.435,19.726,6.651,19.735,6.896z
		 M9.991,20.66c0,1.156-1.539,2.063-3.502,2.063c-1.965,0-3.502-0.907-3.502-2.063c0-0.976,1.097-1.77,2.618-1.997V2.738
		c0-0.069,0.011-0.137,0.025-0.202c-0.395-0.24-0.662-0.67-0.662-1.167C4.968,0.613,5.582,0,6.337,0h0.539
		c0.756,0,1.369,0.613,1.369,1.369c0,0.584-0.367,1.079-0.881,1.275c0.004,0.032,0.01,0.062,0.01,0.094v15.925
		C8.894,18.89,9.991,19.684,9.991,20.66z M9.402,20.661c0-0.643-0.869-1.198-2.029-1.394v1.376c0,0.489-0.396,0.885-0.885,0.885
		s-0.885-0.396-0.885-0.885v-1.376c-1.16,0.196-2.029,0.751-2.029,1.394c0,0.799,1.335,1.474,2.913,1.474
		C8.068,22.134,9.402,21.46,9.402,20.661z"/>
</g>
<g>
</g>
<g>
</g>
<g>
</g>
<g>
</g>
<g>
</g>
<g>
</g>
<g>
</g>
<g>
</g>
<g>
</g>
<g>
</g>
<g>
</g>
<g>
</g>
<g>
</g>
<g>
</g>
<g>
</g>
</svg>
