<?xml version="1.0" encoding="iso-8859-1"?>
<!-- Generator: Adobe Illustrator 18.1.1, SVG Export Plug-In . SVG Version: 6.00 Build 0)  -->
<svg version="1.1" id="Capa_1" xmlns="http://www.w3.org/2000/svg" xmlns:xlink="http://www.w3.org/1999/xlink" x="0px" y="0px"
	 viewBox="0 0 494.837 494.837" style="enable-background:new 0 0 494.837 494.837;" xml:space="preserve">
<g>
	<g>
		<path style="fill:#010002;" d="M454.584,327.646h-73.666c34.621-35.306,113.918-120.479,113.918-222.021
			c0-56.828-46.227-103.095-103.115-103.095c-11.523,0-292.501,0-292.501,0C42.668,2.53,0,53.724,0,105.623
			c0,27.921,9.662,54.173,29.597,74.047c5.773,5.733,12.818,9.012,21.046,9.012c0,0,33.766,0,39.417,0
			c0.161,0.281,7.192,34.403-61.232,126.229c0,0-28.826,34.674-28.826,78.696c0,53.308,32.93,93.858,85.413,98.688
			c0.864,0.103,287.076-0.521,298.16-0.521c56.869,0,111.262-41.277,111.262-98.166c0-17.263-4.625-34.58-13.256-50.13
			C476.148,333.719,465.789,327.646,454.584,327.646z M47.381,162.913c0,0-21.713-21.495-21.075-64.323
			c0.576-38.667,33.946-72.084,70.998-72.084l241.854-0.021c-22.771,15.932-38.24,42.351-38.24,72.183c0,19.513,5,44,14.301,64.166
			L47.381,162.913z M90.16,466.465c-36.632-3.38-65.458-35.243-65.458-72.841c0-19.732,7.466-37.956,19.532-56.445
			c24.018-33.927,67.518-87.428,73.385-148.275l218.133-0.179c17.534,0,15.769-9.829,14.123-12.922
			c-1.646-3.094-3.748-6.927-5.898-11.541c-22.059-36.594-32.225-131.816,55.48-131.816c40.594,0,72.461,33.328,70.656,73.177
			c-5.034,111.14-122.668,215.826-122.668,215.826c-23.361,19.801-39.391,42.364-39.391,72.176c0,30.234,16.98,56.949,40.252,72.841
			L90.16,466.465L90.16,466.465z M399.93,460.709c-43.512,0-87.678-64.291-43.929-105.511l103.642,0.199
			C480.418,380.418,469.418,460.709,399.93,460.709z"/>
		<polygon style="fill:#010002;" points="146.885,230.902 344.748,230.902 329.109,263.932 132.17,263.932 		"/>
		<polygon style="fill:#010002;" points="119.397,297.931 315.002,297.931 299.164,330.962 101.481,330.962 		"/>
		<polygon style="fill:#010002;" points="85.501,366.418 283.904,366.418 269.063,399.448 66.082,399.448 		"/>
	</g>
</g>
<g>
</g>
<g>
</g>
<g>
</g>
<g>
</g>
<g>
</g>
<g>
</g>
<g>
</g>
<g>
</g>
<g>
</g>
<g>
</g>
<g>
</g>
<g>
</g>
<g>
</g>
<g>
</g>
<g>
</g>
</svg>
