<?xml version="1.0" encoding="iso-8859-1"?>
<!-- Generator: Adobe Illustrator 18.1.1, SVG Export Plug-In . SVG Version: 6.00 Build 0)  -->
<svg version="1.1" id="Capa_1" xmlns="http://www.w3.org/2000/svg" xmlns:xlink="http://www.w3.org/1999/xlink" x="0px" y="0px"
	 viewBox="0 0 33.283 33.283" style="enable-background:new 0 0 33.283 33.283;" xml:space="preserve">
<g>
	<path style="fill:#010002;" d="M33.079,12.409c-0.991-3.637-3.08-6.422-6.046-8.055c-1.611-0.888-3.453-1.415-5.388-1.56V2.793
		c-0.001,0-0.005,0-0.008,0c-0.988-0.074-1.999-0.039-3.016,0.091c-10.088,0.568-13.7,7.255-13.73,7.393
		c-0.018,0.08-0.167,0.764-0.23,1.473c-0.029,0.297-0.046,0.622-0.02,0.937c-0.328,0.17-0.545,0.52-0.518,0.913
		c0.035,0.529,0.492,0.929,1.019,0.892c1.3-0.086,2.351,0.042,3.141,0.379c-0.029,0.144-0.058,0.291-0.086,0.437
		c-0.266,1.369-0.58,2.968-0.984,4.56c-0.208-0.009-0.42-0.017-0.656-0.026c-0.997-0.041-1.294-0.576-3.682-0.585
		c-0.017-0.002-0.031-0.002-0.046,0c-0.901,0.041-1.625,0.114-2.089,0.646c-0.302,0.341-0.37,0.746-0.373,1.084
		c0,0.064,0.005,0.118,0.008,0.177c-0.034,0.47-0.297,4.469-0.375,7.41c0,0.007,0,0.014,0,0.023
		c-0.001,0.418,0.271,0.789,0.672,0.917c1.697,0.529,3.249,0.389,4.608-0.423c2.213-1.316,2.477-3.11,3.395-6.216
		c0.473-0.008,1.002-0.03,1.675-0.074c0.042,0.569,0.176,1.155,0.482,2.209l0.004,0.016l0.006,0.015
		c0.706,1.495,1.761,3.055,3.134,3.454c2.771,0.816,5.115,3.021,7.495,1.528l0.004-0.005l0.006-0.004
		c0.732-0.551,2.208-2.539,4.094-1.981c0.035,0.026,0.074,0.054,0.111,0.079l0.007,0.006l0.009,0.006
		c0.7,0.389,2.255,0.596,2.767,0.663c0.605,0.076,1.009-0.006,1.281-0.631c0.098-0.232,0.167-0.475,0.317-1.182
		c0.041-0.184,0.065-0.342,0.074-0.478l0.021-0.097c0.041-0.234,0.114-0.555,0.206-0.962C30.89,23.151,34.116,16.244,33.079,12.409z
		 M4.301,27.446C3.596,27.867,2.819,28,1.94,27.851c0.027-0.767,0.064-1.551,0.104-2.29c0.079-0.188,0.2-0.392,0.396-0.579
		c0.533-0.503,0.648,0.072,3.25,0.425C5.035,26.792,5.307,26.846,4.301,27.446z M6.13,24.383c-2.27-0.35-2.894-1.239-3.987-0.524
		c0.078-1.236,0.146-2.584,0.147-2.602c0.001-0.015,0.001-0.029,0.001-0.043c0.125-0.015,0.316-0.031,0.604-0.045
		c3.606,0.375,4.229,0.469,3.781,1.659c-0.069-0.006-0.063,0.005,0,0.007C6.508,23.368,6.328,23.883,6.13,24.383z M10.181,19.817
		c-0.373,0.022-0.697,0.04-0.991,0.051c0.273-1.126,0.501-2.248,0.711-3.31C10.303,17.617,10.234,18.887,10.181,19.817z
		 M18.3,19.088c-1.117,0-2.023-0.904-2.023-2.021s0.906-2.021,2.023-2.021s2.02,0.905,2.02,2.021S19.417,19.088,18.3,19.088z"/>
</g>
<g>
</g>
<g>
</g>
<g>
</g>
<g>
</g>
<g>
</g>
<g>
</g>
<g>
</g>
<g>
</g>
<g>
</g>
<g>
</g>
<g>
</g>
<g>
</g>
<g>
</g>
<g>
</g>
<g>
</g>
</svg>
