<?xml version="1.0" encoding="iso-8859-1"?>
<!-- Generator: Adobe Illustrator 18.1.1, SVG Export Plug-In . SVG Version: 6.00 Build 0)  -->
<svg version="1.1" id="Capa_1" xmlns="http://www.w3.org/2000/svg" xmlns:xlink="http://www.w3.org/1999/xlink" x="0px" y="0px"
	 viewBox="0 0 492.355 492.355" style="enable-background:new 0 0 492.355 492.355;" xml:space="preserve">
<g>
	<g>
		<path style="fill:#010002;" d="M226.894,179.8c8.576,1.632,17.111,3.592,25.633,5.661c2.296,10.486,3.496,21.085,3.798,31.757
			c5.34-2.108,11.17-3.789,17.465-4.909c-0.654-7.489-1.83-14.974-3.713-22.26c7.823,2.109,15.621,4.31,23.516,6.568
			c-8.316-5.675-17.043-10.755-26.027-15.336c-1.461-4.392-3.061-8.788-4.973-12.994c-8.809-19.657-22.272-36.804-38.743-49.478
			c10.898,17.61,19.938,35.479,25.483,54.16c-6.201-2.525-12.51-4.849-18.887-6.86c-11.663-3.723-23.598-6.632-35.751-8.658
			c-3.182-9.457-6.938-18.709-11.512-27.538c-2.731-5.229-5.667-10.344-8.986-15.239c-3.291-4.909-6.773-9.635-10.856-13.859
			c4.766,10.657,8.48,21.479,11.676,32.378c2.171,7.449,4.042,14.879,5.626,22.342c-6.706-0.725-13.411-1.229-20.143-1.353
			c-13.915-0.328-27.872,0.587-41.61,2.751c1.734-8.515,3.811-16.961,6.282-25.436c3.195-10.91,6.896-21.746,11.676-32.37
			c-4.069,4.205-7.565,8.943-10.856,13.825c-3.305,4.91-6.255,10.031-8.986,15.254c-5.203,10.059-9.45,20.718-12.809,31.58
			c-4.807,1.079-9.546,2.294-14.23,3.708c-8.822,2.696-17.466,5.969-25.796,9.799c5.544-18.177,14.407-35.603,25.045-52.762
			c-16.497,12.673-29.989,29.847-38.784,49.478c-1.98,4.377-3.66,8.938-5.148,13.547c-1.174,0.729-2.362,1.447-3.496,2.212
			c-4.875,3.258-9.641,6.754-13.861,10.852c5.066-2.288,10.201-4.31,15.363-6.139c-3.633,13.888-5.148,28.377-4.466,42.723
			c0.601,13.73,3.127,27.265,7.046,40.293c-6.8-2.352-13.601-4.877-20.266-7.882c4.22,4.1,8.972,7.595,13.833,10.897
			c3.059,2.035,6.173,3.894,9.382,5.692c1.543,4.386,3.25,8.687,5.135,12.894c4.356,9.668,9.464,18.914,15.309,27.627
			c2.936,4.354,5.995,8.574,9.354,12.576c3.291,4.043,6.76,7.976,10.625,11.498c-8.645-18.354-15.896-36.707-21.59-55.334
			c6.514,2.758,13.178,5.188,19.992,7.278c6.378,1.938,12.851,3.552,19.378,4.875c7.21,21.739,17.07,42.457,29.879,61.181
			c-5.653-19.748-11.048-39.207-15.199-58.75c12.072,1.666,24.294,2.295,36.476,2.049c6.91-0.189,13.793-0.653,20.648-1.446
			c-4.206,19.966-9.682,39.713-15.445,59.854c12.12-17.677,21.625-37.171,28.68-57.607c-0.285,0.859-0.085,0.349,1.581-4.311
			c3.755-10.461,8.398-34.306,8.398-34.306c2.158-12.182,3.496-24.473,3.783-36.855c0.478-19.508-1.516-39.099-5.995-58.053
			C208.826,176.524,217.882,178.012,226.894,179.8z M90.933,285.048c-9-1.611-17.931-3.619-26.807-6.051
			c-3.974-15.445-6.623-31-7.333-46.607c-0.751-16.024,0.601-31.996,4.274-47.673c10.665-3.073,21.385-5.579,32.214-7.505
			c2.185-0.396,4.356-0.744,6.555-1.093c-4.083,18.21-5.872,36.934-5.422,55.587c0.438,18.642,3.1,37.145,7.688,55.117
			C98.377,286.277,94.634,285.702,90.933,285.048z M187.77,232.965c-0.451,18.585-2.405,37.171-5.573,55.661
			c-8.153,0.735-16.319,1.229-24.485,1.447c-13.137,0.327-26.315-0.14-39.398-1.339c-3.359-19.094-5.394-38.267-5.886-57.479
			c-0.492-19.126,0.628-38.259,3.469-57.273c14.68-1.584,29.415-2.157,44.137-1.789c7.988,0.178,15.991,0.67,23.953,1.395
			C187.06,193.279,188.275,213.121,187.77,232.965z M192.477,307.665c0.342-1.006,0.684-2.012,1.014-3.022
			C193.513,304.632,192.931,306.329,192.477,307.665z"/>
		<path style="fill:#010002;" d="M17.999,233.696c0-78.229,63.597-141.8,141.792-141.8c70.507,0,128.969,51.758,139.838,119.238
			c6.688,0.562,12.945,1.774,18.709,3.51c-9.465-79.156-76.897-140.773-158.548-140.773C71.681,73.871,0,145.579,0,233.695
			c0,88.089,71.681,159.757,159.79,159.757c12.236,0,24.104-1.503,35.547-4.125v-18.546c-11.389,2.947-23.27,4.695-35.547,4.695
			C81.594,375.45,17.999,311.841,17.999,233.696z"/>
		<path style="fill:#010002;" d="M298.223,118.293c0.562,1.011,1.625,1.569,2.758,1.398c1.027-0.059,20.884-1.891,39.183,21.87
			c3.821,5.08,8.026,11.368,12.739,19.241l-19.516,11.525c-0.889,0.547-1.406,1.51-1.379,2.574c0.068,1.045,0.695,1.96,1.598,2.391
			l63.406,30.207c0.859,0.416,2.094,0.361,2.898-0.13c0.791-0.484,1.047-1.324,1.112-2.232l4.109-70.146
			c0.055-1.051-0.463-2.015-1.353-2.562c-0.899-0.546-2.034-0.546-2.896-0.055l-18.145,10.757
			c-7.884-10.044-44.041-52.022-83.591-28.638c-1.159,0.684-1.692,2.034-1.217,3.34
			C298.031,118.033,298.115,118.143,298.223,118.293z"/>
		<path style="fill:#010002;" d="M484.069,283.921v-10.818l-2.704-5.158c-2.091-3.469-8.058-12.5-18.201-21.563
			c-11.172-10.023-29.922-21.912-55.597-21.912c-25.756,0-44.301,11.997-55.319,22.089c-0.588,0.547-1.146,1.094-1.693,1.584
			c-0.615-0.572-1.256-1.188-1.896-1.762c-11.24-10.022-30.021-21.911-55.65-21.911c-25.77,0-44.328,11.997-55.361,22.089
			c-10.57,9.737-16.333,19.241-17.835,21.985l-2.262,4.346l-0.1,11.059h-8.057v134.535h282.961V283.921H484.069z M475.67,398.97
			h-0.002H228.847v-95.547h8.043v-25.551c0,0,6.473-10.119,13.916-16.947c8.467-7.776,22.697-17.036,42.226-17.036
			c19.529,0,33.977,9.26,42.579,16.919c2.99,2.738,5.546,5.361,7.619,7.791l7.349,8.658l7.416-8.631
			c2.035-2.375,4.491-5.025,7.416-7.715c8.438-7.751,22.627-17.01,42.153-17.01c19.517,0,33.949,9.23,42.638,17.01
			c7.153,6.391,11.646,12.604,13.928,16.182l0.008,26.344h11.533L475.67,398.97L475.67,398.97z"/>
		<path style="fill:#010002;" d="M324.409,277.501c-9.601-8.453-20.198-12.781-31.519-12.781c-11.117,0-21.019,3.903-30.248,12.043
			c-4.151,3.66-7.237,7.445-9.164,10.133v94.721c10.186-5.901,23.379-10.681,39.412-10.681c16.36,0,29.853,4.946,40.299,11.063
			v-94.898c-0.026-0.025-0.041-0.096-0.067-0.123C331.907,285.353,329.013,281.626,324.409,277.501z"/>
		<path style="fill:#010002;" d="M447.502,286.766c-2.553-3.358-5.461-6.559-8.533-9.205c-9.588-8.508-20.213-12.836-31.588-12.836
			c-11.072,0-20.974,3.929-30.273,12.069c-4.084,3.631-7.128,7.416-9.065,10.104v94.72c10.169-5.927,23.31-10.679,39.231-10.679
			c16.447,0,29.959,4.938,40.434,11.079v-94.953C447.641,286.983,447.571,286.846,447.502,286.766z"/>
		<polygon style="fill:#010002;" points="447.707,382.032 447.723,382.032 447.723,382.027 447.707,382.018 		"/>
	</g>
	<path style="fill:#010002;" d="M311.75,288.893c-3.329-5.144-10.963-8.467-19.447-8.467s-16.117,3.323-19.446,8.467l-8.395-5.434
		c5.203-8.039,15.871-13.033,27.841-13.033c11.971,0,22.639,4.994,27.842,13.033L311.75,288.893z"/>
</g>
<g>
</g>
<g>
</g>
<g>
</g>
<g>
</g>
<g>
</g>
<g>
</g>
<g>
</g>
<g>
</g>
<g>
</g>
<g>
</g>
<g>
</g>
<g>
</g>
<g>
</g>
<g>
</g>
<g>
</g>
</svg>
