<?xml version="1.0" encoding="iso-8859-1"?>
<!-- Generator: Adobe Illustrator 18.1.1, SVG Export Plug-In . SVG Version: 6.00 Build 0)  -->
<svg version="1.1" id="Capa_1" xmlns="http://www.w3.org/2000/svg" xmlns:xlink="http://www.w3.org/1999/xlink" x="0px" y="0px"
	 viewBox="0 0 25.322 25.322" style="enable-background:new 0 0 25.322 25.322;" xml:space="preserve">
<g>
	<g>
		<g>
			<path style="fill:#010002;" d="M24.631,4.325h-12.67l0.523,0.825c0.081,0.12,0.123,0.19,0.152,0.265
				c0.025,0.057,0.06,0.147,0.065,0.296h11.236v17.58H6.358V10.878c-0.457-0.088-0.937-0.204-1.386-0.345v13.449
				c0,0.383,0.311,0.693,0.693,0.693H24.63c0.383,0,0.692-0.311,0.692-0.693V5.018C25.323,4.634,25.014,4.325,24.631,4.325z"/>
		</g>
		<g>
			<g>
				<g>
					<path style="fill:#010002;" d="M11.698,5.003L10.612,3.29L7.669,7.25L2.861,6.511L3.37,8.636c0-0.004,0-0.008,0.004-0.012
						C3.36,8.72,3.367,8.808,3.401,8.889c0.292,0.704,4.147,1.644,5.13,1.235c0.985-0.409,3.678-4.07,3.388-4.773
						C11.887,5.274,11.831,5.21,11.698,5.003z"/>
				</g>
				<g>
					<polygon style="fill:#010002;" points="7.527,6.825 0,5.68 5.229,1.251 12.032,0.647 					"/>
				</g>
			</g>
			<g>
				<polygon style="fill:#010002;" points="0.175,5.985 1.472,10.128 2.332,11.175 2.169,9.838 				"/>
			</g>
		</g>
		<g id="_x3C_Group_x3E__1_">
			<g>
				<path style="fill:#010002;" d="M19.507,8.978l-6.268,1.016v7.538c-0.328-0.115-0.721-0.135-1.12-0.036
					c-0.889,0.222-1.471,0.955-1.301,1.637c0.101,0.631,1.03,1.053,1.919,0.831c0.78-0.194,1.326-0.787,1.329-1.388h0.002
					l0.02-6.368l4.593-0.84v5.119c-0.335-0.118-0.734-0.139-1.139-0.039c-0.897,0.226-1.487,0.964-1.314,1.654
					c0.171,0.689,1.039,1.064,1.938,0.842c0.817-0.208,1.342-0.768,1.342-1.471L19.507,8.978L19.507,8.978z"/>
			</g>
		</g>
	</g>
</g>
<g>
</g>
<g>
</g>
<g>
</g>
<g>
</g>
<g>
</g>
<g>
</g>
<g>
</g>
<g>
</g>
<g>
</g>
<g>
</g>
<g>
</g>
<g>
</g>
<g>
</g>
<g>
</g>
<g>
</g>
</svg>
