<?xml version="1.0" encoding="iso-8859-1"?>
<!-- Generator: Adobe Illustrator 18.1.1, SVG Export Plug-In . SVG Version: 6.00 Build 0)  -->
<svg version="1.1" id="Capa_1" xmlns="http://www.w3.org/2000/svg" xmlns:xlink="http://www.w3.org/1999/xlink" x="0px" y="0px"
	 viewBox="0 0 29.896 29.896" style="enable-background:new 0 0 29.896 29.896;" xml:space="preserve">
<g>
	<g>
		<path style="fill:#010002;" d="M24.117,19.218c-0.573-1.275-4.08-2.38-4.08-2.38c-1.872-0.66-1.885-1.318-1.885-1.318
			c-3.676,7.248-6.469,0.022-6.469,0.022c-0.256,0.977-4.041,2.125-4.041,2.125c-1.106,0.426-1.573,1.063-1.573,1.063
			c-1.637,2.423-1.826,7.822-1.826,7.822c0.02,1.233,0.553,1.362,0.553,1.362c3.761,1.679,9.661,1.976,9.661,1.976
			c6.059,0.127,10.47-1.721,10.47-1.721c0.638-0.405,0.658-0.723,0.658-0.723C26.032,23.577,24.117,19.218,24.117,19.218z"/>
		<path style="fill:#010002;" d="M20.201,7.473l-0.605,0.766c-0.761,0.963-4.035,2.864-4.936,2.864c-0.767,0-3.149-1.55-4.047-2.633
			L10,7.732l0.087,0.954c0.035,0.373,0.085,0.753,0.153,1.156c-0.072,0.032-0.135,0.082-0.185,0.149
			c-0.278,0.368-0.07,1.259,0.024,1.591c0.067,0.439,0.237,0.701,0.396,0.854c0.359,2.487,2.5,4.892,4.387,4.892
			c2.241,0,4.286-2.557,4.666-4.888c0.161-0.151,0.329-0.408,0.391-0.823c0.104-0.367,0.312-1.26,0.032-1.628
			c-0.025-0.035-0.056-0.065-0.089-0.09c0.097-0.342,0.218-0.864,0.262-1.453L20.201,7.473z M19.34,11.491
			c-0.055,0.356-0.188,0.498-0.262,0.551l-0.103,0.074l-0.018,0.126c-0.292,2.077-2.147,4.491-4.096,4.491
			c-1.62,0-3.544-2.263-3.812-4.485l-0.016-0.129l-0.104-0.076c-0.075-0.054-0.209-0.199-0.271-0.587
			c-0.108-0.389-0.17-0.826-0.146-1.025l0.483,0.228l-0.108-0.572c-0.04-0.207-0.073-0.406-0.103-0.601
			c1.128,1.011,2.991,2.211,3.876,2.211c0.958,0,3.447-1.393,4.754-2.464c-0.075,0.361-0.16,0.641-0.208,0.781l-0.18,0.537
			l0.467-0.136C19.518,10.61,19.458,11.063,19.34,11.491z"/>
		<path style="fill:#010002;" d="M10.384,7.47c0.887,1.069,3.342,2.741,4.276,2.741c1.006,0,4.353-1.942,5.169-2.977
			c0.116-0.148,0.181-0.277,0.181-0.379c0-0.089-0.028-0.176-0.073-0.436l-0.374-2.158l-0.429,0.255l-4.146,2.471l-4.066-2.47
			l-0.417-0.255L10.132,6.59c0.001-0.004,0.005-0.007,0.007-0.01c-0.054,0.09-0.083,0.181-0.083,0.276
			C10.056,7.01,10.179,7.224,10.384,7.47z"/>
		<polygon style="fill:#010002;" points="15.024,6.506 18.842,4.183 22.074,2.216 15.044,0 7.995,2.248 11.175,4.173 		"/>
		<polygon style="fill:#010002;" points="8.436,7.292 8.044,2.625 7.622,7.292 8.044,8.69 		"/>
	</g>
</g>
<g>
</g>
<g>
</g>
<g>
</g>
<g>
</g>
<g>
</g>
<g>
</g>
<g>
</g>
<g>
</g>
<g>
</g>
<g>
</g>
<g>
</g>
<g>
</g>
<g>
</g>
<g>
</g>
<g>
</g>
</svg>
