<?xml version="1.0" encoding="iso-8859-1"?>
<!-- Generator: Adobe Illustrator 18.1.1, SVG Export Plug-In . SVG Version: 6.00 Build 0)  -->
<svg version="1.1" id="Capa_1" xmlns="http://www.w3.org/2000/svg" xmlns:xlink="http://www.w3.org/1999/xlink" x="0px" y="0px"
	 viewBox="0 0 29.778 29.778" style="enable-background:new 0 0 29.778 29.778;" xml:space="preserve">
<g>
	<g>
		<path style="fill:#010002;" d="M26.83,20.696L21.274,9.141h-3.638c0.267,0.36-2.514,3.635-2.514,3.635s-2.776-3.275-2.512-3.635
			H8.914L2.948,20.696l5.966,1.803v7.279h12.204v-7.482L26.83,20.696z"/>
		<path style="fill:#010002;" d="M19.289,5.361l-0.311-1.802l-3.78,2.361l-3.93-2.361l-0.311,1.802
			c-0.039,0.217-0.063,0.29-0.063,0.364c0,0.639,3.034,2.511,4.229,2.768c1.195-0.257,4.229-2.129,4.229-2.768
			C19.353,5.651,19.328,5.578,19.289,5.361z"/>
		<polygon style="fill:#010002;" points="21.074,1.851 15.206,0 9.32,1.877 15.188,5.434 		"/>
		<polygon style="fill:#010002;" points="9.687,6.089 9.361,2.191 9.009,6.089 9.361,7.258 		"/>
	</g>
</g>
<g>
</g>
<g>
</g>
<g>
</g>
<g>
</g>
<g>
</g>
<g>
</g>
<g>
</g>
<g>
</g>
<g>
</g>
<g>
</g>
<g>
</g>
<g>
</g>
<g>
</g>
<g>
</g>
<g>
</g>
</svg>
