<?xml version="1.0" encoding="iso-8859-1"?>
<!-- Generator: Adobe Illustrator 18.1.1, SVG Export Plug-In . SVG Version: 6.00 Build 0)  -->
<svg version="1.1" id="Capa_1" xmlns="http://www.w3.org/2000/svg" xmlns:xlink="http://www.w3.org/1999/xlink" x="0px" y="0px"
	 viewBox="0 0 21.468 21.468" style="enable-background:new 0 0 21.468 21.468;" xml:space="preserve">
<g>
	<path style="fill:#010002;" d="M7.357,5.429c0-0.075,0.023-0.147,0.065-0.217C7.42,5.215,7.418,5.217,7.416,5.219V3.375
		l3.552,2.159l3.623-2.159v1.709c0.036,0.206,0.058,0.275,0.058,0.345c0,0.652-1.632,1.18-3.646,1.18
		C8.991,6.609,7.357,6.08,7.357,5.429z M16.578,1.754L11.013,0L5.428,1.78l5.566,3.373L16.578,1.754z M7.356,8.513
		c0,1.957,1.632,3.542,3.649,3.542c2.012,0,3.648-1.584,3.648-3.542V6.609c0,0-1.239,0.896-3.646,0.896S7.356,6.62,7.356,6.62V8.513
		z M19.331,16.44v5.028h-3.054v-4.401l-0.987-0.003v4.404H6.141l0.009-4.361H5.191v4.361H2.138V16.44c0,0-0.183-3.812,5.006-3.91
		h2.815l0.989,1.622l0.993-1.622h2.456C14.397,12.53,18.998,12.476,19.331,16.44z M11.826,15.86l-0.858-1.449l-0.86,1.415
		l0.92,4.248L11.826,15.86z M5.779,5.813L5.468,2.079L5.136,5.813l0.332,1.069L5.779,5.813z"/>
</g>
<g>
</g>
<g>
</g>
<g>
</g>
<g>
</g>
<g>
</g>
<g>
</g>
<g>
</g>
<g>
</g>
<g>
</g>
<g>
</g>
<g>
</g>
<g>
</g>
<g>
</g>
<g>
</g>
<g>
</g>
</svg>
