<?xml version="1.0" encoding="iso-8859-1"?>
<!-- Generator: Adobe Illustrator 18.1.1, SVG Export Plug-In . SVG Version: 6.00 Build 0)  -->
<svg version="1.1" id="Capa_1" xmlns="http://www.w3.org/2000/svg" xmlns:xlink="http://www.w3.org/1999/xlink" x="0px" y="0px"
	 viewBox="0 0 27.902 27.902" style="enable-background:new 0 0 27.902 27.902;" xml:space="preserve">
<g>
	<g>
		<path style="fill:#010002;" d="M23.08,17.274c-0.472-1.048-2.929-1.979-3.776-2.273C17.989,12.12,18.7,8.482,18.7,8.482
			c-0.233,1.034-0.529,1.431-0.529,1.431c-0.232,1.869-1.755,3.409-1.755,3.409c-0.028,0.503,0.036,0.929,0.157,1.293
			c-2.356,3.803-4.282,1.814-5.23,0.262c0.182-0.418,0.288-0.927,0.256-1.555c0,0-1.524-1.54-1.756-3.409
			c0,0-0.297-0.396-0.528-1.431c0,0,0.707,3.627-0.6,6.504c-1.014,0.433-2.033,0.744-2.033,0.744
			c-1.101,0.422-1.567,1.058-1.567,1.058c-1.63,2.412-1.82,7.787-1.82,7.787c0.021,1.227,0.551,1.355,0.551,1.355
			c3.744,1.669,9.617,1.965,9.617,1.965c6.03,0.13,10.42-1.713,10.42-1.713c0.639-0.402,0.656-0.72,0.656-0.72
			C24.984,21.612,23.08,17.274,23.08,17.274z"/>
		<path style="fill:#010002;" d="M9.12,6.577C9.095,6.64,9.076,6.701,9.076,6.766c0,0.069,0.029,0.154,0.078,0.247
			c0.023,0.226,0.05,0.361,0.05,0.361C9.275,7.38,9.342,7.382,9.413,7.388c0.885,1.054,3.289,2.689,4.206,2.689
			c0.87,0,3.51-1.471,4.694-2.521c0.017,0.009,0.032,0.019,0.051,0.028c0,0,0.003-0.036,0.01-0.088
			c0.129-0.116,0.24-0.229,0.324-0.332c0.024,0.037,0.048,0.078,0.061,0.133c0,0,0.009-0.094,0.018-0.246
			c0.072-0.107,0.121-0.206,0.121-0.285c0-0.089-0.027-0.174-0.073-0.43l-0.042-0.237c-0.026-0.699-0.138-1.583-0.47-2.316
			l2.62-1.594L13.999,0L7.043,2.22L9.63,3.786C9.149,4.785,9.088,5.865,9.12,6.577z"/>
		<polygon style="fill:#010002;" points="7.476,7.195 7.09,2.59 6.675,7.195 7.09,8.575 		"/>
	</g>
</g>
<g>
</g>
<g>
</g>
<g>
</g>
<g>
</g>
<g>
</g>
<g>
</g>
<g>
</g>
<g>
</g>
<g>
</g>
<g>
</g>
<g>
</g>
<g>
</g>
<g>
</g>
<g>
</g>
<g>
</g>
</svg>
