<?xml version="1.0" encoding="iso-8859-1"?>
<!-- Generator: Adobe Illustrator 18.1.1, SVG Export Plug-In . SVG Version: 6.00 Build 0)  -->
<svg version="1.1" id="Capa_1" xmlns="http://www.w3.org/2000/svg" xmlns:xlink="http://www.w3.org/1999/xlink" x="0px" y="0px"
	 viewBox="0 0 205.3 205.3" style="enable-background:new 0 0 205.3 205.3;" xml:space="preserve">
<g>
	<g>
		<rect x="25.85" y="180.3" style="fill:#010002;" width="153.7" height="25"/>
		<rect x="25.85" y="103.1" style="fill:#010002;" width="30.5" height="71.3"/>
		<rect x="67.55" y="103.1" style="fill:#010002;" width="30.5" height="71.3"/>
		<rect x="108.15" y="103.1" style="fill:#010002;" width="30.5" height="71.3"/>
		<rect x="149.05" y="103.1" style="fill:#010002;" width="30.5" height="71.3"/>
		<path style="fill:#010002;" d="M120.95,23.3h18.3c-4.8,4.1-7.8,10.2-7.8,16.9c0,6.6,2.8,13.3,7.7,18.2s11.5,7.7,18.2,7.7
			c16.7,0,30.3-13.6,30.3-30.3c0-9.6-3.7-18.6-10.5-25.3c-6.8-6.8-15.8-10.5-25.3-10.5h-98.3c-9.6,0-18.6,3.7-25.3,10.5
			c-6.9,6.7-10.6,15.7-10.6,25.3c0,16.7,13.6,30.3,30.3,30.3c6.7,0,13.3-2.8,18.2-7.7c4.9-4.9,7.7-11.5,7.7-18.2
			c0-6.8-3-12.8-7.8-16.9h18.2v45.5h-58.4v28.9h153.7V68.8h-58.6L120.95,23.3L120.95,23.3z"/>
	</g>
</g>
<g>
</g>
<g>
</g>
<g>
</g>
<g>
</g>
<g>
</g>
<g>
</g>
<g>
</g>
<g>
</g>
<g>
</g>
<g>
</g>
<g>
</g>
<g>
</g>
<g>
</g>
<g>
</g>
<g>
</g>
</svg>
