<?xml version="1.0" encoding="iso-8859-1"?>
<!-- Generator: Adobe Illustrator 18.1.1, SVG Export Plug-In . SVG Version: 6.00 Build 0)  -->
<svg version="1.1" id="Capa_1" xmlns="http://www.w3.org/2000/svg" xmlns:xlink="http://www.w3.org/1999/xlink" x="0px" y="0px"
	 viewBox="0 0 27.116 27.116" style="enable-background:new 0 0 27.116 27.116;" xml:space="preserve">
<g>
	<g>
		<path style="fill:#010002;" d="M12.773,7.67c-0.499,0-0.983,0.146-1.402,0.418c-0.575,0.375-0.971,0.951-1.112,1.625
			c-0.143,0.676-0.015,1.363,0.359,1.938c0.562,0.861,2.94,2.322,4.317,3.084l0.079-0.052c-1.129-1.132-2.322-2.346-3.464-3.662
			c-0.108-0.125-0.096-0.295-0.086-0.363c0.007-0.061,0.04-0.223,0.179-0.312c0.115-0.075,0.264-0.069,0.38,0.013l0.043,0.031
			c0.518,0.375,0.723,0.416,0.787,0.416c0,0.004,0.013-0.013,0.016-0.068c0.021-0.262-0.007-0.546-0.085-0.871
			c-0.068-0.282-0.128-0.494-0.193-0.69c-0.062-0.179,0.018-0.409,0.179-0.515c0.084-0.053,0.175-0.067,0.262-0.049
			c0.069,0.017,0.162,0.062,0.232,0.177l2.907,4.905c-0.158-1.079-0.618-3.908-1.235-4.854C14.459,8.108,13.649,7.67,12.773,7.67z"
			/>
		<path style="fill:#010002;" d="M13.112,11.55c0.76,0.825,1.528,1.608,2.262,2.348l-1.776-2.996
			C13.503,11.293,13.302,11.472,13.112,11.55z"/>
		<path style="fill:#010002;" d="M25.238,15.195l-0.164-0.55l-0.17-0.537L24.7,13.611l-0.19-0.498l-0.195-0.486l-0.177-0.479
			l-0.15-0.498l-0.117-0.496l0.026-0.23l0.104-0.215l0.108-0.232l0.028-0.212l-0.094-0.44l-0.111-0.433l-0.118-0.446l-0.136-0.428
			l-0.144-0.433L23.382,7.66L23.22,7.228l-0.171-0.422L22.86,6.408l-0.206-0.403L22.46,5.604l0.615-0.381L22.86,4.85l-0.243-0.348
			L22.375,4.15l-0.246-0.336l-0.228-0.28l-0.242-0.27l-0.242-0.243l-0.25-0.243l-0.254-0.23l0.563-0.214L21.187,2.14l-0.281-0.206
			l-0.298-0.177L20.314,1.59l-0.306-0.169l-0.311-0.148l-0.321-0.146l-0.341-0.135l-0.331-0.131l-0.335-0.126l-0.404-0.132
			L17.563,0.5l-0.408-0.111l-0.397-0.092l-0.419-0.085l-0.414-0.066l-0.418-0.053l-0.421-0.039l-0.412-0.027l-0.42-0.014L13.841,0
			l-0.433,0.014l-0.419,0.014l-0.415,0.026l-0.417,0.039l-0.412,0.053l-0.433,0.066l-0.427,0.085l-0.433,0.08l-0.43,0.087
			L9.595,0.591L9.164,0.709L8.73,0.847L8.316,0.992L7.91,1.153L7.512,1.347L7.104,1.526L6.72,1.729L6.339,1.961L5.977,2.188
			L5.63,2.444L5.289,2.715l-0.306,0.27l-0.295,0.28L4.407,3.561L4.138,3.866L3.881,4.207L3.626,4.529l-0.23,0.348L3.181,5.235
			L2.968,5.604L2.78,5.977l-0.161,0.38l-0.16,0.375l-0.137,0.39L2.203,7.511L2.106,7.917l-0.08,0.387L1.909,9.137L1.864,9.953
			l0.02,0.82l0.079,0.804l0.129,0.809l0.217,0.791l0.268,0.768l2.021,3.281c3.428,3.53,3.283,7.056,3.283,7.056l0.009,0.697
			l0.026,2.137h11.682l0.049-0.216v-0.685l0.028-0.686l0.051-1.532l0.08-0.78l0.037-0.183l0.073-0.149l0.078-0.134l0.104-0.111
			l0.139-0.077l0.158-0.055l0.175-0.057l0.19-0.027l0.244-0.025l0.228-0.014h0.057l0.229,0.025l0.215,0.014l0.229,0.027l0.21,0.019
			l0.241,0.026l0.231,0.025l-0.575,0.014l0.255,0.027l0.258,0.012l0.279,0.015l0.164-0.015l0.17-0.039l0.175-0.065l0.166-0.085
			l0.159-0.104l0.136-0.124l0.114-0.131l0.1-0.14l0.065-0.294l-0.036-0.322l-0.061-0.318v-0.309l0.048-0.138l0.064-0.117
			l0.064-0.126l0.08-0.105l0.083-0.111l0.066-0.119l0.053-0.122l0.014-0.132l-0.014-0.151l-0.026-0.132l-0.04-0.136l-0.066-0.13
			l-0.096-0.126l-0.105-0.117l-0.125-0.095l-0.143-0.095l0.156-0.08l0.15-0.092l0.153-0.111l0.102-0.104l0.093-0.125l0.057-0.131
			l0.03-0.124l-0.03-0.131l-0.149-0.472l-0.093-0.435l-0.057-0.397v-0.396l0.228-0.091l0.204-0.092l0.178-0.098l0.144-0.106
			l0.111-0.116l0.067-0.125l0.038-0.13L25.238,15.195z M13.542,3.46l0.939,0.687L13.068,6.09l-0.941-0.688L13.542,3.46z
			 M5.965,10.149L5.7,9.015l2.673-0.622L8.636,9.53L5.965,10.149z M8.386,7.616L6.291,6.44l0.571-1.016L8.96,6.602L8.386,7.616z
			 M10.171,3.103l0.951,2.205l-1.07,0.461l-0.95-2.206L10.171,3.103z M14.837,15.658c-0.164-0.088-4.042-2.162-4.938-3.538
			c-1.035-1.587-0.583-3.72,1.002-4.753c0.56-0.363,1.206-0.556,1.87-0.556c1.17,0,2.248,0.584,2.885,1.561
			c0.873,1.341,1.391,5.343,1.446,5.793l0.019,0.169l-2.144,1.398L14.837,15.658z M17.989,17.893
			c-0.35,0.227-0.66,0.336-0.947,0.336c-0.084,0-0.167-0.01-0.244-0.028c-0.347-0.079-0.531-0.315-0.577-0.387
			c-0.029-0.032-0.08-0.089-0.124-0.157l-0.938-1.439l2.481-1.614l0.938,1.439c0.042,0.062,0.073,0.128,0.102,0.192
			c0.031,0.049,0.049,0.107,0.063,0.154C18.817,16.64,18.896,17.292,17.989,17.893z"/>
	</g>
</g>
<g>
</g>
<g>
</g>
<g>
</g>
<g>
</g>
<g>
</g>
<g>
</g>
<g>
</g>
<g>
</g>
<g>
</g>
<g>
</g>
<g>
</g>
<g>
</g>
<g>
</g>
<g>
</g>
<g>
</g>
</svg>
