<?xml version="1.0" encoding="iso-8859-1"?>
<!-- Generator: Adobe Illustrator 18.1.1, SVG Export Plug-In . SVG Version: 6.00 Build 0)  -->
<svg version="1.1" id="Capa_1" xmlns="http://www.w3.org/2000/svg" xmlns:xlink="http://www.w3.org/1999/xlink" x="0px" y="0px"
	 viewBox="0 0 31.164 31.164" style="enable-background:new 0 0 31.164 31.164;" xml:space="preserve">
<g>
	<path style="fill:#010002;" d="M4.293,14.931H3.645v-4.253h11.64V9.852h0.65v0.826h11.256v4.123h-0.648v-3.474H15.935v3.283h-0.65
		v-3.283H4.293V14.931z M7.188,25.207H4.431v-1.731h-0.65v1.731H1.023v0.649h6.165C7.188,25.856,7.188,25.207,7.188,25.207z
		 M18.636,25.369H15.88v-1.732h-0.651v1.732h-2.756v0.649h6.163V25.369z M27.329,23.637h-0.65v1.732h-2.756v0.649h6.162v-0.649
		h-2.756V23.637z M15.694,3.401c0.776,0,1.406-0.629,1.406-1.406s-0.629-1.406-1.406-1.406s-1.406,0.63-1.406,1.406
		C14.288,2.772,14.917,3.401,15.694,3.401z M12.864,9.446c0.328,0,0.592-0.266,0.592-0.594c0-0.006,0-0.015-0.002-0.026h0.002V5.628
		h0.371V8.7h3.553V5.615h0.385v3.211h0.002c0,0.004,0,0.006,0,0.008c0,0.326,0.267,0.592,0.592,0.592
		c0.327,0,0.592-0.266,0.592-0.592c0-0.002,0-0.004,0-0.008V5.372c-0.129-1.542-1.915-1.52-1.915-1.52h-2.818
		c-2.017,0.039-1.947,1.52-1.947,1.52v3.454c0,0.012-0.002,0.021-0.002,0.026C12.269,9.18,12.537,9.446,12.864,9.446z M4.177,17.977
		c0.663,0,1.2-0.537,1.2-1.2s-0.537-1.2-1.2-1.2s-1.2,0.537-1.2,1.2S3.514,17.977,4.177,17.977z M1.76,23.142
		c0.281,0,0.506-0.227,0.506-0.507c0-0.008-0.002-0.016-0.002-0.021h0.002v-2.732h0.319l-0.002,2.621h3.034l-0.002-2.636h0.33v2.747
		c0,0.002,0,0.002,0,0.003c0,0.281,0.228,0.508,0.506,0.508c0.28,0,0.508-0.227,0.508-0.508c0-0.001,0-0.001,0-0.003v-2.951
		c-0.111-1.317-1.638-1.299-1.638-1.299H2.915c-1.723,0.032-1.664,1.299-1.664,1.299v2.951h0.004c0,0.005-0.004,0.013-0.004,0.021
		C1.251,22.915,1.482,23.142,1.76,23.142z M1.316,28.253c0.298,0,0.54-0.242,0.54-0.54s-0.242-0.54-0.54-0.54s-0.54,0.242-0.54,0.54
		S1.018,28.253,1.316,28.253z M1.832,28.427H0.749C-0.026,28.442,0,29.01,0,29.01v1.327h0.001C0.001,30.34,0,30.344,0,30.346
		c0,0.129,0.104,0.23,0.229,0.23c0.127,0,0.229-0.102,0.229-0.23c0-0.002-0.002-0.006-0.002-0.009h0.002v-1.228H0.6v1.18h1.365
		v-1.186h0.146v1.234h0.002c0,0.001,0,0.001,0,0.001c0,0.128,0.102,0.229,0.228,0.229s0.228-0.101,0.228-0.229c0,0,0,0,0-0.001
		V29.01C2.518,28.419,1.832,28.427,1.832,28.427z M6.693,27.173c-0.298,0-0.54,0.242-0.54,0.54s0.242,0.54,0.54,0.54
		s0.54-0.242,0.54-0.54S6.991,27.173,6.693,27.173z M7.208,28.427H6.123C5.35,28.442,5.377,29.01,5.377,29.01v1.327
		c0,0.003,0,0.007,0,0.009c0,0.129,0.102,0.23,0.229,0.23c0.126,0,0.228-0.102,0.228-0.23c0-0.002,0-0.006-0.001-0.009h0.001v-1.228
		h0.143v1.18h1.366v-1.186H7.49v1.234c0,0.001,0,0.001,0,0.001c0,0.128,0.101,0.229,0.228,0.229c0.125,0,0.226-0.101,0.226-0.229
		c0,0,0,0,0-0.001V29.01C7.894,28.419,7.208,28.427,7.208,28.427z M12.092,27.712c0,0.298,0.241,0.539,0.539,0.539
		c0.298,0,0.539-0.241,0.539-0.539s-0.241-0.539-0.539-0.539S12.092,27.414,12.092,27.712z M13.144,28.427h-1.08
		c-0.775,0.015-0.749,0.583-0.749,0.583v1.327h0.001c0,0.003-0.001,0.007-0.001,0.009c0,0.129,0.103,0.23,0.229,0.23
		c0.127,0,0.228-0.102,0.228-0.23c0-0.002,0-0.006-0.003-0.009h0.003v-1.228h0.143v1.18h1.365v-1.186h0.146v1.234
		c0,0.001,0,0.001,0,0.001c0,0.128,0.104,0.229,0.229,0.229c0.124,0,0.228-0.101,0.228-0.229c0,0,0,0,0-0.001V29.01
		C13.83,28.419,13.144,28.427,13.144,28.427z M17.465,27.712c0,0.299,0.242,0.541,0.541,0.541s0.541-0.242,0.541-0.541
		s-0.242-0.541-0.541-0.541C17.707,27.171,17.465,27.413,17.465,27.712z M18.52,28.427h-1.081c-0.775,0.015-0.749,0.583-0.749,0.583
		v1.327h0.001c0,0.003-0.001,0.007-0.001,0.009c0,0.129,0.104,0.23,0.23,0.23c0.124,0,0.228-0.102,0.228-0.23
		c0-0.002-0.002-0.006-0.002-0.009h0.002v-1.228h0.141v1.18h1.365v-1.186h0.148v1.234h0.001c0,0.001,0,0.001,0,0.001
		c0,0.128,0.101,0.229,0.227,0.229c0.124,0,0.228-0.101,0.228-0.229c0,0,0,0,0-0.001V29.01C19.208,28.419,18.52,28.427,18.52,28.427
		z M23.997,27.712c0,0.298,0.242,0.54,0.54,0.54s0.54-0.242,0.54-0.54s-0.242-0.54-0.54-0.54S23.997,27.414,23.997,27.712z
		 M25.051,28.427h-1.082c-0.775,0.015-0.749,0.583-0.749,0.583v1.327h0.002c0,0.003-0.002,0.007-0.002,0.009
		c0,0.129,0.103,0.23,0.23,0.23c0.125,0,0.228-0.102,0.228-0.23c0-0.002-0.002-0.006-0.002-0.009h0.002v-1.228h0.143v1.18h1.363
		v-1.186h0.148v1.234h0.002c0,0.001,0,0.001,0,0.001c0,0.128,0.1,0.229,0.226,0.229c0.125,0,0.228-0.101,0.228-0.229
		c0,0,0,0,0-0.001V29.01C25.737,28.419,25.051,28.427,25.051,28.427z M29.373,27.712c0,0.298,0.242,0.54,0.54,0.54
		s0.54-0.242,0.54-0.54s-0.242-0.54-0.54-0.54C29.615,27.172,29.373,27.414,29.373,27.712z M30.426,28.427h-1.081
		c-0.775,0.015-0.748,0.583-0.748,0.583v1.327c0,0.003,0,0.007,0,0.009c0,0.129,0.102,0.23,0.227,0.23
		c0.129,0,0.228-0.102,0.228-0.23c0-0.002,0-0.006,0-0.009v-1.228h0.145v1.18h1.364v-1.186h0.148v1.234c0,0.001,0,0.001,0,0.001
		c0,0.128,0.102,0.229,0.227,0.229c0.126,0,0.228-0.101,0.228-0.229c0,0,0,0,0-0.001V29.01
		C31.113,28.419,30.426,28.427,30.426,28.427z M16.689,16.777c0-0.663-0.537-1.2-1.2-1.2c-0.663,0-1.2,0.537-1.2,1.2
		s0.537,1.2,1.2,1.2C16.152,17.977,16.689,17.44,16.689,16.777z M13.073,23.142c0.282,0,0.507-0.227,0.507-0.507
		c0-0.008-0.002-0.016-0.002-0.021h0.002v-2.732h0.316l-0.002,2.621h3.035v-2.636h0.33v2.747c0,0.002,0,0.002,0,0.003
		c0,0.281,0.227,0.508,0.505,0.508c0.279,0,0.506-0.227,0.506-0.508c0-0.001,0-0.001,0-0.003v-2.951
		c-0.11-1.317-1.637-1.299-1.637-1.299h-2.405c-1.723,0.032-1.663,1.299-1.663,1.299v2.951h0.002c0,0.005-0.002,0.013-0.002,0.021
		C12.565,22.915,12.794,23.142,13.073,23.142z M25.388,16.777c0,0.663,0.537,1.2,1.2,1.2s1.2-0.537,1.2-1.2s-0.537-1.2-1.2-1.2
		C25.925,15.577,25.388,16.114,25.388,16.777z M25.327,18.364c-1.723,0.032-1.662,1.299-1.662,1.299v2.951h0.001
		c0,0.005-0.001,0.013-0.001,0.021c0,0.28,0.228,0.507,0.507,0.507c0.281,0,0.506-0.227,0.506-0.507
		c0-0.008-0.002-0.016-0.002-0.021h0.002v-2.732h0.317l-0.002,2.621h3.035v-2.636h0.327v2.747h0.002c0,0.002,0,0.002,0,0.003
		c0,0.281,0.228,0.508,0.507,0.508c0.277,0,0.505-0.227,0.505-0.508c0-0.001,0-0.001,0-0.003v-2.951
		c-0.109-1.317-1.638-1.299-1.638-1.299H25.327z"/>
</g>
<g>
</g>
<g>
</g>
<g>
</g>
<g>
</g>
<g>
</g>
<g>
</g>
<g>
</g>
<g>
</g>
<g>
</g>
<g>
</g>
<g>
</g>
<g>
</g>
<g>
</g>
<g>
</g>
<g>
</g>
</svg>
