<?xml version="1.0" encoding="iso-8859-1"?>
<!-- Generator: Adobe Illustrator 18.1.1, SVG Export Plug-In . SVG Version: 6.00 Build 0)  -->
<svg version="1.1" id="Capa_1" xmlns="http://www.w3.org/2000/svg" xmlns:xlink="http://www.w3.org/1999/xlink" x="0px" y="0px"
	 viewBox="0 0 22.457 22.457" style="enable-background:new 0 0 22.457 22.457;" xml:space="preserve">
<g>
	<g>
		<path style="fill:#010002;" d="M18.019,10.697l-0.079-0.291l-1.562,0.009c0.089,0.104,0.169,0.203,0.233,0.287
			c0.055,0.07,0.096,0.132,0.128,0.181v8.055c-0.756-0.667-1.914-1.354-3.437-1.354c-1.496,0-2.631,0.667-3.373,1.325v-8.03
			l0.305-0.464c-1.029-0.114-2.797-0.793-3.439-2.527C6.738,7.87,6.673,7.855,6.614,7.835v0.347l-0.76,0.78
			c0.829,0.146,1.494,0.561,1.983,0.994c0.301,0.269,0.539,0.542,0.688,0.746c0.054,0.07,0.097,0.132,0.129,0.181v8.055
			C7.9,18.273,6.74,17.583,5.218,17.583l0,0c-1.498,0-2.632,0.667-3.374,1.325v-8.03c0.1-0.155,0.289-0.417,0.562-0.703L1.988,8.832
			c-0.073,0.06-0.146,0.12-0.212,0.181c-0.87,0.842-1.208,1.685-1.208,1.685v1.134H0v9.46h18.795v-9.463h-0.776V10.697z
			 M3.365,19.37c0.501-0.295,1.115-0.511,1.854-0.513c0.735,0,1.357,0.215,1.872,0.513H3.365z M11.452,19.37
			c0.501-0.295,1.114-0.511,1.851-0.513c0.737,0,1.359,0.215,1.873,0.513H11.452z"/>
		<path style="fill:#010002;" d="M7.822,12.689c-0.76-0.762-1.613-1.147-2.536-1.147c-1.565,0-2.779,1.128-2.792,1.139l-0.103,0.097
			l0.51,0.534l0.102-0.094c0.104-0.098,1.047-0.946,2.255-0.946c0.732,0,1.42,0.315,2.042,0.938l0.099,0.098l0.522-0.52
			L7.822,12.689z"/>
		<path style="fill:#010002;" d="M11.108,13.188c0.041-0.038,1.003-0.942,2.256-0.942c0.733,0,1.42,0.314,2.041,0.936l0.1,0.1
			l0.521-0.522l-0.099-0.1c-0.76-0.762-1.614-1.146-2.535-1.146c-1.553,0-2.742,1.091-2.792,1.139l-0.104,0.097l0.51,0.537
			L11.108,13.188z"/>
		<path style="fill:#010002;" d="M2.495,15.489l-0.103,0.097l0.51,0.534l0.102-0.096c0.104-0.097,1.047-0.944,2.255-0.944
			c0.732,0,1.42,0.314,2.042,0.937l0.099,0.1l0.522-0.521l-0.1-0.1c-0.76-0.76-1.613-1.145-2.536-1.145
			C3.721,14.35,2.507,15.477,2.495,15.489z"/>
		<path style="fill:#010002;" d="M11.006,16.092l0.102-0.098c0.041-0.038,1.003-0.942,2.256-0.942c0.733,0,1.42,0.314,2.041,0.936
			l0.1,0.1l0.521-0.522l-0.099-0.1c-0.76-0.761-1.614-1.146-2.535-1.146c-1.553,0-2.742,1.092-2.792,1.138l-0.104,0.097
			L11.006,16.092z"/>
		<path style="fill:#010002;" d="M19.39,3.717c-0.102,0-0.201,0.008-0.301,0.017c-0.609-1.504-2.081-2.568-3.806-2.568
			c-1.48,0-2.776,0.789-3.497,1.967C11.441,3.022,11.075,2.96,10.69,2.96c-1.978,0-3.581,1.604-3.581,3.581
			c0,3.135,3.105,3.496,3.404,3.496c0.298,0,8.428,0,9.479,0c1.202,0,2.465-1.792,2.465-3.252
			C22.457,5.092,21.084,3.717,19.39,3.717z"/>
		<path style="fill:#010002;" d="M5.868,8.155L4.662,7.792l0.084-0.27c0.151-0.489,0.292-0.88,0.43-1.198
			c0.439-1.01,1.058-1.459,1.49-1.659C6.59,4.658,6.515,4.654,6.44,4.654c-1.732,0-2.767,2.105-2.957,2.527l-0.1,0.226l-1.09-0.328
			l0.99,3.193L5.868,8.155z"/>
	</g>
</g>
<g>
</g>
<g>
</g>
<g>
</g>
<g>
</g>
<g>
</g>
<g>
</g>
<g>
</g>
<g>
</g>
<g>
</g>
<g>
</g>
<g>
</g>
<g>
</g>
<g>
</g>
<g>
</g>
<g>
</g>
</svg>
