<?xml version="1.0" encoding="iso-8859-1"?>
<!-- Generator: Adobe Illustrator 18.1.1, SVG Export Plug-In . SVG Version: 6.00 Build 0)  -->
<svg version="1.1" id="Capa_1" xmlns="http://www.w3.org/2000/svg" xmlns:xlink="http://www.w3.org/1999/xlink" x="0px" y="0px"
	 viewBox="0 0 27.162 27.162" style="enable-background:new 0 0 27.162 27.162;" xml:space="preserve">
<g>
	<g>
		<path style="fill:#010002;" d="M12.179,24.221v-3.235V18.3H4.814h-3.59v2.737v3.184h6.919
			C8.143,24.221,12.179,24.221,12.179,24.221z M1.572,21.128v-2.377h3.015h7.243v2.104h0.002v2.913H8.371H1.574v-2.64H1.572z"/>
		<polygon style="fill:#010002;" points="0.205,27.162 13.109,27.162 13.204,26.844 0.085,26.844 		"/>
		<path style="fill:#010002;" d="M0.968,24.722l-0.883,1.956h13.169l0.032-0.105l-0.693-1.851H0.968z M5.628,26.596l0.209-0.628
			h1.284l0.245,0.628H5.628z M0.963,25.864l0.433-0.916h10.58l0.372,0.916H0.963z"/>
		<path style="fill:#010002;" d="M15.016,21.037v3.184h6.919h4.036v-3.235V18.3h-7.366h-3.589
			C15.016,18.3,15.016,21.037,15.016,21.037z M15.363,18.751h3.016h7.243v2.104l0,0v2.913h-3.461h-6.797v-2.64h-0.001V18.751z"/>
		<polygon style="fill:#010002;" points="13.995,27.162 26.9,27.162 26.994,26.844 13.876,26.844 		"/>
		<path style="fill:#010002;" d="M26.385,24.722H14.759l-0.881,1.956h13.166l0.033-0.105L26.385,24.722z M19.421,26.596l0.207-0.628
			h1.284l0.247,0.628H19.421z M14.754,25.864l0.432-0.916h10.583l0.371,0.916H14.754z"/>
		<circle style="fill:#010002;" cx="4.838" cy="17.065" r="0.339"/>
		<circle style="fill:#010002;" cx="5.98" cy="15.297" r="0.701"/>
		<circle style="fill:#010002;" cx="7.208" cy="12.881" r="1.375"/>
		<circle style="fill:#010002;" cx="21.391" cy="17.237" r="0.339"/>
		<circle style="fill:#010002;" cx="20.248" cy="15.469" r="0.702"/>
		<circle style="fill:#010002;" cx="18.873" cy="12.736" r="1.375"/>
		<path style="fill:#010002;" d="M15.33,8.231h1.526c-0.209-0.122-0.465-0.211-0.768-0.211C15.787,8.022,15.536,8.109,15.33,8.231z"
			/>
		<path style="fill:#010002;" d="M13.85,4.372c-0.253-0.223-0.607-0.434-1.076-0.434c-0.454,0-0.793,0.198-1.033,0.411
			c-0.179,0.154-0.295,0.318-0.349,0.399V8.04c0.303-0.27,0.769-0.541,1.382-0.541c0.625,0,1.101,0.279,1.411,0.555V4.751
			c-0.014-0.019-0.032-0.046-0.056-0.073C14.07,4.594,13.972,4.481,13.85,4.372z M13.697,6.884
			c-0.928-0.929-1.892-0.035-1.933,0.002l-0.135-0.143c0.011-0.012,1.144-1.062,2.207,0.001L13.697,6.884z M13.697,6.217
			c-0.928-0.929-1.892-0.035-1.933,0.002l-0.135-0.143c0.011-0.012,1.144-1.062,2.207,0.001L13.697,6.217z M13.697,5.63
			c-0.928-0.93-1.892-0.037-1.933,0.002L11.63,5.49c0.011-0.013,1.144-1.063,2.207,0L13.697,5.63z"/>
		<path style="fill:#010002;" d="M12.016,8.231h1.527c-0.213-0.122-0.466-0.211-0.77-0.211C12.472,8.022,12.22,8.109,12.016,8.231z"
			/>
		<path style="fill:#010002;" d="M17.165,4.372c-0.251-0.223-0.607-0.434-1.076-0.434c-0.453,0-0.793,0.198-1.036,0.411
			c-0.176,0.154-0.292,0.318-0.347,0.399V8.04c0.304-0.27,0.77-0.543,1.383-0.541c0.624,0,1.1,0.279,1.41,0.555V4.751
			c-0.013-0.019-0.033-0.046-0.053-0.073C17.384,4.594,17.289,4.481,17.165,4.372z M17.033,6.869
			c-0.925-0.925-1.891-0.034-1.932,0.004l-0.135-0.144c0.012-0.011,1.144-1.059,2.206,0.002L17.033,6.869z M17.033,6.204
			c-0.925-0.927-1.891-0.038-1.932,0.002l-0.135-0.144c0.012-0.011,1.144-1.061,2.206,0.002L17.033,6.204z M17.033,5.615
			c-0.925-0.925-1.891-0.035-1.932,0.002l-0.135-0.143c0.012-0.01,1.144-1.062,2.206,0.002L17.033,5.615z"/>
		<path style="fill:#010002;" d="M9.081,10.898h11.907c1.678-0.45,2.931-2.201,2.931-3.995c0-2.083-1.688-3.77-3.771-3.77
			c-0.124,0-0.247,0.008-0.368,0.019C19.03,1.305,17.222,0,15.106,0c-1.823,0-3.413,0.967-4.3,2.415
			C10.382,2.276,9.93,2.203,9.459,2.203c-2.431,0-4.401,1.969-4.401,4.4C5.058,10.457,9.081,10.898,9.081,10.898z M10.636,5.14
			h0.231V4.674L10.9,4.551c0.01-0.017,0.158-0.288,0.463-0.566c0.305-0.279,0.779-0.568,1.41-0.568c0.634,0,1.113,0.289,1.422,0.566
			c0.096,0.086,0.179,0.171,0.246,0.249c0.063-0.076,0.145-0.161,0.237-0.247c0.303-0.279,0.778-0.568,1.41-0.568
			c0.631,0,1.113,0.289,1.422,0.566c0.31,0.276,0.466,0.548,0.475,0.563l0.036,0.128V5.14h0.319v3.878h-7.705L10.636,5.14
			L10.636,5.14z"/>
	</g>
</g>
<g>
</g>
<g>
</g>
<g>
</g>
<g>
</g>
<g>
</g>
<g>
</g>
<g>
</g>
<g>
</g>
<g>
</g>
<g>
</g>
<g>
</g>
<g>
</g>
<g>
</g>
<g>
</g>
<g>
</g>
</svg>
