<?xml version="1.0" encoding="iso-8859-1"?>
<!-- Generator: Adobe Illustrator 18.1.1, SVG Export Plug-In . SVG Version: 6.00 Build 0)  -->
<svg version="1.1" id="Capa_1" xmlns="http://www.w3.org/2000/svg" xmlns:xlink="http://www.w3.org/1999/xlink" x="0px" y="0px"
	 viewBox="0 0 27.361 27.361" style="enable-background:new 0 0 27.361 27.361;" xml:space="preserve">
<g>
	<g>
		<path style="fill:#010002;" d="M13.681,18.245c2.754,0,4.985-2.229,4.985-4.982c0-2.755-2.231-4.985-4.985-4.985
			c-2.753,0-4.984,2.23-4.984,4.985C8.695,16.015,10.928,18.245,13.681,18.245z M12.386,10.61c0-0.129,0.091-0.245,0.229-0.295
			c0.138-0.047,0.297-0.021,0.4,0.069l3.072,2.651c0.145,0.125,0.145,0.326,0,0.45l-3.072,2.651c-0.104,0.091-0.264,0.114-0.4,0.067
			c-0.136-0.049-0.227-0.166-0.229-0.294C12.385,15.909,12.385,10.61,12.386,10.61z"/>
		<path style="fill:#010002;" d="M21.835,0H5.528C4.5,0,3.672,0.832,3.672,1.857v23.648c0,1.025,0.828,1.856,1.856,1.856h16.307
			c1.025,0,1.855-0.831,1.855-1.856V1.857C23.691,0.832,22.86,0,21.835,0z M13.681,26.67c-0.608,0-1.104-0.495-1.104-1.104
			s0.494-1.104,1.104-1.104c0.611,0,1.104,0.494,1.104,1.104C14.785,26.175,14.292,26.67,13.681,26.67z M21.814,23.495H5.551V2.234
			h16.264L21.814,23.495L21.814,23.495z"/>
	</g>
</g>
<g>
</g>
<g>
</g>
<g>
</g>
<g>
</g>
<g>
</g>
<g>
</g>
<g>
</g>
<g>
</g>
<g>
</g>
<g>
</g>
<g>
</g>
<g>
</g>
<g>
</g>
<g>
</g>
<g>
</g>
</svg>
