<?xml version="1.0" encoding="iso-8859-1"?>
<!-- Generator: Adobe Illustrator 18.1.1, SVG Export Plug-In . SVG Version: 6.00 Build 0)  -->
<svg version="1.1" id="Capa_1" xmlns="http://www.w3.org/2000/svg" xmlns:xlink="http://www.w3.org/1999/xlink" x="0px" y="0px"
	 viewBox="0 0 495.254 495.254" style="enable-background:new 0 0 495.254 495.254;" xml:space="preserve">
<g>
	<g>
		<path style="fill:#010002;" d="M96.019,255.032c23.037,2.138,81.132-5.638,92.26-16.627l0.002,0.002
			c0.009-0.008,0.016-0.02,0.024-0.026c0.006-0.007,0.017-0.014,0.022-0.02l-0.001-0.002c10.99-11.131,18.768-69.225,16.627-92.261
			c-0.5-5.314-1.569-9.311-3.381-11.123c-1.104-1.104-35.879-25.256-35.879-25.256l-1.928,7.932l-19.031,77.163L67.57,213.845
			l-7.929,1.928c0,0,24.15,34.775,25.253,35.88C86.708,253.464,90.707,254.531,96.019,255.032z"/>
		<polygon style="fill:#010002;" points="173.333,56.854 55.329,105.389 6.793,223.393 138.213,188.276 		"/>
		<polygon style="fill:#010002;" points="0,307.444 6.793,323.884 13.584,307.444 6.793,224.593 		"/>
		<path style="fill:#010002;" d="M220.373,145.315c0.075,0.798,0.138,1.63,0.191,2.493h219.84l-0.115,180.484H121.564l0.035-58.519
			c-5.559,0.396-10.846,0.612-15.578,0.612c-3.771,0-7.167-0.138-10.105-0.402v81.092h370.259V124.983H212.46
			c0.146,0.134,0.26,0.247,0.37,0.356C217.096,129.607,219.493,135.956,220.373,145.315z"/>
		<polygon style="fill:#010002;" points="72.07,438.4 490.967,438.4 494.467,428.297 68.262,428.297 		"/>
		<path style="fill:#010002;" d="M465.733,359.132H95.556l-28.082,62.326h427.78L465.733,359.132z M258.962,415.979l3.962-14.809
			h28.393l3.96,14.809H258.962z M95.76,396.746l11.177-24.807H451.52l8.37,24.807H95.76z"/>
	</g>
</g>
<g>
</g>
<g>
</g>
<g>
</g>
<g>
</g>
<g>
</g>
<g>
</g>
<g>
</g>
<g>
</g>
<g>
</g>
<g>
</g>
<g>
</g>
<g>
</g>
<g>
</g>
<g>
</g>
<g>
</g>
</svg>
