<?xml version="1.0" encoding="iso-8859-1"?>
<!-- Generator: Adobe Illustrator 18.1.1, SVG Export Plug-In . SVG Version: 6.00 Build 0)  -->
<svg version="1.1" id="Capa_1" xmlns="http://www.w3.org/2000/svg" xmlns:xlink="http://www.w3.org/1999/xlink" x="0px" y="0px"
	 viewBox="0 0 25.871 25.871" style="enable-background:new 0 0 25.871 25.871;" xml:space="preserve">
<g>
	<g>
		<path style="fill:#010002;" d="M22.521,0c-5.334,1.076-9.402,5.67-9.402,5.67l-0.224,2.31l-0.93-0.979
			c-4.267,4.842-4.711,11.917-4.711,11.917c0.064,0.313,0.172,0.559,0.305,0.757l9.966-13.029L8.526,20.335
			c0.485,0.121,0.917,0.036,0.917,0.036C19.321,15.67,21.261,9.187,21.261,9.187l-2.03-0.673l2.758-0.42
			c0.073-0.23,0.142-0.458,0.203-0.679C23.471,2.883,22.521,0,22.521,0z"/>
		<path style="fill:#010002;" d="M7.56,19.675c-0.97,1.389-3.43,4.533-4.55,6.196l1.363-0.695c0,0,2.321-2.71,4.15-4.841
			C8.188,20.251,7.824,20.061,7.56,19.675z"/>
	</g>
</g>
<g>
</g>
<g>
</g>
<g>
</g>
<g>
</g>
<g>
</g>
<g>
</g>
<g>
</g>
<g>
</g>
<g>
</g>
<g>
</g>
<g>
</g>
<g>
</g>
<g>
</g>
<g>
</g>
<g>
</g>
</svg>
