<?xml version="1.0" encoding="iso-8859-1"?>
<!-- Generator: Adobe Illustrator 18.1.1, SVG Export Plug-In . SVG Version: 6.00 Build 0)  -->
<svg version="1.1" id="Capa_1" xmlns="http://www.w3.org/2000/svg" xmlns:xlink="http://www.w3.org/1999/xlink" x="0px" y="0px"
	 viewBox="0 0 29.774 29.774" style="enable-background:new 0 0 29.774 29.774;" xml:space="preserve">
<g>
	<path style="fill:#010002;" d="M4.512,14.514c0.045,0,0.09-0.01,0.132-0.028l6.129-2.509c0.137-0.057,0.225-0.19,0.22-0.336
		c-0.004-0.147-0.095-0.275-0.239-0.323L4.622,9.236C4.517,9.2,4.398,9.219,4.306,9.284C4.214,9.35,4.159,9.457,4.159,9.571v4.589
		c0,0.117,0.056,0.23,0.156,0.293C4.374,14.493,4.442,14.514,4.512,14.514z"/>
	<path style="fill:#010002;" d="M26.813,16.865c-1.245,0-2.311,0.771-2.745,1.854h-6.396c-0.438-1.086-1.5-1.854-2.739-1.854
		c-1.244,0-2.31,0.771-2.744,1.854h-6.48c-0.356-0.896-1.144-1.569-2.104-1.781V8.974C3.93,8.79,4.16,8.455,4.16,8.055
		c0-0.591-0.479-1.07-1.071-1.07c-0.591,0-1.07,0.479-1.07,1.07c0,0.388,0.217,0.712,0.526,0.9v7.949
		C1.109,17.111,0,18.333,0,19.827c0,1.637,1.327,2.963,2.963,2.963c1.245,0,2.312-0.771,2.745-1.854h6.479
		c0.438,1.088,1.5,1.854,2.744,1.854c1.239,0,2.306-0.771,2.739-1.854h6.396c0.438,1.088,1.5,1.854,2.745,1.854
		c1.637,0,2.963-1.326,2.963-2.963C29.776,18.191,28.449,16.865,26.813,16.865z"/>
</g>
<g>
</g>
<g>
</g>
<g>
</g>
<g>
</g>
<g>
</g>
<g>
</g>
<g>
</g>
<g>
</g>
<g>
</g>
<g>
</g>
<g>
</g>
<g>
</g>
<g>
</g>
<g>
</g>
<g>
</g>
</svg>
