<?xml version="1.0" encoding="iso-8859-1"?>
<!-- Generator: Adobe Illustrator 18.1.1, SVG Export Plug-In . SVG Version: 6.00 Build 0)  -->
<svg version="1.1" id="Capa_1" xmlns="http://www.w3.org/2000/svg" xmlns:xlink="http://www.w3.org/1999/xlink" x="0px" y="0px"
	 viewBox="0 0 212.889 212.889" style="enable-background:new 0 0 212.889 212.889;" xml:space="preserve">
<g>
	<g>
		<g>
			<path style="fill:#010002;" d="M38.966,103.345c2.2,1.5,4.9,2.4,7.8,2.4c5.4,0,9.9-3,12.3-7.4l35.6,9.9v0.1
				c0,7.8,6.3,14.1,14.1,14.1s14.1-6.3,14.1-14.1c0-1.3-0.2-2.5-0.6-3.7l49.2-49.2c2.3,1.7,5.2,2.7,8.3,2.7
				c7.8,0,14.1-6.3,14.1-14.1s-6.3-14.1-14.1-14.1s-14.1,6.3-14.1,14.1c0,2.5,0.7,4.8,1.9,6.9l-48.2,48.1c-2.6-2.9-6.3-4.9-10.6-4.9
				c-5.6,0-10.5,3.4-12.7,8.2l-35.3-9.8c0-0.3,0.1-0.6,0.1-1c0-7.8-6.3-14.1-14.1-14.1s-14.1,6.3-14.1,14.1c0,2.7,0.8,5.2,2.2,7.4
				l-34.1,38.2c-1.1,1.2-1,3.1,0.2,4.2c0.6,0.5,1.3,0.8,2,0.8c0.8,0,1.6-0.3,2.2-1L38.966,103.345z M179.666,36.045
				c4.5,0,8.1,3.6,8.1,8.1s-3.6,8.1-8.1,8.1c-4.4,0-8.1-3.6-8.1-8.1S175.266,36.045,179.666,36.045z M108.766,100.245
				c4.5,0,8.1,3.6,8.1,8.1c0,4.5-3.6,8.1-8.1,8.1s-8.1-3.6-8.1-8.1C100.666,103.945,104.266,100.245,108.766,100.245z
				 M46.766,83.545c4.5,0,8.1,3.6,8.1,8.1s-3.6,8.1-8.1,8.1s-8.1-3.6-8.1-8.1C38.666,87.145,42.266,83.545,46.766,83.545z"/>
			<path style="fill:#010002;" d="M211.266,126.245l-36.2-17c0.1-0.6,0.2-1.1,0.2-1.7c0-7.8-6.3-14.1-14.1-14.1s-14.1,6.3-14.1,14.1
				c0,2.7,0.8,5.3,2.2,7.4l-36.8,41.7c-2.1-1.2-4.5-2-7-2c-3.4,0-6.5,1.2-8.9,3.3l-21.7-16.6c0.7-1.6,1-3.4,1-5.3
				c0-7.8-6.3-14.1-14.1-14.1c-7.8,0-14.1,6.3-14.1,14.1c0,1.2,0.2,2.4,0.5,3.6l-42.6,26.6c-1.4,0.9-1.8,2.7-0.9,4.1
				c0.6,0.9,1.5,1.4,2.5,1.4c0.5,0,1.1-0.1,1.6-0.4l42.2-26.3c2.6,3.1,6.4,5.2,10.8,5.2c3.7,0,7.1-1.5,9.6-3.9l21.4,16.4
				c-0.9,1.9-1.5,3.9-1.5,6.1c0,7.8,6.3,14.1,14.1,14.1s14.1-6.3,14.1-14.1c0-3-1-5.8-2.6-8.1l36.4-41.4c2.2,1.5,4.9,2.3,7.7,2.3
				c5.1,0,9.5-2.7,11.9-6.7l35.6,16.7c1.5,0.7,3.3,0.1,4-1.4C213.366,128.645,212.766,126.945,211.266,126.245z M69.766,137.445
				c-0.4,2.1-1.5,3.9-3.2,5.1c-1.3,1-3,1.6-4.8,1.6c-2.2,0-4.3-0.9-5.7-2.4c-2.6-2.7-2.4-5.7-2.4-5.7c0-4.5,3.6-8.1,8.1-8.1
				s8.1,3.6,8.1,8.1C69.966,136.545,69.866,137.045,69.766,137.445z M105.466,176.844c-4.5,0-8.1-3.6-8.1-8.1c0-0.8,0.2-1.6,0.4-2.4
				c0.6-2,2-3.6,3.8-4.6c1.2-0.7,2.5-1.1,3.9-1.1c1.1,0,2.1,0.2,3,0.6c1.9,0.8,3.5,2.2,4.3,4.1c0.5,1,0.8,2.2,0.8,3.4
				C113.566,173.245,109.966,176.844,105.466,176.844z M167.666,112.344c-1.5,2-3.8,3.3-6.5,3.3c-1.3,0-2.6-0.4-3.7-0.9
				c-1.9-0.9-3.3-2.6-4-4.6c-0.3-0.8-0.5-1.7-0.5-2.6c0-4.5,3.6-8.1,8.1-8.1c4.1,0,7.4,3.1,8,7c0.1,0.4,0.1,0.7,0.1,1.1
				C169.266,109.344,168.666,111.045,167.666,112.344z"/>
		</g>
		<path style="fill:#010002;" d="M109.966,85.545c-0.3,0.4-0.8,0.6-1.3,0.6s-1-0.2-1.4-0.6l-13.3-15.4c-0.4-0.5-0.6-1.3-0.3-1.9
			c0.3-0.6,0.9-1,1.6-1h8.2v-13c0-1,0.8-1.8,1.8-1.8h6.6c1,0,1.8,0.8,1.8,1.8v12.9h8.2l0,0c1,0,1.8,0.8,1.8,1.8c0,0.5-0.2,1-0.6,1.3
			L109.966,85.545z"/>
	</g>
</g>
<g>
</g>
<g>
</g>
<g>
</g>
<g>
</g>
<g>
</g>
<g>
</g>
<g>
</g>
<g>
</g>
<g>
</g>
<g>
</g>
<g>
</g>
<g>
</g>
<g>
</g>
<g>
</g>
<g>
</g>
</svg>
