<?xml version="1.0" encoding="iso-8859-1"?>
<!-- Generator: Adobe Illustrator 18.1.1, SVG Export Plug-In . SVG Version: 6.00 Build 0)  -->
<svg version="1.1" id="Capa_1" xmlns="http://www.w3.org/2000/svg" xmlns:xlink="http://www.w3.org/1999/xlink" x="0px" y="0px"
	 viewBox="0 0 29.774 29.774" style="enable-background:new 0 0 29.774 29.774;" xml:space="preserve">
<g>
	<g>
		<circle style="fill:#010002;" cx="14.887" cy="2.629" r="2.629"/>
		<path style="fill:#010002;" d="M24.557,1.918c-0.432-0.434-1.135-0.434-1.571,0.003c0,0-0.004,0.003-0.008,0.006L18.83,6.108
			h-7.885L6.796,1.927C6.792,1.924,6.789,1.921,6.789,1.921c-0.437-0.437-1.14-0.437-1.572-0.003c-0.434,0.434-0.434,1.137,0,1.568
			C5.221,3.49,5.223,3.491,5.224,3.494v0.002l6.417,6.589l-0.008,18.193c0,0.827,0.669,1.496,1.5,1.496
			c0.823,0,1.496-0.669,1.496-1.496l-0.002-12.16h0.127h0.266h0.128l-0.002,12.159c0,0.827,0.672,1.496,1.495,1.496
			c0.831,0,1.5-0.669,1.5-1.496l-0.008-18.192l6.417-6.589V3.494c0.001-0.003,0.003-0.004,0.007-0.008
			C24.991,3.055,24.991,2.352,24.557,1.918z"/>
	</g>
</g>
<g>
</g>
<g>
</g>
<g>
</g>
<g>
</g>
<g>
</g>
<g>
</g>
<g>
</g>
<g>
</g>
<g>
</g>
<g>
</g>
<g>
</g>
<g>
</g>
<g>
</g>
<g>
</g>
<g>
</g>
</svg>
