<?xml version="1.0" encoding="iso-8859-1"?>
<!-- Generator: Adobe Illustrator 18.1.1, SVG Export Plug-In . SVG Version: 6.00 Build 0)  -->
<svg version="1.1" id="Capa_1" xmlns="http://www.w3.org/2000/svg" xmlns:xlink="http://www.w3.org/1999/xlink" x="0px" y="0px"
	 viewBox="0 0 28.309 28.309" style="enable-background:new 0 0 28.309 28.309;" xml:space="preserve">
<g>
	<g>
		<path style="fill:#010002;" d="M18.428,14.905l6.964-12.046l-4.958-2.7l-6.631,11.467L7.958,0L2.916,2.541l6.035,12.004
			c-1.886,1.39-3.117,3.619-3.117,6.137c0,4.205,3.422,7.627,7.628,7.627c4.205,0,7.627-3.422,7.627-7.627
			C21.09,18.372,20.055,16.304,18.428,14.905z M4.512,3.068l2.919-1.471l5.661,11.261l-0.128,0.221c-1.076,0.07-2.091,0.361-3,0.833
			L4.512,3.068z M13.462,25.336c-2.568,0-4.656-2.089-4.656-4.655c0-2.568,2.088-4.656,4.656-4.656c2.567,0,4.655,2.088,4.655,4.656
			C18.118,23.248,16.029,25.336,13.462,25.336z"/>
		<path style="fill:#010002;" d="M12.464,18.078c-0.431,0.337-0.83,0.564-1.198,0.685v1.278c0.699-0.23,1.305-0.586,1.82-1.068
			v5.308h1.408v-7.377h-1.143C13.19,17.352,12.895,17.743,12.464,18.078z"/>
	</g>
</g>
<g>
</g>
<g>
</g>
<g>
</g>
<g>
</g>
<g>
</g>
<g>
</g>
<g>
</g>
<g>
</g>
<g>
</g>
<g>
</g>
<g>
</g>
<g>
</g>
<g>
</g>
<g>
</g>
<g>
</g>
</svg>
