<?xml version="1.0" encoding="iso-8859-1"?>
<!-- Generator: Adobe Illustrator 18.1.1, SVG Export Plug-In . SVG Version: 6.00 Build 0)  -->
<svg version="1.1" id="Capa_1" xmlns="http://www.w3.org/2000/svg" xmlns:xlink="http://www.w3.org/1999/xlink" x="0px" y="0px"
	 viewBox="0 0 27.32 27.32" style="enable-background:new 0 0 27.32 27.32;" xml:space="preserve">
<g>
	<g>
		<path style="fill:#010002;" d="M16.729,15l0.976-2.665V2.541V0h-2.61h-2.869H9.615v2.541v9.795L10.591,15
			c-2.067,1.099-3.474,3.273-3.474,5.778c0,3.612,2.931,6.542,6.543,6.542c3.613,0,6.543-2.93,6.543-6.542
			C20.203,18.273,18.796,16.099,16.729,15z M12.226,2.541h2.869v9.795h-2.869V2.541z M16.673,25.412l-3.013-1.583l-3.012,1.583
			l0.575-3.354l-2.438-2.377l3.368-0.49l1.506-3.051l1.506,3.051l3.368,0.49l-2.437,2.377L16.673,25.412z"/>
	</g>
</g>
<g>
</g>
<g>
</g>
<g>
</g>
<g>
</g>
<g>
</g>
<g>
</g>
<g>
</g>
<g>
</g>
<g>
</g>
<g>
</g>
<g>
</g>
<g>
</g>
<g>
</g>
<g>
</g>
<g>
</g>
</svg>
