<?xml version="1.0" encoding="iso-8859-1"?>
<!-- Generator: Adobe Illustrator 18.1.1, SVG Export Plug-In . SVG Version: 6.00 Build 0)  -->
<svg version="1.1" id="Capa_1" xmlns="http://www.w3.org/2000/svg" xmlns:xlink="http://www.w3.org/1999/xlink" x="0px" y="0px"
	 viewBox="0 0 23.796 23.796" style="enable-background:new 0 0 23.796 23.796;" xml:space="preserve">
<g>
	<g>
		<path style="fill:#010002;" d="M17.023,17.256v-0.572H9.317v0.572H9.096c-2.575-1.103-4.38-3.658-4.38-6.638
			c0-3.798,2.94-6.907,6.668-7.188v7.188H9.317v0.572h0.479c-0.057,0.124-0.091,0.26-0.091,0.404v1.666
			c0,0.537,0.437,0.977,0.975,0.977c0.539,0,0.975-0.438,0.975-0.977v-1.666c0-0.144-0.033-0.28-0.089-0.404h0.729
			c-0.061,0.129-0.1,0.271-0.1,0.422v2.808c0,0.537,0.437,0.973,0.976,0.973s0.976-0.436,0.976-0.973v-2.808
			c0-0.151-0.038-0.293-0.1-0.422h0.729c-0.057,0.124-0.091,0.26-0.091,0.404v1.666c0,0.537,0.437,0.977,0.976,0.977
			c0.538,0,0.975-0.438,0.975-0.977v-1.666c0-0.144-0.034-0.28-0.091-0.404h0.479v-0.572h-2.067v-9.04h0.702V0h-4.98v1.578h0.705
			V1.83c-4.612,0.287-8.267,4.105-8.267,8.788c0,3.718,2.302,6.892,5.558,8.187v1.805h8.99v-3.354H17.023z"/>
		<path style="fill:#010002;" d="M5.659,21.275v2.521H20.68v-2.521H5.659z M20.086,23.202H6.253v-1.333h13.833V23.202z"/>
	</g>
</g>
<g>
</g>
<g>
</g>
<g>
</g>
<g>
</g>
<g>
</g>
<g>
</g>
<g>
</g>
<g>
</g>
<g>
</g>
<g>
</g>
<g>
</g>
<g>
</g>
<g>
</g>
<g>
</g>
<g>
</g>
</svg>
