<?xml version="1.0" encoding="iso-8859-1"?>
<!-- Generator: Adobe Illustrator 18.1.1, SVG Export Plug-In . SVG Version: 6.00 Build 0)  -->
<svg version="1.1" id="Capa_1" xmlns="http://www.w3.org/2000/svg" xmlns:xlink="http://www.w3.org/1999/xlink" x="0px" y="0px"
	 viewBox="0 0 29.238 29.238" style="enable-background:new 0 0 29.238 29.238;" xml:space="preserve">
<g>
	<path style="fill:#010002;" d="M8.28,22.095h3.69v-3.202c0.194,0.077,0.393,0.145,0.596,0.199v3.003h3.861v-2.583
		c0.208-0.014,0.406-0.037,0.594-0.068v2.651h4.112v-3.861h-2.005c0.109-0.187,0.179-0.384,0.218-0.596h1.787v-3.519v-0.001h-3.711
		c-0.288-0.267-0.617-0.555-0.995-0.861v-2.109h0.594v2.377h4.112v-2.377h0.594v2.377h3.418v0.594h-3.418v3.519h3.418v0.596h-3.418
		v3.861h3.418v0.594h-3.418v2.131h-0.594v-2.131h-4.112v2.131h-0.594v-2.131h-3.861v2.131H11.97v-2.131H8.28v2.131H7.685v-2.131
		H3.748v-0.594h3.937v-3.861H3.748v-0.596h3.937v-3.519H3.748v-0.594h3.937v-2.377h0.594v2.377h2.174
		c-0.152,0.201-0.282,0.398-0.399,0.594H8.279v3.519h1.882c0.063,0.074,0.115,0.153,0.186,0.223
		c0.138,0.138,0.284,0.258,0.433,0.373h-2.5V22.095z M29.238,28.682l-2.088,0.006H2.09H0V2.535l4.416-0.004V4.96
		c0,0.654,0.534,1.187,1.189,1.187h1.388c0.655,0,1.188-0.534,1.188-1.187V2.526h1.732V4.96c0,0.654,0.534,1.187,1.19,1.187h1.387
		c0.655,0,1.189-0.534,1.189-1.187V2.522l1.684-0.004v2.441c0,0.654,0.534,1.187,1.188,1.187h1.388c0.655,0,1.188-0.534,1.188-1.187
		V2.517l1.585-0.002v2.444c0,0.654,0.533,1.187,1.188,1.187h1.387c0.657,0,1.189-0.534,1.189-1.187V2.511l0.604-0.002l4.128-0.004
		L29.238,28.682z M27.15,9.898H11.531H10.49h-8.4v16.709h25.06V9.898z M5.605,5.304h1.387c0.164,0,0.297-0.133,0.297-0.297v-4.16
		c0-0.165-0.133-0.297-0.297-0.297H5.605c-0.165,0-0.296,0.132-0.296,0.297v4.16C5.309,5.171,5.44,5.304,5.605,5.304z M11.103,5.304
		h1.387c0.164,0,0.297-0.133,0.297-0.297v-4.16c-0.001-0.165-0.134-0.297-0.298-0.297h-1.387c-0.164,0-0.299,0.132-0.299,0.297v4.16
		C10.804,5.171,10.938,5.304,11.103,5.304z M16.551,5.304h1.388c0.163,0,0.296-0.133,0.296-0.297v-4.16
		c-0.001-0.165-0.133-0.297-0.297-0.297H16.55c-0.164,0-0.297,0.132-0.297,0.297v4.16C16.254,5.171,16.387,5.304,16.551,5.304z
		 M21.899,5.304h1.387c0.165,0,0.299-0.133,0.299-0.297v-4.16c0-0.165-0.134-0.297-0.299-0.297h-1.387
		c-0.164,0-0.297,0.132-0.297,0.297v4.16C21.603,5.171,21.735,5.304,21.899,5.304z"/>
</g>
<g>
</g>
<g>
</g>
<g>
</g>
<g>
</g>
<g>
</g>
<g>
</g>
<g>
</g>
<g>
</g>
<g>
</g>
<g>
</g>
<g>
</g>
<g>
</g>
<g>
</g>
<g>
</g>
<g>
</g>
</svg>
