<?xml version="1.0" encoding="iso-8859-1"?>
<!-- Generator: Adobe Illustrator 18.1.1, SVG Export Plug-In . SVG Version: 6.00 Build 0)  -->
<svg version="1.1" id="Capa_1" xmlns="http://www.w3.org/2000/svg" xmlns:xlink="http://www.w3.org/1999/xlink" x="0px" y="0px"
	 viewBox="0 0 27.199 27.199" style="enable-background:new 0 0 27.199 27.199;" xml:space="preserve">
<g>
	<g>
		<path style="fill:#010002;" d="M26.963,2.577L25.96,3.088c0.074,0.146,0.162,0.484,0.08,0.585
			c-0.003,0.002-0.354,0.384-2.348-0.232c-1.522-0.472-2.773-0.388-3.718,0.247c-0.667,0.448-1.041,1.083-1.252,1.623L18.284,4.88
			l-0.06-0.05c-3.205-2.362-6.151-3.613-8.965-0.799L6.463,6.826L5.906,7.383l-3.53,3.53c-3.168,3.171-3.168,8.326,0,11.495
			c3.169,3.168,8.325,3.168,11.494-0.002l3.556-3.553l0.526-0.529l2.403-2.401c2.878-2.879,1.978-6.283-0.509-9.507l-0.023-0.031
			l-0.196-0.19c0.086-0.386,0.329-1.137,0.975-1.572c0.648-0.435,1.576-0.471,2.757-0.105c1.863,0.577,2.989,0.539,3.542-0.121
			C27.5,3.684,27.02,2.688,26.963,2.577z M13.072,21.611c-2.729,2.729-7.17,2.729-9.9,0s-2.729-7.171,0-9.9L6.12,8.763
			c1.225,2.499,2.722,4.642,4.455,6.373c2.028,2.028,3.992,3.104,5.316,3.656L13.072,21.611z M19.558,15.127l-2.437,2.438
			c-2.05-0.73-3.935-1.946-5.608-3.619v-0.002c-2.248-2.246-3.6-4.792-4.271-6.302l2.814-2.813c2.414-2.414,4.71-1.124,7.47,0.888
			l1.453,1.419C21.095,9.909,22.028,12.656,19.558,15.127z"/>
		<path style="fill:#010002;" d="M14.836,7.302l-2.533,2.531c-0.731,0.731-0.731,1.919-0.001,2.65
			c0.729,0.729,1.918,0.727,2.647-0.002l2.533-2.533c0.729-0.731,0.73-1.919,0-2.646C16.753,6.571,15.565,6.571,14.836,7.302z
			 M16.686,9.151l-2.533,2.533c-0.291,0.29-0.764,0.292-1.054,0.002c-0.291-0.293-0.291-0.766,0-1.057l2.532-2.533
			c0.292-0.29,0.765-0.29,1.055,0C16.977,8.388,16.976,8.86,16.686,9.151z"/>
	</g>
</g>
<g>
</g>
<g>
</g>
<g>
</g>
<g>
</g>
<g>
</g>
<g>
</g>
<g>
</g>
<g>
</g>
<g>
</g>
<g>
</g>
<g>
</g>
<g>
</g>
<g>
</g>
<g>
</g>
<g>
</g>
</svg>
