<?xml version="1.0" encoding="iso-8859-1"?>
<!-- Generator: Adobe Illustrator 18.1.1, SVG Export Plug-In . SVG Version: 6.00 Build 0)  -->
<svg version="1.1" id="Capa_1" xmlns="http://www.w3.org/2000/svg" xmlns:xlink="http://www.w3.org/1999/xlink" x="0px" y="0px"
	 viewBox="0 0 17.813 17.813" style="enable-background:new 0 0 17.813 17.813;" xml:space="preserve">
<g>
	<g>
		<g>
			<g>
				<path style="fill:#010002;" d="M17.205,17.813H0.607C0.273,17.813,0,17.542,0,17.207v-16.6C0,0.272,0.273,0,0.606,0h16.599
					c0.336,0,0.607,0.272,0.607,0.607v16.599C17.812,17.541,17.54,17.813,17.205,17.813z M1.214,16.599h15.386V1.213H1.214V16.599z"
					/>
			</g>
		</g>
		<g id="_x3C_Group_x3E__19_">
			<g>
				<path style="fill:#010002;" d="M12.135,4.073L6.651,4.961v6.598c-0.288-0.101-0.632-0.118-0.981-0.032
					c-0.779,0.195-1.287,0.836-1.138,1.434c0.087,0.553,0.901,0.922,1.68,0.728c0.681-0.17,1.157-0.688,1.16-1.216h0.001
					L7.366,6.899l4.045-0.735v4.48c-0.293-0.104-0.641-0.121-0.996-0.034c-0.787,0.198-1.303,0.844-1.152,1.448
					c0.152,0.603,0.91,0.931,1.697,0.736c0.715-0.182,1.174-0.671,1.174-1.287C12.134,11.507,12.134,4.073,12.135,4.073z"/>
			</g>
		</g>
	</g>
</g>
<g>
</g>
<g>
</g>
<g>
</g>
<g>
</g>
<g>
</g>
<g>
</g>
<g>
</g>
<g>
</g>
<g>
</g>
<g>
</g>
<g>
</g>
<g>
</g>
<g>
</g>
<g>
</g>
<g>
</g>
</svg>
