<?xml version="1.0" encoding="iso-8859-1"?>
<!-- Generator: Adobe Illustrator 18.1.1, SVG Export Plug-In . SVG Version: 6.00 Build 0)  -->
<svg version="1.1" id="Capa_1" xmlns="http://www.w3.org/2000/svg" xmlns:xlink="http://www.w3.org/1999/xlink" x="0px" y="0px"
	 viewBox="0 0 25.976 25.976" style="enable-background:new 0 0 25.976 25.976;" xml:space="preserve">
<g>
	<g>
		<path style="fill:#010002;" d="M25.705,3.603c-0.17-0.136-0.395-0.185-0.605-0.136L22.171,4.17V2.757
			c0-1.081-0.688-1.755-1.799-1.755c-1.99,0-6.163,2.422-7.415,3.412c-1.209-0.999-5.219-3.603-7.28-3.603
			c-1.17,0-1.87,0.728-1.87,1.946v1.467C3.126,4.119,1.732,3.802,0.881,3.595C0.67,3.542,0.444,3.591,0.272,3.727
			C0.101,3.861,0,4.068,0,4.288V22.85c0,0.205,0.089,0.401,0.245,0.539c0.156,0.134,0.363,0.195,0.566,0.165
			c0.063-0.008,6.407-1.434,9.536,0.227c0.12,0.062,0.311,0.217,0.491,0.364c0.533,0.429,1.259,1.016,2.147,1.02
			c0.002,0,0.005,0,0.008,0c0.889,0,1.642-0.615,2.192-1.065c0.192-0.156,0.389-0.318,0.509-0.382
			c3.122-1.653,9.401-0.174,9.463-0.163c0.208,0.03,0.414-0.029,0.57-0.165c0.158-0.134,0.249-0.332,0.249-0.539V4.16
			C25.978,3.942,25.879,3.736,25.705,3.603z M5.23,2.757c0-0.5,0.138-0.521,0.446-0.521c1.64,0,5.246,2.263,6.289,3.047l1.008,0.728
			l0.98-0.56c1.079-0.739,4.774-3.023,6.419-3.023c0.375,0,0.375,0.076,0.375,0.329v14.194c-2.082,0.039-5.714,0.591-6.784,1.187
			c-1.069,0.594-0.965,0.662-0.965,0.662s-0.075-0.093-1.034-0.685c-1.107-0.75-4.671-1.125-6.733-1.164L5.23,2.757L5.23,2.757z
			 M24.553,20.541c-1.712-0.75-6.682-1.277-9.524,0.228c-0.243,0.131-0.487,0.328-0.744,0.537c-0.406,0.332-0.91,0.744-1.288,0.744
			c-0.002,0-0.002,0-0.004,0c-0.387-0.002-0.869-0.389-1.256-0.702c-0.247-0.199-0.479-0.389-0.72-0.515
			c-2.847-1.51-7.699-0.762-9.591-0.104V5.188c0.761,0.175,1.808,0.405,2.381,0.477v12.706h0.816c1.896,0,5.419,0.193,7.699,1.502
			l0.215,0.124v0.53l0.459-0.269l0.392,0.227v-0.456l0.224-0.13c2.274-1.331,5.829-1.528,7.744-1.528h0.815V5.636l2.382-0.572
			V20.541z"/>
		<path style="fill:#010002;" d="M7.933,10.4c0,0.624,0,1.712,0,2.148c0,0.167,0.235,0.296,0.526,0.395V9.871
			C8.168,9.992,7.933,10.162,7.933,10.4z"/>
		<path style="fill:#010002;" d="M13.091,15.384c0-0.479,0-7.618,0-8.055c0-0.375-0.485-0.009-0.485-0.009L9.527,9.618
			c0,0-0.286,0.031-0.618,0.11v3.333c0.332,0.072,0.618,0.104,0.618,0.104l3.012,2.234C12.539,15.4,13.091,15.862,13.091,15.384z"/>
		<path style="fill:#010002;" d="M14.545,13.613c0.124,0.124,0.286,0.186,0.447,0.186c0.164,0,0.324-0.062,0.448-0.186l1.31-1.312
			l1.312,1.312c0.124,0.124,0.287,0.186,0.449,0.186c0.16,0,0.323-0.062,0.446-0.186c0.248-0.248,0.248-0.649,0-0.896l-1.309-1.312
			l1.309-1.31c0.248-0.247,0.248-0.648,0-0.896c-0.247-0.247-0.648-0.247-0.896,0l-1.311,1.312l-1.31-1.312
			c-0.247-0.247-0.649-0.247-0.896,0s-0.247,0.648,0,0.896l1.31,1.31l-1.31,1.312C14.298,12.963,14.298,13.365,14.545,13.613z"/>
	</g>
</g>
<g>
</g>
<g>
</g>
<g>
</g>
<g>
</g>
<g>
</g>
<g>
</g>
<g>
</g>
<g>
</g>
<g>
</g>
<g>
</g>
<g>
</g>
<g>
</g>
<g>
</g>
<g>
</g>
<g>
</g>
</svg>
