<?xml version="1.0" encoding="iso-8859-1"?>
<!-- Generator: Adobe Illustrator 18.1.1, SVG Export Plug-In . SVG Version: 6.00 Build 0)  -->
<svg version="1.1" id="Capa_1" xmlns="http://www.w3.org/2000/svg" xmlns:xlink="http://www.w3.org/1999/xlink" x="0px" y="0px"
	 viewBox="0 0 32.454 32.454" style="enable-background:new 0 0 32.454 32.454;" xml:space="preserve">
<g>
	<g>
		<g>
			<g>
				<path style="fill:#010002;" d="M13.908,16.804c-0.168,0-0.336-0.051-0.48-0.154L0.341,7.223C0.127,7.068,0,6.822,0,6.558V5.129
					c0-0.454,0.368-0.822,0.821-0.822h26.174c0.453,0,0.821,0.368,0.821,0.822v1.372c0,0.262-0.126,0.511-0.339,0.663L14.39,16.65
					C14.246,16.753,14.077,16.804,13.908,16.804z M1.642,6.136l12.265,8.836l12.268-8.89V5.949H1.642V6.136z"/>
			</g>
		</g>
		<g>
			<g>
				<path style="fill:#010002;" d="M27.761,13.676V8.622L13.907,18.5L0.055,8.622v15.942h18.494
					c1.322,2.146,3.687,3.583,6.394,3.583c4.148,0,7.511-3.362,7.511-7.513C32.454,17.487,30.512,14.79,27.761,13.676z
					 M24.942,25.992c-1.403,0-2.676-0.543-3.632-1.427c-1.058-0.977-1.724-2.373-1.724-3.93c0-2.959,2.397-5.354,5.356-5.354
					c1.036,0,1.999,0.301,2.819,0.81c1.521,0.943,2.537,2.623,2.537,4.545C30.298,23.594,27.899,25.992,24.942,25.992z"/>
			</g>
		</g>
		<g>
			<g>
				<polygon style="fill:#010002;" points="26.052,16.829 23.789,16.829 23.789,19.411 21.154,19.411 21.154,21.675 23.789,21.675 
					23.789,24.331 26.052,24.331 26.052,21.675 28.655,21.675 28.655,19.411 26.052,19.411 				"/>
			</g>
		</g>
	</g>
</g>
<g>
</g>
<g>
</g>
<g>
</g>
<g>
</g>
<g>
</g>
<g>
</g>
<g>
</g>
<g>
</g>
<g>
</g>
<g>
</g>
<g>
</g>
<g>
</g>
<g>
</g>
<g>
</g>
<g>
</g>
</svg>
