<?xml version="1.0" encoding="iso-8859-1"?>
<!-- Generator: Adobe Illustrator 18.1.1, SVG Export Plug-In . SVG Version: 6.00 Build 0)  -->
<svg version="1.1" id="Capa_1" xmlns="http://www.w3.org/2000/svg" xmlns:xlink="http://www.w3.org/1999/xlink" x="0px" y="0px"
	 viewBox="0 0 27.707 27.707" style="enable-background:new 0 0 27.707 27.707;" xml:space="preserve">
<g>
	<g>
		<polygon style="fill:#010002;" points="24.287,11.757 13.853,19.197 3.419,11.757 0,9.319 0,25.261 27.707,25.261 27.707,9.319 		
			"/>
		<path style="fill:#010002;" d="M2.944,10.758l10.433,7.436c0.142,0.102,0.309,0.153,0.476,0.153s0.334-0.052,0.477-0.153
			l10.434-7.438c0.217-0.155,0.345-0.404,0.345-0.67V3.268c-0.002-0.454-0.369-0.822-0.822-0.822H3.419
			C2.966,2.446,2.6,2.814,2.6,3.268v6.82C2.6,10.354,2.728,10.603,2.944,10.758z M4.24,4.088h19.226v5.577l-9.614,6.854L4.24,9.665
			V4.088z"/>
		<path style="fill:#010002;" d="M7.486,7.599h12.217c0.493,0,0.892-0.401,0.892-0.894s-0.399-0.891-0.892-0.891H7.486
			c-0.493,0-0.892,0.398-0.892,0.891S6.993,7.599,7.486,7.599z"/>
		<path style="fill:#010002;" d="M20.595,9.805c0-0.491-0.399-0.891-0.892-0.891H7.486c-0.493,0-0.892,0.399-0.892,0.891
			c0,0.494,0.399,0.892,0.892,0.892h12.217C20.196,10.697,20.595,10.3,20.595,9.805z"/>
	</g>
</g>
<g>
</g>
<g>
</g>
<g>
</g>
<g>
</g>
<g>
</g>
<g>
</g>
<g>
</g>
<g>
</g>
<g>
</g>
<g>
</g>
<g>
</g>
<g>
</g>
<g>
</g>
<g>
</g>
<g>
</g>
</svg>
