<?xml version="1.0" encoding="iso-8859-1"?>
<!-- Generator: Adobe Illustrator 18.1.1, SVG Export Plug-In . SVG Version: 6.00 Build 0)  -->
<svg version="1.1" id="Capa_1" xmlns="http://www.w3.org/2000/svg" xmlns:xlink="http://www.w3.org/1999/xlink" x="0px" y="0px"
	 viewBox="0 0 31.506 31.506" style="enable-background:new 0 0 31.506 31.506;" xml:space="preserve">
<g>
	<path style="fill:#010002;" d="M12.376,16.799h5.134c0.095,0,0.187-0.027,0.268-0.074c4.235-2.533,4.217-8.337,4.214-8.592
		C21.591,0.586,16.082,0,14.403,0c-0.373,0-0.599,0.028-0.611,0.029L13.73,0.047c-0.032,0.008-0.07,0.019-0.11,0.04l-0.078,0.051
		c-0.034,0.027-0.063,0.057-0.063,0.062L13.44,0.232L13.342,0.51c-0.003,0.043,0.001,0.086,0.006,0.102l0.012,0.087
		c0.563,1.807-1.465,4.468-2.291,5.337c-3.939,4.028,0.843,10.492,0.892,10.557C12.059,16.722,12.214,16.799,12.376,16.799z
		 M17.064,7.083c-0.036,0.074-0.039,0.159-0.008,0.239c0.075,0.188,0.362,0.328,0.624,0.421c0.017,0.004,0.425,0.082,0.966,0.082
		c0.711,0,1.611-0.134,2.202-0.711c0.052,0.362,0.086,0.709,0.104,1.051c0.001,0.054,0.002,5.33-3.588,7.594h-4.719
		c-0.801-1.166-3.787-5.975-0.827-9.001c0.113-0.119,2.633-2.804,2.672-5.318c0.849,0.476,2.272,1.45,2.798,2.82
		C17.627,5.144,17.552,6.093,17.064,7.083z M17.565,17.553h-5.134c-0.202,0-0.388,0.118-0.472,0.303
		c-0.126,0.27-1.227,2.694-1.227,4.039c-0.001,1.274,0,9.091,0,9.091c0,0.288,0.233,0.52,0.52,0.52h7.411
		c0.288,0,0.52-0.233,0.52-0.521v-9.091c0.001-1.309-1.093-3.914-1.139-4.024C17.963,17.678,17.774,17.553,17.565,17.553z
		 M11.773,21.896c0-0.902,0.7-2.617,0.997-3.302h4.445c0.277,0.7,0.928,2.442,0.928,3.302v8.57h-6.37
		C11.773,28.698,11.772,22.97,11.773,21.896z"/>
</g>
<g>
</g>
<g>
</g>
<g>
</g>
<g>
</g>
<g>
</g>
<g>
</g>
<g>
</g>
<g>
</g>
<g>
</g>
<g>
</g>
<g>
</g>
<g>
</g>
<g>
</g>
<g>
</g>
<g>
</g>
</svg>
