<?xml version="1.0" encoding="iso-8859-1"?>
<!-- Generator: Adobe Illustrator 18.1.1, SVG Export Plug-In . SVG Version: 6.00 Build 0)  -->
<svg version="1.1" id="Capa_1" xmlns="http://www.w3.org/2000/svg" xmlns:xlink="http://www.w3.org/1999/xlink" x="0px" y="0px"
	 viewBox="0 0 36.318 36.318" style="enable-background:new 0 0 36.318 36.318;" xml:space="preserve">
<g>
	<g>
		<path style="fill:#EEEEEE;" d="M9.407,17.099l-1.143-0.173c-0.214-0.032-0.431,0.036-0.587,0.187
			c-0.156,0.151-0.233,0.365-0.208,0.58l1.196,10.535c0.016,0.15,0.142,0.262,0.291,0.262h0.005
			c0.153-0.002,0.276-0.121,0.286-0.273l0.614-10.556C9.876,17.384,9.68,17.141,9.407,17.099z"/>
		<path style="fill:#EEEEEE;" d="M20.788,18.95l-9.49-1.445c-0.08-0.012-0.163,0.008-0.227,0.058s-0.105,0.124-0.113,0.206
			l-0.944,10.732c-0.011,0.115,0.049,0.226,0.152,0.282c0.044,0.024,0.091,0.035,0.14,0.035c0.063,0,0.126-0.02,0.179-0.06
			l10.436-9.288c0.092-0.073,0.133-0.192,0.104-0.304C20.996,19.052,20.903,18.969,20.788,18.95z"/>
		<path style="fill:#EEEEEE;" d="M36.258,7.616c-0.078-0.1-0.21-0.141-0.329-0.099l-35.691,6.71C0.102,14.25,0.002,14.369,0,14.507
			c-0.003,0.138,0.092,0.262,0.227,0.291l7.667,1.369c0.38,0.068,0.77,0.044,1.139-0.067l19.056-5.757l-16.038,5.99
			c-0.13,0.039-0.216,0.163-0.206,0.298c0.009,0.135,0.109,0.247,0.243,0.269l15.557,2.465c0.456,0.072,0.914-0.125,1.176-0.507
			l7.446-10.899C36.338,7.854,36.334,7.716,36.258,7.616z"/>
	</g>
</g>
<g>
</g>
<g>
</g>
<g>
</g>
<g>
</g>
<g>
</g>
<g>
</g>
<g>
</g>
<g>
</g>
<g>
</g>
<g>
</g>
<g>
</g>
<g>
</g>
<g>
</g>
<g>
</g>
<g>
</g>
</svg>
