<?xml version="1.0" encoding="iso-8859-1"?>
<!-- Generator: Adobe Illustrator 18.1.1, SVG Export Plug-In . SVG Version: 6.00 Build 0)  -->
<svg version="1.1" id="Capa_1" xmlns="http://www.w3.org/2000/svg" xmlns:xlink="http://www.w3.org/1999/xlink" x="0px" y="0px"
	 viewBox="0 0 42.121 42.121" style="enable-background:new 0 0 42.121 42.121;" xml:space="preserve">
<g>
	<g>
		<g>
			<rect x="0" y="9.823" style="fill:#010002;" width="42.121" height="0.808"/>
		</g>
		<g>
			<rect x="0" y="20.996" style="fill:#010002;" width="42.121" height="0.807"/>
		</g>
		<g>
			<rect x="0" y="28.69" style="fill:#010002;" width="42.121" height="0.809"/>
		</g>
		<g>
			<rect x="0" y="31.49" style="fill:#010002;" width="42.121" height="0.807"/>
		</g>
		<g>
			<path style="fill:#010002;" d="M14.21,23.877l-1.585,5.218H9.158l5.898-18.41h4.289l5.981,18.41h-3.633l-1.666-5.218
				C20.027,23.877,14.21,23.877,14.21,23.877z M19.481,21.336l-1.446-4.534c-0.356-1.117-0.657-2.374-0.929-3.439H17.05
				c-0.272,1.065-0.573,2.349-0.874,3.439l-1.42,4.534H19.481z"/>
			<path style="fill:#010002;" d="M35.169,25.899c0,1.2,0.054,2.377,0.217,3.196h-3.03l-0.246-1.473h-0.083
				c-0.791,1.036-2.185,1.771-3.933,1.771c-2.676,0-4.178-1.939-4.178-3.96c0-3.331,2.977-5.052,7.894-5.023v-0.219
				c0-0.875-0.355-2.324-2.704-2.324c-1.311,0-2.677,0.413-3.579,0.988l-0.655-2.187c0.984-0.602,2.704-1.176,4.808-1.176
				c4.26,0,5.49,2.705,5.49,5.628L35.169,25.899L35.169,25.899z M31.891,21.947c-2.377-0.026-5.289,1.109-5.289,3.132
				c0,1.31,1.492,1.913,2.558,1.913c1.365,0,2.321-0.23,2.649-1.184c0.082-0.247,0.082-0.493,0.082-0.738
				C31.891,25.07,31.891,21.947,31.891,21.947z"/>
		</g>
	</g>
</g>
<g>
</g>
<g>
</g>
<g>
</g>
<g>
</g>
<g>
</g>
<g>
</g>
<g>
</g>
<g>
</g>
<g>
</g>
<g>
</g>
<g>
</g>
<g>
</g>
<g>
</g>
<g>
</g>
<g>
</g>
</svg>
