<?xml version="1.0" encoding="iso-8859-1"?>
<!-- Generator: Adobe Illustrator 18.1.1, SVG Export Plug-In . SVG Version: 6.00 Build 0)  -->
<svg version="1.1" id="Capa_1" xmlns="http://www.w3.org/2000/svg" xmlns:xlink="http://www.w3.org/1999/xlink" x="0px" y="0px"
	 viewBox="0 0 30.6 30.6" style="enable-background:new 0 0 30.6 30.6;" xml:space="preserve">
<g>
	<path style="fill:#010002;" d="M20.529,8.81l-4.627-8.436c-0.158-0.287-0.516-0.436-0.841-0.349
		c-0.214,0.058-0.401,0.221-0.467,0.39l-4.525,8.359c-0.092,0.173-0.113,0.368-0.06,0.555l1.809,6.325
		c0.09,0.315,0.382,0.535,0.711,0.535h0.003l5.464-0.036c0.327-0.002,0.609-0.213,0.704-0.525l1.888-6.248
		C20.646,9.191,20.625,8.983,20.529,8.81z M17.826,15.192l-5.129,0.034l-1.738-6.075l4.297-7.956l4.385,7.995L17.826,15.192z
		 M18.192,17.337c-0.076-0.179-0.249-0.295-0.444-0.295h-5.007c-0.187,0-0.359,0.11-0.437,0.278
		c-0.048,0.106-1.195,2.581-1.194,3.93c-0.001,1.243,0,8.868,0,8.868c0,0.266,0.216,0.482,0.481,0.482h7.23
		c0.265,0,0.48-0.216,0.48-0.482c0,0,0.001-7.68,0-8.866C19.302,19.977,18.237,17.443,18.192,17.337z M18.34,21.251
		c0,0.785,0,4.401,0,6.767v1.62h-6.267c-0.001-1.696-0.002-7.333,0-8.388c-0.001-0.732,0.496-2.131,0.98-3.246h4.372
		C17.878,19.143,18.34,20.554,18.34,21.251z M13.66,5.817c0,0.853,0.693,1.547,1.546,1.547s1.546-0.693,1.546-1.546
		s-0.693-1.547-1.546-1.547S13.66,4.964,13.66,5.817z M15.79,5.817c0,0.322-0.262,0.585-0.584,0.585
		c-0.322,0-0.584-0.263-0.584-0.585c0-0.321,0.262-0.583,0.584-0.583C15.528,5.234,15.79,5.496,15.79,5.817z"/>
</g>
<g>
</g>
<g>
</g>
<g>
</g>
<g>
</g>
<g>
</g>
<g>
</g>
<g>
</g>
<g>
</g>
<g>
</g>
<g>
</g>
<g>
</g>
<g>
</g>
<g>
</g>
<g>
</g>
<g>
</g>
</svg>
