<?xml version="1.0" encoding="iso-8859-1"?>
<!-- Generator: Adobe Illustrator 18.1.1, SVG Export Plug-In . SVG Version: 6.00 Build 0)  -->
<svg version="1.1" id="Capa_1" xmlns="http://www.w3.org/2000/svg" xmlns:xlink="http://www.w3.org/1999/xlink" x="0px" y="0px"
	 viewBox="0 0 32.371 32.371" style="enable-background:new 0 0 32.371 32.371;" xml:space="preserve">
<g>
	<path style="fill:#010002;" d="M11.324,10.953l9.663-0.003c0.18,0,0.35-0.096,0.444-0.25c0.095-0.157,0.099-0.352,0.017-0.512
		l-3.201-6.111c-0.093-0.173-0.255-0.271-0.465-0.276L14.928,3.82c-0.181,0-0.352,0.097-0.445,0.254l-3.606,6.093
		c-0.095,0.16-0.096,0.359-0.006,0.524C10.965,10.853,11.138,10.953,11.324,10.953z M17.472,4.844l2.656,5.065l-7.893,0.003
		l2.993-5.055L17.472,4.844z M21.458,11.934c-0.1-0.105-0.237-0.166-0.381-0.166l-9.782,0.01c-0.144,0-0.281,0.06-0.378,0.164
		c-0.099,0.104-0.151,0.244-0.142,0.384l1.043,18.728c0.009,0.197,0.133,0.375,0.317,0.452c1.38,0.575,2.758,0.865,4.094,0.865
		c2.308,0,3.705-0.871,3.764-0.909c0.138-0.087,0.227-0.238,0.239-0.399l1.363-18.737C21.605,12.183,21.556,12.039,21.458,11.934z
		 M16.229,31.331c-1.102,0-2.243-0.223-3.392-0.665l-0.993-17.848l8.672-0.008l-1.302,17.893
		C18.755,30.928,17.721,31.331,16.229,31.331z M17.959,2.981h-3.133l0.928-2.769C15.773,0.191,15.948,0,16.213,0
		c0.314,0,0.575,0.256,0.771,0.76c0.24,0.597,0.826,1.895,0.832,1.907L17.959,2.981z"/>
</g>
<g>
</g>
<g>
</g>
<g>
</g>
<g>
</g>
<g>
</g>
<g>
</g>
<g>
</g>
<g>
</g>
<g>
</g>
<g>
</g>
<g>
</g>
<g>
</g>
<g>
</g>
<g>
</g>
<g>
</g>
</svg>
