<?xml version="1.0" encoding="iso-8859-1"?>
<!-- Generator: Adobe Illustrator 18.1.1, SVG Export Plug-In . SVG Version: 6.00 Build 0)  -->
<svg version="1.1" id="Capa_1" xmlns="http://www.w3.org/2000/svg" xmlns:xlink="http://www.w3.org/1999/xlink" x="0px" y="0px"
	 viewBox="0 0 24.519 24.519" style="enable-background:new 0 0 24.519 24.519;" xml:space="preserve">
<g>
	<g>
		<path style="fill:#010002;" d="M21.682,13.022H11.067V2.408c0-0.083-0.068-0.151-0.151-0.151C4.896,2.258,0,7.154,0,13.173
			c0,6.021,4.896,10.918,10.916,10.918s10.917-4.898,10.917-10.918C21.833,13.09,21.763,13.022,21.682,13.022z"/>
		<path style="fill:#010002;" d="M12.544,11.42c0.02,0.008,0.038,0.011,0.059,0.011c0.039,0,0.079-0.017,0.108-0.047l7.368-7.771
			c0.027-0.028,0.043-0.067,0.041-0.107c0-0.041-0.018-0.079-0.048-0.106c-2.035-1.917-4.689-2.972-7.469-2.972
			c-0.085,0-0.153,0.067-0.153,0.151V11.28C12.449,11.342,12.488,11.397,12.544,11.42z M18.433,3.595l-4.774,5.033V1.694
			C15.39,1.884,17.035,2.538,18.433,3.595z"/>
		<path style="fill:#010002;" d="M21.075,3.919c-0.062-0.057-0.155-0.055-0.215,0.006l-7.366,7.771
			c-0.027,0.027-0.042,0.065-0.042,0.104v0.062c0,0.084,0.068,0.151,0.151,0.151h10.765c0.083,0,0.151-0.067,0.151-0.151
			C24.52,8.832,23.296,6.011,21.075,3.919z M16.003,10.806l4.973-5.245c1.284,1.492,2.07,3.299,2.279,5.245H16.003z"/>
	</g>
</g>
<g>
</g>
<g>
</g>
<g>
</g>
<g>
</g>
<g>
</g>
<g>
</g>
<g>
</g>
<g>
</g>
<g>
</g>
<g>
</g>
<g>
</g>
<g>
</g>
<g>
</g>
<g>
</g>
<g>
</g>
</svg>
