<?xml version="1.0" encoding="iso-8859-1"?>
<!-- Generator: Adobe Illustrator 18.1.1, SVG Export Plug-In . SVG Version: 6.00 Build 0)  -->
<svg version="1.1" id="Capa_1" xmlns="http://www.w3.org/2000/svg" xmlns:xlink="http://www.w3.org/1999/xlink" x="0px" y="0px"
	 viewBox="0 0 24.814 24.814" style="enable-background:new 0 0 24.814 24.814;" xml:space="preserve">
<g>
	<path style="fill:#010002;" d="M9.668,20.485c3.078,0,5.573-2.494,5.573-5.571s-2.495-5.572-5.573-5.572
		c-3.075,0-5.571,2.496-5.571,5.572C4.096,17.991,6.593,20.485,9.668,20.485z M8.355,12.436c0-0.106,0.06-0.206,0.156-0.255
		c0.095-0.05,0.209-0.043,0.298,0.019l3.614,2.478c0.077,0.053,0.126,0.143,0.126,0.238s-0.049,0.185-0.126,0.238L8.809,17.63
		c-0.05,0.034-0.105,0.051-0.166,0.051c-0.044,0-0.091-0.012-0.132-0.034c-0.097-0.05-0.156-0.147-0.156-0.256V12.436z M24.131,0
		H6.17C5.806,0,5.513,0.293,5.513,0.656v2.007H3.506c-0.361,0-0.656,0.293-0.656,0.655v2.226H0.688
		c-0.363,0-0.656,0.292-0.656,0.655v17.96c0,0.362,0.293,0.655,0.656,0.655h17.96c0.361,0,0.656-0.293,0.656-0.655v-2.225h2.162
		c0.359,0,0.654-0.294,0.654-0.656v-2.007h2.008c0.361,0,0.654-0.293,0.654-0.655V0.656C24.784,0.293,24.491,0,24.131,0z
		 M17.992,23.502H1.345V6.855h16.647V23.502z M20.808,20.623h-1.504V6.199c0-0.363-0.295-0.655-0.656-0.655H4.162V3.976h16.646
		C20.808,3.976,20.808,20.623,20.808,20.623z M23.47,17.96h-1.35V3.319c0.001-0.361-0.294-0.655-0.654-0.655H6.825V1.312h16.646
		L23.47,17.96L23.47,17.96z"/>
</g>
<g>
</g>
<g>
</g>
<g>
</g>
<g>
</g>
<g>
</g>
<g>
</g>
<g>
</g>
<g>
</g>
<g>
</g>
<g>
</g>
<g>
</g>
<g>
</g>
<g>
</g>
<g>
</g>
<g>
</g>
</svg>
