<?xml version="1.0" encoding="iso-8859-1"?>
<!-- Generator: Adobe Illustrator 18.1.1, SVG Export Plug-In . SVG Version: 6.00 Build 0)  -->
<svg version="1.1" id="Capa_1" xmlns="http://www.w3.org/2000/svg" xmlns:xlink="http://www.w3.org/1999/xlink" x="0px" y="0px"
	 viewBox="0 0 116.4 116.4" style="enable-background:new 0 0 116.4 116.4;" xml:space="preserve">
<g>
	<g>
		<path style="fill:#010002;" d="M58.203,40.856c-19.352,0-36.372,13.72-40.459,32.628L17.3,75.542h81.8l-0.44-2.058
			C94.561,54.576,77.549,40.856,58.203,40.856z M21.576,72.149c4.492-16.288,19.576-27.894,36.63-27.894
			c17.057,0,32.132,11.606,36.633,27.895L21.576,72.149L21.576,72.149z"/>
		<path style="fill:#010002;" d="M58.203,24.05C26.111,24.05,0,50.158,0,82.253V92.35h116.4V82.253
			C116.4,50.158,90.299,24.05,58.203,24.05z M113.009,88.958h-4.667v-5.133h-3v5.133h-3.282v-8.133h-3v8.133h-3.718v-5.133h-3v5.133
			H89.06v-8.133h-3v8.133h-3.718v-5.133h-3v5.133H76.06v-8.133h-3v8.133h-3.718v-5.133h-3v5.133H63.06v-8.133h-3v8.133h-3.718
			v-5.133h-3v5.133h-3.283v-8.133h-3v8.133h-3.718v-5.133h-3v5.133h-3.283v-8.133h-3v8.133h-3.717v-5.133h-3v5.133h-3.283v-8.133h-3
			v8.133h-3.717v-5.133h-3v5.133h-3.283v-8.133h-3v8.133H3.392v-6.705c0-30.224,24.585-54.812,54.811-54.812
			c30.217,0,54.806,24.585,54.806,54.812V88.958z"/>
	</g>
</g>
<g>
</g>
<g>
</g>
<g>
</g>
<g>
</g>
<g>
</g>
<g>
</g>
<g>
</g>
<g>
</g>
<g>
</g>
<g>
</g>
<g>
</g>
<g>
</g>
<g>
</g>
<g>
</g>
<g>
</g>
</svg>
