<?xml version="1.0" encoding="iso-8859-1"?>
<!-- Generator: Adobe Illustrator 18.1.1, SVG Export Plug-In . SVG Version: 6.00 Build 0)  -->
<svg version="1.1" id="Capa_1" xmlns="http://www.w3.org/2000/svg" xmlns:xlink="http://www.w3.org/1999/xlink" x="0px" y="0px"
	 viewBox="0 0 102.876 102.876" style="enable-background:new 0 0 102.876 102.876;" xml:space="preserve">
<g>
	<path style="fill:#010002;" d="M101.488,25.438l-24.2-23.9c-0.8-0.8-1.7-1.2-2.7-1.3c-1.4-0.2-3,0.3-4.1,1.4
		c-1.8,1.9-1.8,4.9,0,6.7l3.4,3.4c-3.2,3.2-19.8,19.9-28.3,19.3c-9.4-0.6-14.5,12.6-14.5,12.6l8.7,8.6l-39.2,46.4
		c-0.8,1-0.8,2.4,0.1,3.3l0,0c0.9,0.9,2.3,1,3.3,0.2l46.9-38.9l8.7,8.6c0,0,12.6-4.1,12.5-14.6c0-9.5,15.9-25.4,19.1-28.5l3.5,3.5
		c0.8,0.8,1.7,1.2,2.7,1.3c1.5,0.2,3-0.2,4.1-1.4C103.388,30.338,103.288,27.338,101.488,25.438z M66.888,57.238
		c0,4.1-3.5,6.8-6.1,8.3l-23.2-23c1.7-2.9,4.5-6.5,7.8-6.3c9.9,0.7,24.6-12.8,32.4-20.9l9.8,9.6
		C81.388,31.038,66.888,46.238,66.888,57.238z"/>
</g>
<g>
</g>
<g>
</g>
<g>
</g>
<g>
</g>
<g>
</g>
<g>
</g>
<g>
</g>
<g>
</g>
<g>
</g>
<g>
</g>
<g>
</g>
<g>
</g>
<g>
</g>
<g>
</g>
<g>
</g>
</svg>
