<?xml version="1.0" encoding="iso-8859-1"?>
<!-- Generator: Adobe Illustrator 18.1.1, SVG Export Plug-In . SVG Version: 6.00 Build 0)  -->
<svg version="1.1" id="Capa_1" xmlns="http://www.w3.org/2000/svg" xmlns:xlink="http://www.w3.org/1999/xlink" x="0px" y="0px"
	 viewBox="0 0 24.087 24.087" style="enable-background:new 0 0 24.087 24.087;" xml:space="preserve">
<g>
	<g>
		<path style="fill:#010002;" d="M10.767,2.555C4.821,2.555,0,7.375,0,13.32c0,5.946,4.821,10.765,10.767,10.765
			c5.943,0,10.764-4.819,10.764-10.765H10.767V2.555z"/>
		<path style="fill:#010002;" d="M12.716,0.001c-0.334,0-0.604,0.271-0.604,0.604v10.764c0,0.334,0.27,0.605,0.604,0.605h10.766
			c0.333,0,0.605-0.271,0.605-0.605C24.087,5.101,18.985,0.001,12.716,0.001z M13.321,10.766V1.228
			c5.121,0.301,9.237,4.416,9.538,9.538H13.321z"/>
	</g>
</g>
<g>
</g>
<g>
</g>
<g>
</g>
<g>
</g>
<g>
</g>
<g>
</g>
<g>
</g>
<g>
</g>
<g>
</g>
<g>
</g>
<g>
</g>
<g>
</g>
<g>
</g>
<g>
</g>
<g>
</g>
</svg>
