<?xml version="1.0" encoding="iso-8859-1"?>
<!-- Generator: Adobe Illustrator 18.1.1, SVG Export Plug-In . SVG Version: 6.00 Build 0)  -->
<svg version="1.1" id="Capa_1" xmlns="http://www.w3.org/2000/svg" xmlns:xlink="http://www.w3.org/1999/xlink" x="0px" y="0px"
	 viewBox="0 0 109.919 109.919" style="enable-background:new 0 0 109.919 109.919;" xml:space="preserve">
<g>
	<g>
		<path style="fill:#010002;" d="M109.2,99.169c-1.5-2.4-10.9-19.1-0.3-29.7c1-0.9,1.2-2.4,0.7-3.6s-1.7-2.1-3.1-2.1H3.3
			c-1.9,0-3.3,1.5-3.3,3.3v34.2c0,1.8,1.5,3.3,3.3,3.3h103.2l0,0c1.9,0,3.5-1.6,3.4-3.3C110,100.469,109.7,99.869,109.2,99.169z
			 M5.6,98.469v-28.7h96.2c-2.1,3.9-2.9,8-2.9,12H26.2c-1.3,0-2.4,1.1-2.4,2.4s1.1,2.4,2.4,2.4h73.1c0.7,4.6,2.2,8.8,3.6,11.9
			C102.9,98.469,5.6,98.469,5.6,98.469z"/>
		<path style="fill:#010002;" d="M18.5,55.369h31.9c0.8,0,1.5-0.7,1.5-1.5v-14.1h6.2v14.1c0,0.8,0.7,1.5,1.5,1.5h31.9
			c0.8,0,1.5-0.7,1.5-1.5v-20.3c0-0.3-0.1-0.5-0.2-0.7l-15.1-26.8c-0.3-0.5-0.9-0.8-1.5-0.7s-1.1,0.6-1.2,1.2l-0.9,4.9
			c-0.1,0.3,0,0.7,0.2,1l10.7,19.4H25l10.8-19.4c0.2-0.3,0.2-0.6,0.2-1l-1-4.9c-0.1-0.6-0.6-1.1-1.2-1.2c-0.6-0.1-1.2,0.2-1.5,0.7
			l-15.1,26.8c-0.1,0.2-0.2,0.5-0.2,0.7v20.3C17.1,54.669,17.7,55.369,18.5,55.369z M63.5,37.269h24v12.7h-24V37.269z M22.5,37.269
			h24v12.7h-24V37.269z"/>
	</g>
</g>
<g>
</g>
<g>
</g>
<g>
</g>
<g>
</g>
<g>
</g>
<g>
</g>
<g>
</g>
<g>
</g>
<g>
</g>
<g>
</g>
<g>
</g>
<g>
</g>
<g>
</g>
<g>
</g>
<g>
</g>
</svg>
