<?xml version="1.0" encoding="iso-8859-1"?>
<!-- Generator: Adobe Illustrator 18.1.1, SVG Export Plug-In . SVG Version: 6.00 Build 0)  -->
<svg version="1.1" id="Capa_1" xmlns="http://www.w3.org/2000/svg" xmlns:xlink="http://www.w3.org/1999/xlink" x="0px" y="0px"
	 viewBox="0 0 34.957 34.957" style="enable-background:new 0 0 34.957 34.957;" xml:space="preserve">
<g>
	<path style="fill:#010002;" d="M4.665,11.79c0-0.703,0.57-1.273,1.273-1.273c0.702,0,1.273,0.57,1.273,1.273
		s-0.571,1.273-1.273,1.273C5.235,13.063,4.665,12.493,4.665,11.79z M3.466,17.743l1.142-3.872
		c-0.686-0.438-1.142-1.206-1.142-2.082c0-1.367,1.106-2.471,2.472-2.471s2.473,1.104,2.473,2.471c0,0.868-0.448,1.629-1.124,2.071
		l1.888,3.63l-1.123-0.042l-0.61,0.944l-1.36-2.614l-0.743,2.516l-0.78-0.811L3.466,17.743z M4.672,13.653l-0.017,0.025
		c0.003,0.001,0.006,0.002,0.008,0.004L4.672,13.653z M5.65,13.506c-0.248-0.041-0.482-0.132-0.69-0.274l-0.286,0.417l0.325,0.22
		c0.178,0.08,0.366,0.14,0.562,0.172L5.65,13.506z M7.397,13.532l-0.35-0.413c-0.192,0.164-0.413,0.281-0.655,0.348l0.143,0.522
		C6.854,13.902,7.145,13.748,7.397,13.532z M8.147,11.438l-0.529,0.111c0.026,0.12,0.038,0.132,0.038,0.255
		c0,0.253-0.053,0.497-0.159,0.723l0.492,0.231c0.139-0.299,0.209-0.622,0.209-0.954C8.198,11.644,8.181,11.592,8.147,11.438z
		 M6.746,10.284c0.219,0.117,0.414,0.283,0.565,0.484l0.432-0.325c-0.196-0.264-0.453-0.482-0.74-0.638L6.746,10.284z M5.1,9.695
		l0.198,0.504c0.201-0.081,0.414-0.12,0.633-0.12c0.035,0,0.069,0.002,0.103,0.002l0.03-0.541c-0.045,0-0.089-0.003-0.133-0.003
		C5.644,9.537,5.365,9.591,5.1,9.695z M3.784,11.073l0.513,0.174c0.08-0.235,0.213-0.455,0.384-0.634L4.29,10.24
		C4.065,10.477,3.891,10.765,3.784,11.073z M4.45,12.691c-0.13-0.216-0.21-0.453-0.236-0.705l-0.538,0.059
		c0.036,0.329,0.14,0.639,0.31,0.925L4.45,12.691z M5.931,13.386c0.875,0,1.584-0.707,1.584-1.583c0-0.873-0.709-1.583-1.584-1.583
		c-0.874,0-1.583,0.709-1.583,1.583C4.348,12.678,5.057,13.386,5.931,13.386z M34.957,6.044v22.869c0,0.506-0.408,0.915-0.914,0.915
		H0.915C0.409,29.828,0,29.419,0,28.914V6.044c0-0.506,0.409-0.915,0.915-0.915H34.04C34.546,5.129,34.957,5.538,34.957,6.044z
		 M33.126,6.958H1.829v21.041h31.299V6.958H33.126z M30.273,11.964v-0.458H10.739v0.458H30.273z M30.273,14.818v-0.456H10.739v0.456
		H30.273z M30.273,17.902v-0.456H10.739v0.456H30.273z M27.251,23.26c-0.885,0.02-1.926-0.455-2.777-0.653
		c-0.232-0.057-0.528,0.121-0.674,0.354c-0.467-0.28-0.942-0.549-1.401-0.874c-0.344-0.243-0.841,0.203-0.843,0.563
		c-0.01,1.286,0.572,2.31,0.804,3.548c0.116,0.627,1.035-0.006,0.942-0.496c-0.135-0.729-0.428-1.396-0.614-2.096
		c0.595,0.354,1.192,0.703,1.717,1.181c0.405,0.366,0.958-0.41,0.804-0.791c-0.01-0.021-0.019-0.042-0.023-0.063
		c0.641,0.186,1.295,0.35,1.938,0.334c0.164-0.002,0.33-0.025,0.498-0.062c-0.562,0.475-1.08,0.976-1.451,1.526
		c-0.326,0.481,0.195,0.768,0.593,0.498c0.014-0.013,0.026-0.021,0.04-0.029c0.025-0.018,0.048-0.037,0.068-0.057
		c0.008,0.035,0.301-0.291,0.368-0.354c0.392-0.348,0.789-0.689,1.185-1.034c0.678-0.589,1.354-1.171,2.035-1.755
		c0.375-0.321,0.354-1.083-0.278-0.806C29.283,22.589,28.253,23.234,27.251,23.26z"/>
</g>
<g>
</g>
<g>
</g>
<g>
</g>
<g>
</g>
<g>
</g>
<g>
</g>
<g>
</g>
<g>
</g>
<g>
</g>
<g>
</g>
<g>
</g>
<g>
</g>
<g>
</g>
<g>
</g>
<g>
</g>
</svg>
