<?xml version="1.0" encoding="iso-8859-1"?>
<!-- Generator: Adobe Illustrator 18.1.1, SVG Export Plug-In . SVG Version: 6.00 Build 0)  -->
<svg version="1.1" id="Capa_1" xmlns="http://www.w3.org/2000/svg" xmlns:xlink="http://www.w3.org/1999/xlink" x="0px" y="0px"
	 viewBox="0 0 37.274 37.274" style="enable-background:new 0 0 37.274 37.274;" xml:space="preserve">
<g>
	<path style="fill:#010002;" d="M32.494,5.703l-0.613-0.565l-0.547,0.627C31.304,5.798,28.2,9.22,16.44,16.164
		c-9.938,5.867-13.434,6.379-14.133,6.418c-0.698,0.042-3.791-0.208-1.437,5.362c1.014,2.146,2.871,4.192,3.962,4.192
		c0.463,0,1.067-0.791,1.067-0.791c1.616-1.616,3.237-2.609,6.799-4.79c1.772-1.087,3.597-2.065,6.461-3.896
		c-0.027,0.754-0.415,2.465-0.809,3.479c-0.221,0.889-0.371,1.204-0.371,1.204l2.118-1.946l0.666,2.858c0,0,0.188-0.491,0.286-0.819
		c0.517-1.718,1.224-4.835,1.213-6.339c1.308,0.816,3.146,1.81,5.006,2.281c0.331,0.084,0.848,0.175,0.848,0.175l-2.106-2.041
		l2.759-0.813c0,0-0.345-0.036-1.222-0.304c-1.494-0.493-2.336-0.684-3.046-1.158c5.479-3.17,8.636-4.223,10.678-4.907
		c1.407-0.56,1.762-0.699,2.061-1.531C37.659,10.784,34.062,7.167,32.494,5.703z M6.123,29.22c-0.101-0.513-0.281-1.24-0.548-1.931
		c-0.476-1.235-1.637-2.795-2.298-3.493c2.214-0.649,7.172-2.243,13.532-5.969c0.858,0.084,2.224,1.437,2.106,2.933
		c0,0-5.349,3.49-6.978,4.487C9.573,26.698,7.376,28.276,6.123,29.22z M21.582,14.988c3.95-2.241,8.811-6.182,10.362-7.56
		c2.176,2.14,3.842,4.388,3.725,5.016c0,0-0.02,0.015-0.075,0.036c-0.288,0.101-0.596,0.205-0.928,0.314
		c-2.034,0.678-5.394,1.796-11.138,5.133C23.195,17.224,22.557,16.052,21.582,14.988z M1.933,27.441
		c-0.679-1.437-0.819-2.568-0.773-3.179c0.005-0.059,0.039-0.111,0.092-0.138c0.052-0.027,0.115-0.024,0.165,0.006
		c0.357,0.219,1.113,0.848,2.061,2.583c0.944,1.849,1.041,3.153,1.033,3.734c-0.001,0.065-0.04,0.124-0.099,0.151
		s-0.129,0.018-0.179-0.025C3.565,30.005,2.605,28.868,1.933,27.441z"/>
</g>
<g>
</g>
<g>
</g>
<g>
</g>
<g>
</g>
<g>
</g>
<g>
</g>
<g>
</g>
<g>
</g>
<g>
</g>
<g>
</g>
<g>
</g>
<g>
</g>
<g>
</g>
<g>
</g>
<g>
</g>
</svg>
