<?xml version="1.0" encoding="iso-8859-1"?>
<!-- Generator: Adobe Illustrator 18.1.1, SVG Export Plug-In . SVG Version: 6.00 Build 0)  -->
<svg version="1.1" id="Capa_1" xmlns="http://www.w3.org/2000/svg" xmlns:xlink="http://www.w3.org/1999/xlink" x="0px" y="0px"
	 viewBox="0 0 118.078 118.078" style="enable-background:new 0 0 118.078 118.078;" xml:space="preserve">
<g>
	<path style="fill:#010002;" d="M118.043,49.628c-0.854-5.354-17.048-7.462-39.195-5.834c-4.572-5.931-11.742-9.755-19.809-9.755
		c-10.888,0-20.145,6.963-23.575,16.676C13.913,56.057-0.819,63.098,0.035,68.452s17.048,7.461,39.196,5.832
		c4.571,5.931,11.741,9.755,19.808,9.755c10.889,0,20.146-6.962,23.575-16.676C104.166,62.021,118.896,54.981,118.043,49.628z
		 M82.068,49.294c12.828-0.537,20.395,0.799,20.709,2.769c0.314,1.969-6.466,5.595-18.833,9.076
		c0.058-0.693,0.095-1.393,0.095-2.101C84.039,55.582,83.337,52.289,82.068,49.294z M36.01,68.784
		c-12.828,0.537-20.395-0.799-20.708-2.769c-0.314-1.971,6.466-5.596,18.832-9.078c-0.058,0.693-0.094,1.392-0.094,2.1
		C34.039,62.496,34.741,65.789,36.01,68.784z M10.24,66.824c-0.64-4.014,9.304-9.171,24.438-13.392
		c-0.144,0.629-0.269,1.264-0.365,1.91c-12.158,3.35-21.061,7.354-20.493,10.912c0.567,3.555,10.275,4.592,22.873,3.991
		c0.291,0.579,0.6,1.149,0.934,1.702C21.933,72.644,10.88,70.836,10.24,66.824z M83.399,64.646c0.145-0.629,0.27-1.266,0.365-1.91
		c12.159-3.349,21.062-7.354,20.493-10.909c-0.566-3.557-10.274-4.593-22.872-3.994c-0.292-0.58-0.602-1.149-0.936-1.702
		c15.694-0.697,26.747,1.113,27.387,5.125C108.478,55.268,98.534,60.426,83.399,64.646z"/>
</g>
<g>
</g>
<g>
</g>
<g>
</g>
<g>
</g>
<g>
</g>
<g>
</g>
<g>
</g>
<g>
</g>
<g>
</g>
<g>
</g>
<g>
</g>
<g>
</g>
<g>
</g>
<g>
</g>
<g>
</g>
</svg>
