<?xml version="1.0" encoding="iso-8859-1"?>
<!-- Generator: Adobe Illustrator 18.1.1, SVG Export Plug-In . SVG Version: 6.00 Build 0)  -->
<svg version="1.1" id="Capa_1" xmlns="http://www.w3.org/2000/svg" xmlns:xlink="http://www.w3.org/1999/xlink" x="0px" y="0px"
	 viewBox="0 0 485.161 485.161" style="enable-background:new 0 0 485.161 485.161;" xml:space="preserve">
<g>
	<g>
		<path style="fill:#010002;" d="M140.172,201.967h220.61c40.672,0,60.254-40.228,58.659-74.058
			c-1.849-38.496-35.601-69.854-74.182-69.854c-2.297,0-4.629,0.111-6.818,0.36C324.549,24.198,291.062,0,251.798,0
			c-33.735,0-63.23,17.948-79.631,44.774c-7.872-2.556-16.28-3.962-25.023-3.962c-45.026,0-81.514,36.495-81.514,81.54
			C65.632,200.938,140.172,201.967,140.172,201.967z M153.687,169.423V78.558h7.061h52.445h118.19h0.046l0.002,45.978h0.044v50.714
			H153.687V169.423z"/>
		<path style="fill:#010002;" d="M316.882,98.814h-80.408c-1.217,0-2.203,0.987-2.203,2.204v35.292l-4.659,3.186v-2.091
			c0-8.921-6.961-15.767-19.874-15.767c-7.323,0-8.037,0-8.037,0l-6.73,11.121l-6.78-11.121h-7.732
			c-14.449,0-19.668,8.76-19.668,15.751l-0.037,32.033h11.771l0.05-29.276h3.862v29.276h36.892l-0.037-29.502h4.014v10.915
			c0,0,0,0.054,0,0.076c0,3.373,2.746,6.16,6.117,6.16c0.99,0,1.874-0.294,2.746-0.741l0.046,0.023l8.056-5.399v0.456
			c0,1.217,0.986,2.204,2.203,2.204h80.408c1.217,0,2.203-0.987,2.203-2.204v-50.393C319.085,99.801,318.099,98.814,316.882,98.814z
			 M314.678,149.207h-76.001v-1.213l3.738-2.512l2.694-1.833c3.204-2.049,3.769-5.243,2.456-7.609l32.289-22.6l-1.248-1.499
			l-32.494,22.1c-0.97-0.725-3.636-2.497-7.435-0.6v-30.22h76.001V149.207z"/>
		<path style="fill:#010002;" d="M195.115,118.976c7.741,0,14.041-6.301,14.041-14.065c0-7.774-6.303-14.087-14.041-14.087
			c-7.817,0-14.099,6.31-14.099,14.087C181.016,112.675,187.319,118.976,195.115,118.976z"/>
		<path style="fill:#010002;" d="M118.568,285.213c0-7.188-5.825-13.003-13.012-13.003c-7.187,0-13.012,5.816-13.012,13.003
			c0,7.186,5.825,13.021,13.012,13.021C112.743,298.233,118.568,292.4,118.568,285.213z"/>
		<path style="fill:#010002;" d="M156.502,234.575c0-14.069-11.399-25.468-25.468-25.468s-25.479,11.399-25.479,25.468
			c0,14.076,11.411,25.484,25.479,25.484S156.502,248.651,156.502,234.575z"/>
		<path style="fill:#010002;" d="M379.605,298.233c7.186,0,13.012-5.833,13.012-13.021s-5.825-13.003-13.012-13.003
			c-7.186,0-13.011,5.816-13.011,13.003C366.596,292.398,372.418,298.233,379.605,298.233z"/>
		<path style="fill:#010002;" d="M379.608,234.575c0-14.069-11.412-25.468-25.479-25.468c-14.068,0-25.468,11.399-25.468,25.468
			c0,14.076,11.399,25.484,25.468,25.484C368.195,260.059,379.608,248.651,379.608,234.575z"/>
		<path style="fill:#010002;" d="M459.841,451.318c0.359-0.894,0.563-1.865,0.563-2.885v-49.11l-2.838-0.759
			c-1.949,2.807-3.568,5.131-4.926,7.07l0.002,42.699h-165.69v-95.95h84.301c0.677-3.084,1.834-5.381,3.551-7.093
			c0.16-0.159,0.313-0.313,0.773-0.674h-88.625c-4.283,0-7.767,3.482-7.767,7.767v96.05c0,1.223,0.291,2.375,0.797,3.405
			l-11.603,20.959c-0.976,1.636-1.086,2.851-0.415,4.217c0.422,0.848,1.151,1.523,2.056,1.9l0.381,0.157
			c0,0,11.726,6.088,99.392,6.088s99.48-6.084,99.48-6.084l0.392-0.17c3.289-1.361,2.013-5.204,1.318-6.425L459.841,451.318z
			 M279.678,471.231l7.557-14.889h165.607l7.276,14.889H279.678z"/>
		<path style="fill:#010002;" d="M387.315,403.262c0.004,0.004,0.008,0.011,0.012,0.015l0.001-0.002
			c5.61,5.538,34.894,9.458,46.508,8.382c2.677-0.257,4.692-0.792,5.605-1.706c0.557-0.556,12.73-18.087,12.73-18.087l-3.996-0.97
			l-38.897-9.597l-9.594-38.897l-0.97-3.998c0,0-17.532,12.175-18.089,12.732c-0.914,0.91-1.453,2.929-1.706,5.607
			c-1.075,11.611,2.843,40.896,8.385,46.506l-0.002,0.002C387.307,403.251,387.31,403.256,387.315,403.262z"/>
		<polygon style="fill:#010002;" points="412.564,378.001 478.811,395.702 454.345,336.219 394.862,311.752 		"/>
		<polygon style="fill:#010002;" points="478.811,396.306 475.387,438.071 478.811,446.358 482.234,438.071 		"/>
		<path style="fill:#010002;" d="M205.179,451.839c0.506-1.03,0.798-2.183,0.798-3.405v-96.05c0-4.284-3.483-7.767-7.767-7.767
			h-88.625c0.461,0.361,0.613,0.515,0.772,0.674c1.717,1.712,2.874,4.009,3.552,7.093h84.301v95.95H32.52l0.003-42.699
			c-1.357-1.939-2.978-4.264-4.927-7.07l-2.837,0.759v49.11c0,1.02,0.203,1.991,0.562,2.885l-11.143,21.163
			c-0.694,1.221-1.97,5.063,1.318,6.425l0.393,0.17c0,0,11.813,6.084,99.479,6.084s99.393-6.088,99.393-6.088l0.381-0.157
			c0.903-0.377,1.632-1.053,2.054-1.9c0.67-1.366,0.562-2.581-0.414-4.217L205.179,451.839z M25.043,471.231l7.277-14.889h165.607
			l7.556,14.889H25.043z"/>
		<path style="fill:#010002;" d="M106.242,356.741c-0.251-2.679-0.792-4.697-1.706-5.607c-0.557-0.558-18.088-12.732-18.088-12.732
			l-0.97,3.998l-9.594,38.897l-38.898,9.597l-3.996,0.97c0,0,12.174,17.531,12.731,18.087c0.913,0.914,2.93,1.449,5.605,1.706
			c11.614,1.076,40.897-2.844,46.507-8.382l0.001,0.002c0.005-0.004,0.008-0.011,0.012-0.015c0.004-0.006,0.008-0.011,0.012-0.013
			l-0.002-0.002C103.399,397.637,107.318,368.352,106.242,356.741z"/>
		<polygon style="fill:#010002;" points="90.301,311.752 30.817,336.219 6.35,395.702 72.598,378.001 		"/>
		<polygon style="fill:#010002;" points="2.928,438.071 6.35,446.358 9.775,438.071 6.35,396.306 		"/>
	</g>
</g>
<g>
</g>
<g>
</g>
<g>
</g>
<g>
</g>
<g>
</g>
<g>
</g>
<g>
</g>
<g>
</g>
<g>
</g>
<g>
</g>
<g>
</g>
<g>
</g>
<g>
</g>
<g>
</g>
<g>
</g>
</svg>
