<?xml version="1.0" encoding="iso-8859-1"?>
<!-- Generator: Adobe Illustrator 18.1.1, SVG Export Plug-In . SVG Version: 6.00 Build 0)  -->
<svg version="1.1" id="Capa_1" xmlns="http://www.w3.org/2000/svg" xmlns:xlink="http://www.w3.org/1999/xlink" x="0px" y="0px"
	 viewBox="0 0 29.231 29.231" style="enable-background:new 0 0 29.231 29.231;" xml:space="preserve">
<g>
	<g>
		<rect x="0" y="8.337" style="fill:#010002;" width="2.987" height="4.714"/>
		<rect x="3.636" y="23.507" style="fill:#010002;" width="3.277" height="4.336"/>
		<rect x="26.244" y="8.337" style="fill:#010002;" width="2.987" height="4.714"/>
		<path style="fill:#010002;" d="M25.596,5.985H3.636v9.325L2.489,16.5v6.462h24.253V16.5l-1.146-1.188
			C25.596,15.311,25.596,5.985,25.596,5.985z M5.336,6.725h8.757v1.612h-1.629v0.906h1.629v3.987H5.336V6.725z M7.505,20.903
			c-1.015,0-1.837-0.823-1.837-1.838c0-1.014,0.822-1.838,1.837-1.838c1.017,0,1.84,0.824,1.84,1.838
			C9.345,20.08,8.522,20.903,7.505,20.903z M18.116,20.29h-7.001v-0.688h7.001V20.29z M18.116,18.999h-7.001V18.31h7.001V18.999z
			 M18.116,17.587h-7.001v-0.688h7.001V17.587z M21.727,20.903c-1.017,0-1.84-0.823-1.84-1.838c0-1.014,0.823-1.838,1.84-1.838
			c1.015,0,1.837,0.824,1.837,1.838C23.564,20.08,22.741,20.903,21.727,20.903z M23.896,13.229h-8.758V9.243h1.63V8.337h-1.63V6.725
			h8.758V13.229z"/>
		<rect x="22.318" y="23.507" style="fill:#010002;" width="3.277" height="4.336"/>
		<path style="fill:#010002;" d="M25.597,5.095v-1.71c0,0-2.339-1.997-4.012-1.997c-0.826,0-13.111,0-13.938,0
			c-1.674,0-4.012,1.997-4.012,1.997v1.71H25.597z M23.095,2.711c0.476,0,0.86,0.386,0.86,0.859c0,0.478-0.385,0.863-0.86,0.863
			c-0.478,0-0.862-0.385-0.862-0.863C22.233,3.098,22.618,2.711,23.095,2.711z M20.232,2.711c0.476,0,0.862,0.386,0.862,0.859
			c0,0.478-0.387,0.863-0.862,0.863c-0.474,0-0.862-0.385-0.862-0.863C19.369,3.098,19.758,2.711,20.232,2.711z M6.136,4.434
			c-0.475,0-0.86-0.385-0.86-0.863c0-0.473,0.385-0.859,0.86-0.859c0.477,0,0.863,0.386,0.863,0.859
			C6.999,4.049,6.614,4.434,6.136,4.434z M9,4.434c-0.475,0-0.863-0.385-0.863-0.863c0-0.473,0.388-0.859,0.863-0.859
			c0.474,0,0.862,0.386,0.862,0.859C9.862,4.049,9.474,4.434,9,4.434z"/>
	</g>
</g>
<g>
</g>
<g>
</g>
<g>
</g>
<g>
</g>
<g>
</g>
<g>
</g>
<g>
</g>
<g>
</g>
<g>
</g>
<g>
</g>
<g>
</g>
<g>
</g>
<g>
</g>
<g>
</g>
<g>
</g>
</svg>
