<?xml version="1.0" encoding="iso-8859-1"?>
<!-- Generator: Adobe Illustrator 18.1.1, SVG Export Plug-In . SVG Version: 6.00 Build 0)  -->
<svg version="1.1" id="Capa_1" xmlns="http://www.w3.org/2000/svg" xmlns:xlink="http://www.w3.org/1999/xlink" x="0px" y="0px"
	 viewBox="0 0 25.656 25.656" style="enable-background:new 0 0 25.656 25.656;" xml:space="preserve">
<g>
	<g>
		<circle style="fill:#010002;" cx="9.445" cy="22.26" r="2.218"/>
		<circle style="fill:#010002;" cx="19.122" cy="22.26" r="2.218"/>
		<path style="fill:#010002;" d="M11.05,9.229h-0.453l-1.092,3.789h2.672L11.05,9.229z M10.258,12.466c0,0,0.537-1.747,0.572-1.885
			c0.036,0.138,0.591,1.885,0.591,1.885H10.258z"/>
		<path style="fill:#010002;" d="M25.618,10.902c0.063-0.197,0.046-0.414-0.048-0.598c-0.095-0.185-0.259-0.325-0.456-0.389
			l-0.801-0.26c-0.2-0.063-0.418-0.046-0.604,0.054c-0.187,0.098-0.325,0.267-0.385,0.468l-1.005,3.381l-0.162,0.071
			C21,14.12,18.453,14.15,18.453,11.455c0-1.55,0.873-2.475,2.338-2.475c0.617,0,1.649,0.396,1.649,0.396l0.426-1.613
			c0,0-4.086-2.15-6.15,2.186c-0.487-0.237-1.088-0.343-1.972-0.343c-0.837,0-2.252,0.214-2.252,0.214l-0.545-1.677H9.803
			l-1.379,4.301L7.636,6.22C7.49,5.069,6.8,4.052,5.783,3.495c-1.08-0.592-2.609-1.404-4.317-2.229
			C1.244,1.16,0.988,1.149,0.759,1.239c-0.229,0.09-0.412,0.271-0.501,0.5c-0.065,0.164-0.13,0.327-0.195,0.49
			c-0.173,0.435,0.02,0.923,0.44,1.125c0.64,0.306,1.782,0.854,3.751,1.794c0,0,0.838,0.487,0.909,1.143
			c0.073,0.655,1.536,11.507,1.536,11.507s0.058,1.51,1.43,1.51h13.765c1.151,0,1.377-1.203,1.377-1.203L25.618,10.902z
			 M8.589,13.749l1.618-5.053h1.337l0.929,2.857v2.719l-0.247-0.774h-2.77L8.82,15.597L8.589,13.749z M12.473,16.692H8.958
			l-0.069-0.524h0.334l0.644-2.115h1.954l0.652,2.041V16.692z M14.378,16.174v-1.912c0.893,0,1.83,0.056,1.83,0.953
			C16.208,16.12,15.281,16.216,14.378,16.174z M16.886,16.693h-1.55c0.898-0.146,1.423-0.672,1.423-1.476
			c0-1.646-1.916-1.508-2.937-1.508l0.001,2.981h-0.799v-1.081h0.001v-5.325c0.413-0.063,1.057-0.121,1.717-0.121
			c0.849,0,1.394,0.101,1.823,0.334c-0.063,0.301-0.098,0.612-0.104,0.944c-0.149-0.396-0.553-0.825-1.588-0.825
			c-0.604,0-0.712,0.034-1.052,0.112v2.546c1.011,0,2.406,0.123,2.688-1.039c0.035,0.248,0.09,0.48,0.155,0.704
			c-0.21,0.127-0.328,0.166-0.539,0.242v0.442C17.901,14.077,18.089,15.791,16.886,16.693z M14.8,12.723h-0.422v-1.535
			C16.629,11.002,16.379,12.723,14.8,12.723z M21.409,16.692h-3.725c0.422-0.527,0.566-1.176,0.481-1.752
			c1.052,0.657,2.406,0.749,3.604,0.521L21.409,16.692z M21.954,14.849c-7.09,1.89-6.143-9.051,0.262-6.777l-0.148,0.557
			c-0.317-0.104-0.747-0.196-1.274-0.196c-4.244,0-3.938,7.323,1.371,5.762L21.954,14.849z"/>
	</g>
</g>
<g>
</g>
<g>
</g>
<g>
</g>
<g>
</g>
<g>
</g>
<g>
</g>
<g>
</g>
<g>
</g>
<g>
</g>
<g>
</g>
<g>
</g>
<g>
</g>
<g>
</g>
<g>
</g>
<g>
</g>
</svg>
