<?xml version="1.0" encoding="iso-8859-1"?>
<!-- Generator: Adobe Illustrator 18.1.1, SVG Export Plug-In . SVG Version: 6.00 Build 0)  -->
<svg version="1.1" id="Capa_1" xmlns="http://www.w3.org/2000/svg" xmlns:xlink="http://www.w3.org/1999/xlink" x="0px" y="0px"
	 viewBox="0 0 25.723 25.723" style="enable-background:new 0 0 25.723 25.723;" xml:space="preserve">
<g>
	<g>
		<path style="fill:#010002;" d="M23.317,10.771c0-4.733-3.261-9.131-7.93-10.694c-0.427-0.138-0.769-0.088-0.984,0.137
			c-0.236,0.249-0.23,0.609-0.23,0.641c0,0.63,0.292,0.869,0.479,0.96l0.711,0.282c0.411,0.179,0.807,0.37,0.807,0.37
			c0.014,0.007,0.814,0.45,1.188,0.758c2.488,1.854,3.973,4.678,3.973,7.547c0,5.212-4.357,9.613-9.516,9.613
			c-1.316,0-2.588-0.274-3.771-0.808l-1.006-0.528c-0.312-0.179-0.483-0.302-0.724-0.491l-0.59-0.376L5.679,18.16
			c-0.11-0.036-0.226-0.055-0.342-0.055c-0.416,0-0.719,0.23-0.751,0.258c-0.387,0.395-0.09,0.949,0.139,1.207
			c1.637,1.409,3.758,2.394,5.843,2.714l0.014,1.937l-1.408,0.34c-1.808,0.463-1.926,0.643-1.899,0.861
			c0.028,0.229,0.278,0.301,1.029,0.301c0.292,0,0.546-0.013,0.546-0.013l6.054-0.026c1.863,0,2.01-0.136,2.029-0.361
			c0.014-0.159,0.034-0.395-1.958-0.752l-1.982-0.383c0.005-0.34,0.014-1.157,0.016-1.872C18.708,21.595,23.317,16.45,23.317,10.771
			z M14.907,24.945c0.477,0.087,1.014,0.206,1.354,0.311c-0.247,0.023-0.661,0.045-1.358,0.045l-6.064,0.026
			c-0.002,0-0.25,0.016-0.536,0.016c-0.164,0-0.291-0.006-0.39-0.012c0.229-0.089,0.634-0.217,1.349-0.399l1.697-0.408l-0.017-2.574
			l-0.162-0.02c-2.067-0.285-4.185-1.25-5.793-2.631c-0.003-0.004-0.368-0.43-0.154-0.648c0.002,0,0.219-0.162,0.504-0.162
			c0.07,0,0.14,0.009,0.207,0.027l0.553,0.354c0.241,0.19,0.423,0.32,0.762,0.514L7.88,19.92c1.241,0.562,2.564,0.846,3.934,0.846
			c5.362,0,9.892-4.578,9.892-9.994c0-2.991-1.542-5.928-4.12-7.85c-0.394-0.323-1.203-0.772-1.246-0.795
			c0,0-0.406-0.195-0.834-0.385l-0.705-0.278C14.708,1.417,14.55,1.277,14.55,0.85c-0.002-0.065,0.018-0.261,0.125-0.37
			c0.114-0.12,0.321-0.13,0.596-0.041c4.516,1.514,7.669,5.762,7.669,10.333c0,5.453-4.644,10.575-10.14,11.187l-0.167,0.018v0.172
			c0,0.955-0.019,2.195-0.019,2.195l-0.001,0.16L14.907,24.945z"/>
		<path style="fill:#010002;" d="M11.435,19.708c4.979,0,9.031-4.051,9.031-9.029c0-4.981-4.051-9.03-9.031-9.03
			c-4.979-0.001-9.03,4.048-9.03,9.03C2.405,15.657,6.456,19.708,11.435,19.708z M11.435,2.665c4.419,0,8.013,3.593,8.013,8.014
			c0,4.417-3.594,8.013-8.013,8.013c-4.418,0-8.013-3.596-8.013-8.013C3.422,6.258,7.016,2.665,11.435,2.665z"/>
		<path style="fill:#010002;" d="M6.944,16.421c0.188,0.228,0.383,0.45,0.601,0.649c-0.489-1.036-0.898-2.074-1.22-3.126
			c0.368,0.156,0.745,0.294,1.13,0.411c0.36,0.109,0.727,0.198,1.095,0.273c0.406,1.229,0.962,2.4,1.688,3.458
			c-0.319-1.116-0.625-2.214-0.859-3.317c0.683,0.091,1.375,0.127,2.063,0.111c0.39-0.009,0.779-0.037,1.166-0.079
			c-0.237,1.123-0.547,2.243-0.873,3.383c0.733-1.068,1.294-2.254,1.701-3.497c0.665-0.113,1.319-0.274,1.958-0.479
			c0.33-0.106,0.656-0.223,0.977-0.354c-0.321,1.05-0.731,2.084-1.217,3.119c0.218-0.199,0.413-0.422,0.6-0.65
			c0.189-0.228,0.363-0.467,0.529-0.712c0.33-0.492,0.618-1.016,0.864-1.558c0.096-0.22,0.185-0.44,0.267-0.665
			c0.537-0.269,1.057-0.568,1.55-0.908c-0.46,0.132-0.917,0.263-1.373,0.385c0.229-0.746,0.375-1.522,0.411-2.312
			c0.037-0.783-0.041-1.579-0.233-2.342c0.44,0.12,0.883,0.245,1.328,0.371c-0.469-0.32-0.961-0.608-1.472-0.865
			c-0.081-0.251-0.172-0.497-0.28-0.735c-0.498-1.111-1.259-2.08-2.191-2.795c0.616,0.995,1.127,2.004,1.44,3.059
			c-0.35-0.141-0.706-0.272-1.067-0.388c-0.658-0.211-1.334-0.373-2.02-0.487c-0.178-0.536-0.392-1.059-0.65-1.558
			c-0.155-0.294-0.321-0.584-0.508-0.86c-0.186-0.276-0.384-0.544-0.615-0.783c0.27,0.602,0.48,1.214,0.66,1.831
			c0.123,0.418,0.228,0.84,0.318,1.263c-0.377-0.042-0.757-0.069-1.138-0.078C10.788,6.167,9.999,6.22,9.222,6.34
			C9.32,5.86,9.439,5.381,9.577,4.904c0.181-0.616,0.392-1.231,0.661-1.83c-0.231,0.238-0.429,0.508-0.614,0.782
			C9.437,4.134,9.271,4.422,9.116,4.718C8.822,5.287,8.583,5.887,8.391,6.503c-0.27,0.06-0.538,0.128-0.803,0.208
			C7.089,6.862,6.601,7.049,6.13,7.266c0.315-1.028,0.814-2.013,1.415-2.982C6.612,5.001,5.851,5.969,5.354,7.079
			C5.241,7.328,5.146,7.584,5.063,7.844C4.997,7.887,4.929,7.928,4.865,7.969C4.589,8.154,4.32,8.353,4.082,8.583
			C4.369,8.455,4.659,8.34,4.949,8.236C4.744,9.02,4.659,9.842,4.697,10.65c0.035,0.778,0.176,1.541,0.398,2.276
			c-0.385-0.13-0.768-0.274-1.146-0.445c0.239,0.232,0.508,0.431,0.784,0.615c0.171,0.114,0.349,0.223,0.528,0.326
			c0.089,0.247,0.186,0.487,0.292,0.727c0.245,0.546,0.533,1.067,0.863,1.56C6.582,15.953,6.756,16.194,6.944,16.421z M13.793,7.382
			c0.513,0.066,1.023,0.149,1.534,0.251c0.484,0.093,0.966,0.202,1.448,0.322c0.183,0.839,0.251,1.694,0.21,2.552
			c-0.041,0.879-0.188,1.755-0.41,2.621c-0.46,0.113-0.92,0.217-1.381,0.306c-0.489,0.099-0.979,0.179-1.47,0.244
			c0.243-0.982,0.385-1.997,0.409-3.015C14.159,9.561,14.047,8.455,13.793,7.382z M9.052,7.304c0.831-0.087,1.664-0.121,2.497-0.103
			c0.451,0.014,0.902,0.04,1.352,0.08c0.173,1.113,0.242,2.234,0.214,3.355c-0.026,1.052-0.136,2.1-0.314,3.146
			c-0.461,0.043-0.923,0.069-1.384,0.08c-0.744,0.019-1.487-0.006-2.229-0.073c-0.189-1.082-0.305-2.163-0.332-3.249
			C8.83,9.461,8.893,8.377,9.052,7.304z M5.713,10.604C5.671,9.701,5.747,8.795,5.955,7.912c0.603-0.174,1.21-0.318,1.82-0.426
			c0.123-0.022,0.247-0.042,0.371-0.061c-0.231,1.027-0.332,2.086-0.306,3.14c0.025,1.054,0.176,2.102,0.434,3.117
			c-0.21-0.032-0.422-0.064-0.632-0.102c-0.508-0.091-1.013-0.206-1.515-0.342C5.903,12.367,5.754,11.485,5.713,10.604z"/>
	</g>
</g>
<g>
</g>
<g>
</g>
<g>
</g>
<g>
</g>
<g>
</g>
<g>
</g>
<g>
</g>
<g>
</g>
<g>
</g>
<g>
</g>
<g>
</g>
<g>
</g>
<g>
</g>
<g>
</g>
<g>
</g>
</svg>
