<?xml version="1.0" encoding="iso-8859-1"?>
<!-- Generator: Adobe Illustrator 18.1.1, SVG Export Plug-In . SVG Version: 6.00 Build 0)  -->
<svg version="1.1" id="Capa_1" xmlns="http://www.w3.org/2000/svg" xmlns:xlink="http://www.w3.org/1999/xlink" x="0px" y="0px"
	 viewBox="0 0 28.354 28.354" style="enable-background:new 0 0 28.354 28.354;" xml:space="preserve">
<g>
	<g>
		<g>
			<g>
				<path style="fill:#010002;" d="M27.977,10.681c-1.006-4.717-3.674-8.14-6.349-8.14c-0.218,0-0.435,0.023-0.647,0.068
					c-0.914,0.195-1.672,0.801-2.245,1.697c-1.329-0.812-2.886-1.288-4.558-1.288c-1.673,0-3.23,0.477-4.558,1.288
					C9.045,3.41,8.288,2.805,7.373,2.609C7.162,2.564,6.946,2.541,6.729,2.541c-2.675,0-5.346,3.423-6.349,8.139
					c-0.502,2.347-0.506,4.667-0.013,6.533c0.547,2.068,1.649,3.377,3.106,3.688c0.211,0.045,0.429,0.067,0.646,0.067
					c0.438,0,0.875-0.097,1.305-0.272v0.295v1.979v1.421v1.423h17.508v-1.423V22.97v-1.979v-0.295
					c0.429,0.176,0.865,0.272,1.302,0.272c0.218,0,0.435-0.022,0.647-0.067c1.456-0.311,2.56-1.619,3.106-3.688
					C28.48,15.347,28.477,13.026,27.977,10.681z M3.834,19.211c-0.773-0.167-1.431-1.057-1.795-2.441
					c-0.426-1.608-0.414-3.643,0.031-5.729c0.891-4.183,3.112-6.77,4.658-6.77c0.095,0,0.193,0.01,0.286,0.029
					c0.462,0.101,0.885,0.471,1.229,1.048c-1.73,1.6-2.819,3.883-2.819,6.422v6.753v0.209C4.86,19.139,4.307,19.311,3.834,19.211z
					 M21.347,22.97H7.008v-1.979h6.466v-2.776h1.406v2.776h6.466L21.347,22.97L21.347,22.97z M26.315,16.77
					c-0.365,1.385-1.02,2.274-1.795,2.441c-0.473,0.1-1.025-0.071-1.587-0.478v-0.211V11.77c0-2.539-1.091-4.822-2.821-6.422
					c0.345-0.576,0.767-0.946,1.229-1.047c0.094-0.02,0.19-0.029,0.287-0.029c1.546,0,3.767,2.587,4.658,6.77
					C26.729,13.127,26.74,15.162,26.315,16.77z"/>
			</g>
		</g>
		<g>
			<g>
				<rect x="13.474" y="20.99" style="fill:#010002;" width="1.406" height="1.005"/>
			</g>
		</g>
	</g>
</g>
<g>
</g>
<g>
</g>
<g>
</g>
<g>
</g>
<g>
</g>
<g>
</g>
<g>
</g>
<g>
</g>
<g>
</g>
<g>
</g>
<g>
</g>
<g>
</g>
<g>
</g>
<g>
</g>
<g>
</g>
</svg>
