<?xml version="1.0" encoding="iso-8859-1"?>
<!-- Generator: Adobe Illustrator 18.1.1, SVG Export Plug-In . SVG Version: 6.00 Build 0)  -->
<svg version="1.1" id="Capa_1" xmlns="http://www.w3.org/2000/svg" xmlns:xlink="http://www.w3.org/1999/xlink" x="0px" y="0px"
	 viewBox="0 0 26.092 26.092" style="enable-background:new 0 0 26.092 26.092;" xml:space="preserve">
<g>
	<path style="fill:#010002;" d="M5.342,2.668h15.45v20.848l-1.775-0.001V4.347H5.342V2.668z M7.973,0v1.679h13.673v19.169
		l1.775,0.004V0H7.973z M4.445,5.242h13.676v19.17v1.68l-15.45-0.019V5.242H4.445z M6.34,16.982c1.26,1.537,3.456,1.853,5.087,0.796
		l3.651,4.714l1.141-0.867l-4.027-4.5c1.266-1.393,1.355-3.538,0.126-5.038c-1.352-1.651-3.785-1.893-5.435-0.542
		C5.234,12.897,4.991,15.331,6.34,16.982z M9.33,17.429c1.599,0,2.896-1.296,2.896-2.896s-1.296-2.896-2.896-2.896
		c-1.599,0-2.896,1.296-2.896,2.896S7.731,17.429,9.33,17.429z"/>
</g>
<g>
</g>
<g>
</g>
<g>
</g>
<g>
</g>
<g>
</g>
<g>
</g>
<g>
</g>
<g>
</g>
<g>
</g>
<g>
</g>
<g>
</g>
<g>
</g>
<g>
</g>
<g>
</g>
<g>
</g>
</svg>
