<?xml version="1.0" encoding="iso-8859-1"?>
<!-- Generator: Adobe Illustrator 18.1.1, SVG Export Plug-In . SVG Version: 6.00 Build 0)  -->
<svg version="1.1" id="Capa_1" xmlns="http://www.w3.org/2000/svg" xmlns:xlink="http://www.w3.org/1999/xlink" x="0px" y="0px"
	 viewBox="0 0 27.263 27.263" style="enable-background:new 0 0 27.263 27.263;" xml:space="preserve">
<g>
	<g>
		<path style="fill:#010002;" d="M21.675,0H5.584C3.678,0,2.137,1.653,2.137,3.692v19.883c0,2.039,1.542,3.688,3.448,3.688h16.093
			c1.905,0,3.449-1.649,3.449-3.688V3.692C25.125,1.652,23.581,0,21.675,0z M23.743,23.896c0,1.057-0.8,1.911-1.782,1.911H5.301
			c-0.985,0-1.784-0.854-1.784-1.911V3.371c0-1.055,0.799-1.912,1.784-1.912H21.96c0.983,0,1.782,0.856,1.782,1.912L23.743,23.896
			L23.743,23.896z"/>
		<path style="fill:#010002;" d="M4.521,11.091h18.203V3.002H4.521V11.091z M4.955,3.433h17.337v7.223H4.955V3.433z"/>
		<path style="fill:#010002;" d="M11.083,4.527H9.024c-0.293,0-0.489,0.196-0.489,0.489c0,0.29,0.196,0.487,0.489,0.487h1.871V6.31
			c0,0.25-0.072,0.25-0.11,0.25H9.611c-0.293,0-0.486,0.197-0.486,0.487c0,0.292,0.193,0.487,0.486,0.487h1.175
			c0.038,0,0.11,0,0.11,0.249V8.59H9.024c-0.293,0-0.489,0.196-0.489,0.487c0,0.292,0.196,0.487,0.489,0.487h2.058
			c0.449,0,0.789-0.338,0.789-0.787v-1.15c0-0.189-0.022-0.388-0.168-0.583c0.144-0.192,0.168-0.391,0.168-0.58v-1.15
			C11.871,4.866,11.531,4.527,11.083,4.527z"/>
		<path style="fill:#010002;" d="M13.215,8.438h-0.274c-0.093,0-0.205,0-0.292,0.12c-0.066,0.088-0.066,0.164-0.066,0.241v0.213
			c0,0.079,0,0.152,0.063,0.241c0.09,0.121,0.203,0.121,0.295,0.121h0.274c0.088,0,0.203,0,0.292-0.121
			c0.062-0.09,0.062-0.162,0.062-0.241V8.799c0-0.078,0-0.153-0.062-0.239C13.418,8.438,13.307,8.438,13.215,8.438z"/>
		<path style="fill:#010002;" d="M17.123,7.082c-0.301,0-0.485,0.184-0.485,0.486V8.59h-0.207V4.527h-1.668
			c-0.291,0-0.487,0.196-0.487,0.489c0,0.29,0.196,0.487,0.487,0.487h0.694V8.59h-0.694c-0.291,0-0.487,0.196-0.487,0.487
			c0,0.292,0.196,0.487,0.487,0.487h2.36c0.293,0,0.487-0.195,0.487-0.487V7.568C17.611,7.266,17.424,7.082,17.123,7.082z"/>
		<path style="fill:#010002;" d="M18.015,5.016v0.299c0,0.234,0.187,0.486,0.486,0.486c0.221,0,0.381-0.134,0.447-0.298h1.427v0.68
			c0,0.058,0.001,0.121-0.006,0.135C20.361,6.337,20.3,6.39,20.253,6.429l-0.828,0.716c-0.188,0.165-0.221,0.233-0.221,0.487v1.443
			c0,0.31,0.182,0.487,0.486,0.487c0.309,0,0.488-0.178,0.488-0.487v-1.16c0-0.027,0-0.11,0.008-0.127
			c0.008-0.014,0.057-0.056,0.096-0.092l0.838-0.724c0.206-0.176,0.227-0.256,0.227-0.519V4.527H18.5
			C18.202,4.527,18.015,4.78,18.015,5.016z"/>
		<path style="fill:#010002;" d="M10.837,12.424H5.835c-0.726,0-1.314,0.588-1.314,1.314v2.681c0,0.727,0.588,1.313,1.314,1.313
			h5.001c0.726,0,1.314-0.588,1.314-1.313v-2.681C12.151,13.012,11.562,12.424,10.837,12.424z M10.345,15.548H6.328v-0.941h4.017
			L10.345,15.548L10.345,15.548z"/>
		<path style="fill:#010002;" d="M10.837,18.954H5.835c-0.726,0-1.314,0.588-1.314,1.314v2.68c0,0.726,0.588,1.313,1.314,1.313
			h5.001c0.726,0,1.314-0.588,1.314-1.313v-2.68C12.151,19.542,11.562,18.954,10.837,18.954z M10.345,22.077H8.807v1.537H7.865
			v-1.537H6.328v-0.94h1.538v-1.536h0.941v1.536h1.538L10.345,22.077L10.345,22.077z"/>
		<path style="fill:#010002;" d="M21.316,12.408h-5.002c-0.725,0-1.313,0.588-1.313,1.314v9.21c0,0.726,0.588,1.313,1.313,1.313
			h5.002c0.726,0,1.313-0.588,1.313-1.313v-9.21C22.628,12.997,22.04,12.408,21.316,12.408z M20.823,19.713h-4.018v-0.94h4.018
			V19.713z M20.823,17.883h-4.018v-0.94h4.018V17.883z"/>
	</g>
</g>
<g>
</g>
<g>
</g>
<g>
</g>
<g>
</g>
<g>
</g>
<g>
</g>
<g>
</g>
<g>
</g>
<g>
</g>
<g>
</g>
<g>
</g>
<g>
</g>
<g>
</g>
<g>
</g>
<g>
</g>
</svg>
