<?xml version="1.0" encoding="iso-8859-1"?>
<!-- Generator: Adobe Illustrator 18.1.1, SVG Export Plug-In . SVG Version: 6.00 Build 0)  -->
<svg version="1.1" id="Capa_1" xmlns="http://www.w3.org/2000/svg" xmlns:xlink="http://www.w3.org/1999/xlink" x="0px" y="0px"
	 viewBox="0 0 26.168 26.168" style="enable-background:new 0 0 26.168 26.168;" xml:space="preserve">
<g>
	<path style="fill:#010002;" d="M23.233,4.087c-0.037-0.038-1.899-1.705-4.296-0.76l-1.869-1.756
		c-0.597-0.558-1.439-0.681-2.148-0.387c-1.381-0.893-2.767-1.283-4.145-1.162C7.193,0.344,5.091,4.01,5.004,4.168
		C1.341,10.707,4.42,19.177,6.448,23.112H4.396c-0.956,0-1.73,0.774-1.73,1.73v1.326h9.926v-1.326c0-0.956-0.774-1.73-1.73-1.73
		H7.787C5.815,19.521,2.452,11.157,6.039,4.751c0.019-0.033,1.892-3.284,4.85-3.544c1.009-0.085,2.038,0.178,3.084,0.787
		c-0.485,0.797-0.367,1.851,0.34,2.514l1.882,1.767c-0.486,2.248,0.719,3.911,0.831,4.022c0.179,0.179,0.429,0.27,0.739,0.27
		c0.93,0,2.357-0.826,3.635-2.104c0.807-0.805,1.447-1.685,1.805-2.476C23.589,5.129,23.601,4.454,23.233,4.087z M22.796,5.802
		c-0.336,0.744-0.944,1.576-1.713,2.345c-1.181,1.18-2.515,1.973-3.318,1.973c-0.126,0-0.223-0.028-0.305-0.069l5.522-5.524
		C23.109,4.786,23.052,5.239,22.796,5.802z"/>
</g>
<g>
</g>
<g>
</g>
<g>
</g>
<g>
</g>
<g>
</g>
<g>
</g>
<g>
</g>
<g>
</g>
<g>
</g>
<g>
</g>
<g>
</g>
<g>
</g>
<g>
</g>
<g>
</g>
<g>
</g>
</svg>
