<?xml version="1.0" encoding="iso-8859-1"?>
<!-- Generator: Adobe Illustrator 18.1.1, SVG Export Plug-In . SVG Version: 6.00 Build 0)  -->
<svg version="1.1" id="Capa_1" xmlns="http://www.w3.org/2000/svg" xmlns:xlink="http://www.w3.org/1999/xlink" x="0px" y="0px"
	 viewBox="0 0 490.98 490.98" style="enable-background:new 0 0 490.98 490.98;" xml:space="preserve">
<g>
	<g>
		<path style="fill:#010002;" d="M135.643,83.013c22.938,0,41.494-18.647,41.494-41.511C177.137,18.614,158.566,0,135.643,0
			C112.721,0,94.14,18.613,94.14,41.502C94.14,64.366,112.704,83.013,135.643,83.013z"/>
		<polygon style="fill:#010002;" points="189.137,233.969 298.607,233.969 298.607,490.458 345.681,490.458 345.681,233.969 
			455.75,233.969 455.75,194.418 189.137,194.418 		"/>
		<path style="fill:#010002;" d="M244.631,264.919H131.219l11.564-81.625l118.587,0.018l0,0c2.482,0,4.498-2.012,4.5-4.496
			l0.031-31.547c0.002-1.194-0.471-2.34-1.316-3.185c-0.844-0.845-1.988-1.32-3.184-1.32h-111.65l5.287-41.82
			c0.162-1.282-0.234-2.571-1.089-3.54c-0.854-0.969-2.084-1.524-3.376-1.524h-43.868c-1.621,0-3.117,0.872-3.916,2.283
			c-0.372,0.656-0.687,1.427-0.911,2.207l-70.09,211.926c-0.453,1.372-0.221,2.878,0.625,4.049c0.847,1.171,2.203,1.864,3.647,1.864
			h159.818l-0.104,161.815c-0.001,1.194,0.473,2.34,1.316,3.184c0.845,0.845,1.989,1.319,3.184,1.319l44.509-0.004
			c1.194,0,2.339-0.475,3.183-1.319s1.318-1.99,1.316-3.184l-0.152-210.605C249.129,266.931,247.115,264.919,244.631,264.919z"/>
		<polygon style="fill:#010002;" points="40.731,351.847 98.332,351.847 98.332,490.98 123.097,490.98 123.097,351.847 181,351.847 
			181,331.062 40.731,331.062 		"/>
		<polygon style="fill:#010002;" points="401.859,187.452 459.42,85.614 441.847,75.692 389.64,167.946 284.017,167.946 
			284.017,188.159 401.859,188.159 		"/>
	</g>
</g>
<g>
</g>
<g>
</g>
<g>
</g>
<g>
</g>
<g>
</g>
<g>
</g>
<g>
</g>
<g>
</g>
<g>
</g>
<g>
</g>
<g>
</g>
<g>
</g>
<g>
</g>
<g>
</g>
<g>
</g>
</svg>
