<?xml version="1.0" encoding="iso-8859-1"?>
<!-- Generator: Adobe Illustrator 18.1.1, SVG Export Plug-In . SVG Version: 6.00 Build 0)  -->
<svg version="1.1" id="Capa_1" xmlns="http://www.w3.org/2000/svg" xmlns:xlink="http://www.w3.org/1999/xlink" x="0px" y="0px"
	 viewBox="0 0 491.726 491.726" style="enable-background:new 0 0 491.726 491.726;" xml:space="preserve">
<g>
	<g>
		<rect x="99.807" y="188.573" style="fill:#010002;" width="171.816" height="9.631"/>
		<rect x="99.807" y="223.092" style="fill:#010002;" width="171.816" height="9.629"/>
		<rect x="99.807" y="254.755" style="fill:#010002;" width="171.816" height="9.662"/>
		<rect x="99.807" y="289.304" style="fill:#010002;" width="171.816" height="9.58"/>
		<path style="fill:#010002;" d="M306.707,440.69c-3.336-3.37-10.058-10.715-13.755-18.486H80.197V40.147h173.145v129.521
			l47.979-35.057l46.146,35.057V40.147h24.924v233.95c0.405,1.207,0.726,2.422,0.939,3.632c0.573,2.716,1.197,8.741,3.61,35.252
			c0.613,6.737,1.334,14.664,1.984,21.446c0.778-0.06,1.569-0.092,2.372-0.092c5.163,0,13.538,1.382,20.597,8.948
			c1.34-0.206,2.762-0.323,4.226-0.358V33.358C406.119,14.251,391.196,0,372.777,0H79.793C61.307,0,46.435,14.233,46.435,33.358
			v425.011c0,18.4,14.889,33.357,33.358,33.357h254.094l5.883-8.019c1.671-2.336,3.271-5.802,3.648-7.766
			C338.834,471.974,321.907,457.092,306.707,440.69z M226.286,479.19c-10.94,0-19.797-8.84-19.797-19.779
			c0-10.925,8.856-19.849,19.797-19.849c11.008,0,19.864,8.94,19.864,19.849C246.116,470.368,237.243,479.19,226.286,479.19z"/>
		<path style="fill:#010002;" d="M422.251,369.285c-7.209-20.924-25.964-10.083-25.964-10.083
			c-9.378-20.938-28.838-6.537-28.838-6.537c-1.093-2.369-6.336-68.635-7.378-72.313c-1.479-10.017-18.217-21.932-19.611,5.21
			c-1.093,51.393,0.59,77.943,0.59,77.943c0.084,4.233,3.966,47.509-5.8,47.86c-5.395,0.388-20.167-34.973-20.503-35.51
			c-11.092-21.526-21.293-2.672-16.114,14.065c0.604,3.107,2.485,2.504,5.358,23.427c1.647,7.143,12.453,17.999,12.453,17.999
			c17.092,18.47,36.889,35.324,36.889,35.324c9.578,8.303-2.688,25.022-2.688,25.022s69.222,0.033,74.666,0.033
			c11.896-21.895,19.98-97.2,19.98-97.2C445.46,370.294,422.251,369.285,422.251,369.285z"/>
	</g>
</g>
<g>
</g>
<g>
</g>
<g>
</g>
<g>
</g>
<g>
</g>
<g>
</g>
<g>
</g>
<g>
</g>
<g>
</g>
<g>
</g>
<g>
</g>
<g>
</g>
<g>
</g>
<g>
</g>
<g>
</g>
</svg>
