<?xml version="1.0" encoding="iso-8859-1"?>
<!-- Generator: Adobe Illustrator 18.1.1, SVG Export Plug-In . SVG Version: 6.00 Build 0)  -->
<svg version="1.1" id="Capa_1" xmlns="http://www.w3.org/2000/svg" xmlns:xlink="http://www.w3.org/1999/xlink" x="0px" y="0px"
	 viewBox="0 0 29.682 29.682" style="enable-background:new 0 0 29.682 29.682;" xml:space="preserve">
<g>
	<g>
		<polygon style="fill:#010002;" points="26.514,0.393 22.714,1.699 22.994,2.511 11.575,6.437 12.055,7.835 1.915,11.32 
			2.434,12.83 0,13.666 0.611,15.442 3.044,14.605 3.563,16.115 13.704,12.626 14.184,14.024 25.603,10.099 25.881,10.911 
			29.682,9.605 		"/>
		<path style="fill:#010002;" d="M18.053,17.617v-2.255h-1.795c-0.214-0.296-0.556-0.521-0.957-0.645v-0.034l-0.021,0.028
			c-0.195-0.061-0.4-0.102-0.622-0.102c-0.688,0-1.279,0.305-1.602,0.751h-1.795v2.255h1.805L4.175,29.289h1.821l8.017-10.527
			v10.493H15.3V18.762l8.017,10.527h2.278l-9.296-11.673L18.053,17.617L18.053,17.617z"/>
	</g>
</g>
<g>
</g>
<g>
</g>
<g>
</g>
<g>
</g>
<g>
</g>
<g>
</g>
<g>
</g>
<g>
</g>
<g>
</g>
<g>
</g>
<g>
</g>
<g>
</g>
<g>
</g>
<g>
</g>
<g>
</g>
</svg>
