<?xml version="1.0" encoding="iso-8859-1"?>
<!-- Generator: Adobe Illustrator 18.1.1, SVG Export Plug-In . SVG Version: 6.00 Build 0)  -->
<svg version="1.1" id="Capa_1" xmlns="http://www.w3.org/2000/svg" xmlns:xlink="http://www.w3.org/1999/xlink" x="0px" y="0px"
	 viewBox="0 0 35.444 35.444" style="enable-background:new 0 0 35.444 35.444;" xml:space="preserve">
<g>
	<path style="fill:#010002;" d="M21.843,22.58c0.196-0.191,0.252-0.481,0.148-0.736c-0.104-0.249-0.349-0.413-0.625-0.413H0.744
		c-0.377,0-0.675,0.303-0.675,0.672v6.896c0,0.37,0.299,0.671,0.675,0.671h20.623c0.004,0,0.004,0,0.004,0
		c0.375,0,0.68-0.303,0.68-0.671c0-0.164-0.061-0.313-0.153-0.43C21.604,28.087,19.704,24.72,21.843,22.58z M1.002,28.443v-5.785
		h19.414c-0.425,0.788-0.583,1.614-0.583,2.414H5.163c-0.27,0-0.482,0.219-0.482,0.481c0,0.264,0.212,0.479,0.482,0.479h14.743
		c0.138,0.938,0.451,1.785,0.734,2.41L1.002,28.443L1.002,28.443z M0.671,20.318h20.626c0.005,0,0.005,0,0.005,0
		c0.376,0,0.678-0.304,0.678-0.674c0-0.164-0.059-0.312-0.155-0.427c-0.293-0.486-2.192-3.853-0.053-5.992
		c0.197-0.192,0.251-0.481,0.149-0.738c-0.105-0.25-0.352-0.412-0.626-0.412H0.671C0.298,12.075,0,12.376,0,12.747v6.895
		C0,20.014,0.298,20.318,0.671,20.318z M0.932,13.301h19.414c-0.426,0.788-0.586,1.613-0.586,2.414H5.092
		c-0.271,0-0.482,0.217-0.482,0.48c0,0.264,0.211,0.481,0.482,0.481h14.742c0.142,0.938,0.453,1.784,0.736,2.411H0.932V13.301z
		 M35.42,26.162L29.952,6.277c-0.001-0.003-0.001-0.003-0.001-0.003c-0.102-0.362-0.473-0.575-0.83-0.475
		c-0.158,0.043-0.276,0.145-0.371,0.261c-0.358,0.44-3.135,3.135-5.765,1.642c-0.237-0.14-0.53-0.114-0.75,0.051
		C22.023,7.922,21.93,8.2,22.004,8.465l5.467,19.885c0.1,0.361,0.471,0.569,0.827,0.469l6.649-1.827
		C35.305,26.892,35.519,26.525,35.42,26.162z M28.587,27.773L23.441,9.054c0.871,0.198,1.711,0.132,2.48-0.079l3.889,14.146
		c0.072,0.262,0.337,0.407,0.59,0.337c0.256-0.068,0.407-0.331,0.336-0.589l-3.91-14.217c0.871-0.383,1.604-0.909,2.132-1.349
		l5.207,18.937L28.587,27.773z"/>
</g>
<g>
</g>
<g>
</g>
<g>
</g>
<g>
</g>
<g>
</g>
<g>
</g>
<g>
</g>
<g>
</g>
<g>
</g>
<g>
</g>
<g>
</g>
<g>
</g>
<g>
</g>
<g>
</g>
<g>
</g>
</svg>
