<?xml version="1.0" encoding="iso-8859-1"?>
<!-- Generator: Adobe Illustrator 18.1.1, SVG Export Plug-In . SVG Version: 6.00 Build 0)  -->
<svg version="1.1" id="Capa_1" xmlns="http://www.w3.org/2000/svg" xmlns:xlink="http://www.w3.org/1999/xlink" x="0px" y="0px"
	 viewBox="0 0 32.301 32.301" style="enable-background:new 0 0 32.301 32.301;" xml:space="preserve">
<g>
	<path style="fill:#010002;" d="M19.115,13.988l0.854-4.478h-7.68l0.858,4.495c0.342-0.149,0.731-0.245,1.17-0.281
		c-0.246-0.371-0.391-0.813-0.391-1.292c0-1.293,1.051-2.347,2.346-2.347c1.294,0,2.348,1.054,2.348,2.347
		c0,0.482-0.146,0.929-0.396,1.302C18.506,13.776,18.813,13.858,19.115,13.988z M11.105,7.649h10.048v1.477H11.105V7.649z M16.223,0
		c0.849,0,1.537,0.688,1.537,1.537s-0.688,1.537-1.537,1.537c-0.849,0-1.537-0.688-1.537-1.537S15.374,0,16.223,0z M12.475,7.368
		h1.299V5.516h0.407l-0.003,1.852h3.89V5.497l0.419,0.002v1.869h1.298V5.233c-0.143-1.685-2.098-1.662-2.098-1.662h-1.043
		l-0.421,0.688l-0.421-0.688h-1.198c-2.206,0.041-2.129,1.662-2.129,1.662L12.475,7.368z M7.728,10.712
		c0.964,0,1.746,0.782,1.746,1.746s-0.782,1.746-1.746,1.746s-1.746-0.782-1.746-1.746S6.764,10.712,7.728,10.712z M16.255,10.712
		c0.964,0,1.746,0.782,1.746,1.746s-0.782,1.746-1.746,1.746s-1.746-0.782-1.746-1.746S15.291,10.712,16.255,10.712z M24.785,13.983
		c0.962,0,1.744-0.784,1.744-1.745c0-0.967-0.782-1.749-1.744-1.749c-0.964,0-1.748,0.782-1.748,1.749
		C23.037,13.199,23.821,13.983,24.785,13.983z M13.473,18.303h0.461h4.413h0.48h1.474v-1.649c-0.16-1.912-2.382-1.887-2.382-1.887
		H14.42c-2.51,0.048-2.422,1.887-2.422,1.887v1.649H13.473z M3.477,18.303H4.95h0.461h4.415h0.478h1.472v-1.649
		c-0.158-1.912-2.38-1.887-2.38-1.887H5.893c-2.507,0.048-2.415,1.887-2.415,1.887L3.477,18.303L3.477,18.303z M31.552,21.951v-2.89
		h-2.726h-1.474h-0.478h-4.415h-0.463h-1.473h-0.228h-1.473h-0.479h-4.414h-0.461h-1.475h-0.22h-1.476H9.822H5.404H4.943H3.471
		H0.748v2.89h3.185v8.75h-1.25v1.6h26.745v-1.6h-1.066v-8.75C28.362,21.951,31.552,21.951,31.552,21.951z M20.53,16.433v1.87h1.473
		h0.463h4.413h0.479h1.474v-1.87c-0.159-1.913-2.383-1.886-2.383-1.886h-3.501C20.439,14.596,20.53,16.433,20.53,16.433z"/>
</g>
<g>
</g>
<g>
</g>
<g>
</g>
<g>
</g>
<g>
</g>
<g>
</g>
<g>
</g>
<g>
</g>
<g>
</g>
<g>
</g>
<g>
</g>
<g>
</g>
<g>
</g>
<g>
</g>
<g>
</g>
</svg>
