<?xml version="1.0" encoding="iso-8859-1"?>
<!-- Generator: Adobe Illustrator 18.1.1, SVG Export Plug-In . SVG Version: 6.00 Build 0)  -->
<svg version="1.1" id="Capa_1" xmlns="http://www.w3.org/2000/svg" xmlns:xlink="http://www.w3.org/1999/xlink" x="0px" y="0px"
	 viewBox="0 0 39.318 39.318" style="enable-background:new 0 0 39.318 39.318;" xml:space="preserve">
<g>
	<path style="fill:#010002;" d="M0.103,21.546h39.215v3.353h-2.805c0-1.826-1.483-3.31-3.312-3.31c-1.829,0-3.31,1.48-3.31,3.31
		H9.615c0-1.826-1.481-3.31-3.312-3.31c-1.824,0-3.31,1.48-3.31,3.31h-2.85C0.144,24.898-0.15,23.125,0.103,21.546z M39.318,16.807
		v4.114H2.727v-0.92H1.2v0.92H0.24c0.185-0.658,0.493-1.229,1.009-1.541C3.087,18.276,5.9,17.806,5.9,17.806s2.304-2.969,4.58-4.84
		h-0.471c-0.409,0-0.744-0.335-0.744-0.748s0.335-0.747,0.744-0.747h3.374h0.193c3.2,0,22.091,0,23.533,0
		C38.583,11.472,39.318,16.807,39.318,16.807z M16.925,12.966c0,0-1.941,0-3.348,0h-0.515c-1.379,0-4.275,3.677-4.275,3.677h8.139
		L16.925,12.966L16.925,12.966z M24.972,12.966h-6.394v3.677h6.394C24.972,16.643,24.972,12.966,24.972,12.966z M32.006,12.922
		h-6.245v3.681h6.245V12.922z M37.478,16.643l-0.828-3.677h-3.861v3.677H37.478z M9.171,24.898c0,1.631-1.316,2.948-2.945,2.948
		s-2.948-1.319-2.948-2.948c0-1.627,1.32-2.947,2.948-2.947S9.171,23.271,9.171,24.898z M7.518,24.898
		c0-0.711-0.58-1.291-1.292-1.291c-0.713,0-1.293,0.58-1.293,1.291c0,0.713,0.58,1.293,1.293,1.293S7.518,25.611,7.518,24.898z
		 M36.055,24.898c0,1.631-1.319,2.948-2.948,2.948c-1.628,0-2.946-1.319-2.946-2.948c0-1.627,1.318-2.947,2.946-2.947
		C34.735,21.952,36.055,23.271,36.055,24.898z M34.398,24.898c0-0.711-0.578-1.291-1.291-1.291c-0.711,0-1.291,0.58-1.291,1.291
		c0,0.713,0.58,1.293,1.291,1.293C33.82,26.191,34.399,25.611,34.398,24.898z M9.823,26.137h20.25v-0.965H9.823
		C9.823,25.172,9.823,26.137,9.823,26.137z M1.2,20.966h1.524v-0.045H1.2V20.966z"/>
</g>
<g>
</g>
<g>
</g>
<g>
</g>
<g>
</g>
<g>
</g>
<g>
</g>
<g>
</g>
<g>
</g>
<g>
</g>
<g>
</g>
<g>
</g>
<g>
</g>
<g>
</g>
<g>
</g>
<g>
</g>
</svg>
