<?xml version="1.0" encoding="iso-8859-1"?>
<!-- Generator: Adobe Illustrator 18.1.1, SVG Export Plug-In . SVG Version: 6.00 Build 0)  -->
<svg version="1.1" id="Capa_1" xmlns="http://www.w3.org/2000/svg" xmlns:xlink="http://www.w3.org/1999/xlink" x="0px" y="0px"
	 viewBox="0 0 28.199 28.199" style="enable-background:new 0 0 28.199 28.199;" xml:space="preserve">
<g>
	<g>
		<path style="fill:#1C1B19;" d="M24.974,15.054H3.222C1.445,15.054,0,16.497,0,18.278c0,1.774,1.445,3.222,3.222,3.222h21.752
			c1.775,0,3.225-1.443,3.225-3.222C28.198,16.497,26.75,15.054,24.974,15.054z M24.974,20.894h-9
			c0.976-0.476,1.647-1.463,1.647-2.617c0-1.155-0.677-2.146-1.647-2.619h9c1.444,0,2.618,1.175,2.618,2.619
			C27.592,19.719,26.418,20.894,24.974,20.894z M12.985,10.577c-0.076-0.071-0.124-0.172-0.124-0.285
			c0-0.214,0.173-0.388,0.387-0.388c0.002,0,0.004,0,0.004,0h1.79V7.089C15.041,6.873,15.213,6.7,15.427,6.7h1.45
			c0.213,0,0.388,0.173,0.386,0.389v2.814h1.788c0.152,0,0.289,0.088,0.353,0.227c0.063,0.139,0.039,0.301-0.057,0.416l-2.902,3.354
			c-0.071,0.085-0.182,0.134-0.293,0.134c-0.11,0-0.221-0.049-0.293-0.134L12.985,10.577z"/>
	</g>
</g>
<g>
</g>
<g>
</g>
<g>
</g>
<g>
</g>
<g>
</g>
<g>
</g>
<g>
</g>
<g>
</g>
<g>
</g>
<g>
</g>
<g>
</g>
<g>
</g>
<g>
</g>
<g>
</g>
<g>
</g>
</svg>
