<?xml version="1.0" encoding="iso-8859-1"?>
<!-- Generator: Adobe Illustrator 18.1.1, SVG Export Plug-In . SVG Version: 6.00 Build 0)  -->
<svg version="1.1" id="Capa_1" xmlns="http://www.w3.org/2000/svg" xmlns:xlink="http://www.w3.org/1999/xlink" x="0px" y="0px"
	 viewBox="0 0 25.873 25.873" style="enable-background:new 0 0 25.873 25.873;" xml:space="preserve">
<g>
	<g>
		<g>
			<path style="fill:#010002;" d="M1.294,23.146h12.363c-0.116-0.447-0.185-0.909-0.204-1.386H1.988V4.18h17.58v10.634
				c0.189-0.017,0.38-0.029,0.572-0.029c0.276,0,0.545,0.021,0.812,0.054V3.488c0-0.382-0.31-0.693-0.692-0.693H1.294
				c-0.382-0.001-0.693,0.31-0.693,0.693v18.965C0.601,22.836,0.912,23.146,1.294,23.146z"/>
			<path style="fill:#010002;" d="M14.435,21.76h-0.981c0.02,0.477,0.088,0.939,0.204,1.386h1.011
				C14.534,22.705,14.457,22.24,14.435,21.76z"/>
		</g>
		<g>
			<path style="fill:#010002;" d="M19.576,14.48c-3.141,0-5.695,2.556-5.695,5.696c0,3.141,2.555,5.697,5.695,5.697
				c3.143,0,5.696-2.556,5.696-5.697C25.271,17.036,22.717,14.48,19.576,14.48z M19.576,25.04c-2.682,0-4.863-2.182-4.863-4.863
				s2.182-4.862,4.863-4.862s4.863,2.182,4.863,4.862C24.438,22.858,22.255,25.04,19.576,25.04z"/>
			<path style="fill:#010002;" d="M18.371,17.021c-0.104-0.07-0.238-0.078-0.347-0.02c-0.111,0.058-0.182,0.172-0.182,0.297v5.756
				c0,0.125,0.07,0.24,0.182,0.297c0.05,0.026,0.103,0.04,0.157,0.04c0.065,0,0.133-0.021,0.189-0.059l4.195-2.878
				c0.092-0.063,0.148-0.167,0.148-0.278c0-0.11-0.057-0.214-0.148-0.277L18.371,17.021z"/>
		</g>
		<g>
			<g>
				<path style="fill:#010002;" d="M9.726,9.119c-2.108,0-3.817,1.709-3.817,3.817s1.709,3.817,3.817,3.817s3.816-1.709,3.816-3.817
					H9.726V9.119z"/>
			</g>
			<g>
				<path style="fill:#010002;" d="M10.851,7.994v3.817h3.817C14.668,9.703,12.959,7.994,10.851,7.994z"/>
			</g>
		</g>
		<path style="fill:#010002;" d="M23.363,0H4.395c-0.382,0-0.69,0.31-0.69,0.692v2.425h1.384V1.385h17.58v14.378l1.385,1.246V0.692
			C24.053,0.31,23.743,0,23.363,0z"/>
	</g>
</g>
<g>
</g>
<g>
</g>
<g>
</g>
<g>
</g>
<g>
</g>
<g>
</g>
<g>
</g>
<g>
</g>
<g>
</g>
<g>
</g>
<g>
</g>
<g>
</g>
<g>
</g>
<g>
</g>
<g>
</g>
</svg>
