<?xml version="1.0" encoding="iso-8859-1"?>
<!-- Generator: Adobe Illustrator 18.1.1, SVG Export Plug-In . SVG Version: 6.00 Build 0)  -->
<svg version="1.1" id="Capa_1" xmlns="http://www.w3.org/2000/svg" xmlns:xlink="http://www.w3.org/1999/xlink" x="0px" y="0px"
	 viewBox="0 0 29.109 29.109" style="enable-background:new 0 0 29.109 29.109;" xml:space="preserve">
<g>
	<g>
		<path style="fill:#1C1B19;" d="M28.198,18.732c0,1.774-1.446,3.222-3.22,3.222H3.223C1.446,21.952,0,20.507,0,18.732
			c0-1.778,1.446-3.226,3.225-3.226H24.98C26.752,15.507,28.197,16.952,28.198,18.732z M29.075,10.585
			c-0.062-0.139-0.201-0.227-0.354-0.227h-1.787V7.543c0-0.215-0.175-0.388-0.391-0.388H25.1c-0.219,0-0.391,0.173-0.391,0.388
			v2.815H22.92c-0.002,0-0.002,0-0.002,0c-0.215,0-0.391,0.174-0.391,0.388c0,0.112,0.05,0.214,0.125,0.284l2.875,3.324
			c0.074,0.085,0.182,0.134,0.293,0.134c0.113,0,0.221-0.048,0.295-0.134L29.013,11C29.113,10.886,29.137,10.723,29.075,10.585z"/>
	</g>
</g>
<g>
</g>
<g>
</g>
<g>
</g>
<g>
</g>
<g>
</g>
<g>
</g>
<g>
</g>
<g>
</g>
<g>
</g>
<g>
</g>
<g>
</g>
<g>
</g>
<g>
</g>
<g>
</g>
<g>
</g>
</svg>
