<?xml version="1.0" encoding="iso-8859-1"?>
<!-- Generator: Adobe Illustrator 18.1.1, SVG Export Plug-In . SVG Version: 6.00 Build 0)  -->
<svg version="1.1" id="Capa_1" xmlns="http://www.w3.org/2000/svg" xmlns:xlink="http://www.w3.org/1999/xlink" x="0px" y="0px"
	 viewBox="0 0 29.11 29.11" style="enable-background:new 0 0 29.11 29.11;" xml:space="preserve">
<g>
	<g>
		<path style="fill:#1C1B19;" d="M29.11,18.733c0,1.774-1.446,3.222-3.224,3.222H4.132c-1.776,0-3.222-1.443-3.222-3.222
			s1.443-3.224,3.222-3.224h21.756C27.665,15.51,29.11,16.955,29.11,18.733z M3.289,14.49c0.11,0,0.219-0.049,0.292-0.134
			l2.872-3.324c0.077-0.071,0.124-0.172,0.124-0.285c0-0.214-0.173-0.387-0.387-0.387c-0.001,0-0.003,0-0.005,0H4.398V7.545
			c0-0.216-0.174-0.389-0.389-0.389H2.562c-0.213,0-0.388,0.173-0.388,0.389v2.815H0.388c-0.153,0-0.291,0.087-0.354,0.227
			c-0.062,0.138-0.039,0.3,0.062,0.415l2.896,3.354C3.067,14.441,3.176,14.49,3.289,14.49z"/>
	</g>
</g>
<g>
</g>
<g>
</g>
<g>
</g>
<g>
</g>
<g>
</g>
<g>
</g>
<g>
</g>
<g>
</g>
<g>
</g>
<g>
</g>
<g>
</g>
<g>
</g>
<g>
</g>
<g>
</g>
<g>
</g>
</svg>
