<?xml version="1.0" encoding="iso-8859-1"?>
<!-- Generator: Adobe Illustrator 18.1.1, SVG Export Plug-In . SVG Version: 6.00 Build 0)  -->
<svg version="1.1" id="Capa_1" xmlns="http://www.w3.org/2000/svg" xmlns:xlink="http://www.w3.org/1999/xlink" x="0px" y="0px"
	 viewBox="0 0 32.5 32.5" style="enable-background:new 0 0 32.5 32.5;" xml:space="preserve">
<g>
	<g>
		<rect x="1.28" y="25.265" style="fill:#010002;" width="0.197" height="0.295"/>
		<rect x="2.462" y="25.265" style="fill:#010002;" width="0.394" height="0.295"/>
		<rect x="3.151" y="25.265" style="fill:#010002;" width="0.394" height="0.295"/>
		<rect x="1.773" y="25.265" style="fill:#010002;" width="0.394" height="0.295"/>
		<rect x="1.28" y="27.038" style="fill:#010002;" width="1.97" height="0.295"/>
		<path style="fill:#010002;" d="M25.311,9.212l-8.828-6.237c-0.14-0.099-0.327-0.099-0.467,0L7.189,9.212H0v20.387h32.5V9.212
			H25.311z M16.25,3.598c0.197,0,0.295,0.099,0.295,0.296s-0.098,0.295-0.295,0.295s-0.295-0.099-0.295-0.295
			C15.955,3.697,16.053,3.598,16.25,3.598z M15.462,3.894c0,0.394,0.394,0.689,0.788,0.689c0.394,0,0.788-0.296,0.788-0.689
			l7.479,5.311L8.063,9.22L15.462,3.894z M32.105,29.22L0.417,29.204V9.606h31.689L32.105,29.22z"/>
		<rect x="1.28" y="23.689" style="fill:#010002;" width="4.925" height="0.295"/>
		<rect x="3.841" y="25.265" style="fill:#010002;" width="0.394" height="0.295"/>
		<rect x="5.319" y="25.265" style="fill:#010002;" width="0.394" height="0.295"/>
		<rect x="4.629" y="25.265" style="fill:#010002;" width="0.393" height="0.295"/>
		<rect x="6.008" y="25.265" style="fill:#010002;" width="0.197" height="0.295"/>
		<rect x="4.235" y="27.038" style="fill:#010002;" width="1.969" height="0.295"/>
		<path style="fill:#010002;" d="M25.158,24.854l-0.297,0.923c-0.091,0.312-0.187,0.676-0.264,0.998h-0.015
			c-0.061-0.324-0.146-0.672-0.233-0.992l-0.271-0.929h-0.836l-0.18,2.777h0.58l0.051-1.056c0.021-0.346,0.033-0.773,0.051-1.148
			h0.008c0.063,0.361,0.162,0.758,0.252,1.084l0.297,1.075h0.49l0.338-1.083c0.106-0.326,0.223-0.723,0.309-1.076h0.014
			c0,0.404,0.012,0.809,0.024,1.143l0.04,1.063h0.611l-0.15-2.777L25.158,24.854L25.158,24.854z"/>
		<path style="fill:#010002;" d="M27.251,24.854l-0.849,2.777h0.649l0.199-0.713h0.795l0.213,0.713h0.677l-0.86-2.777H27.251z
			 M27.34,26.449l0.164-0.59c0.045-0.16,0.086-0.369,0.127-0.535h0.01c0.04,0.166,0.091,0.371,0.14,0.535l0.173,0.59H27.34z"/>
		<path style="fill:#010002;" d="M29.308,27.631h0.622v-0.993c0.058,0.008,0.133,0.014,0.215,0.014c0.37,0,0.688-0.092,0.9-0.293
			c0.164-0.156,0.256-0.387,0.256-0.658c0-0.272-0.118-0.504-0.297-0.645c-0.187-0.148-0.461-0.222-0.85-0.222
			c-0.384,0-0.656,0.024-0.85,0.057L29.308,27.631z M29.928,25.335c0.046-0.012,0.133-0.025,0.261-0.025
			c0.312,0,0.489,0.152,0.489,0.407c0,0.285-0.205,0.453-0.54,0.453c-0.091,0-0.156-0.005-0.21-0.019V25.335z"/>
		<polygon style="fill:#010002;" points="23.426,18.208 23.277,18.325 24.137,19.374 24.258,19.415 24.258,19.474 24.097,19.474 
			24.137,19.605 25.192,19.65 24.842,19.426 24.411,19.441 24.394,19.204 24.463,19.236 24.631,19.216 24.615,19.002 24.147,19.008 
			24.021,18.839 24.027,18.749 		"/>
		<polygon style="fill:#010002;" points="25.484,18.045 25.377,18.045 25.31,18.228 25.23,18.299 24.62,18.631 24.62,18.959 
			24.823,19.227 25.336,19.227 25.403,19.06 25.518,18.954 25.518,18.877 25.59,18.831 25.59,18.256 25.518,18.226 		"/>
		<polygon style="fill:#010002;" points="25.59,19.447 25.747,19.447 25.725,19.173 25.846,19.219 25.846,19.409 25.975,19.402 
			25.971,18.831 25.663,18.95 25.668,19.019 25.59,19.019 		"/>
		<polygon style="fill:#010002;" points="28.145,20.288 27.939,19.933 27.752,19.924 27.674,20.568 27.322,20.54 27.219,20.482 
			27.21,20.226 27.396,20.265 27.555,20.111 27.215,19.906 26.819,19.906 26.533,20.312 26.418,20.312 26.418,20.184 26.073,20.209 
			25.532,20.824 25.243,20.831 24.922,21.05 24.902,22.008 24.708,22.195 24.708,22.365 25.642,22.042 26.398,22.012 26.676,22.63 
			27.536,22.658 28.363,21.879 28.569,21.413 28.484,21.072 28.168,20.801 		"/>
		<polygon style="fill:#010002;" points="27.344,22.818 27.075,22.786 26.79,23.104 27.092,23.136 27.336,23.001 		"/>
		<polygon style="fill:#010002;" points="28.027,23.17 28.027,23.314 28.342,23.267 29.113,22.795 29.331,22.652 29.562,22.548 
			29.797,22.415 29.711,22.263 29.585,22.286 29.583,22.001 29.349,22.017 29.318,22.463 29.115,22.602 28.736,22.654 
			28.129,23.086 		"/>
		<polygon style="fill:#010002;" points="27.327,19.077 27.129,19.083 27.146,18.88 26.96,18.768 26.695,19.034 26.874,19.253 
			27.256,19.309 27.472,19.422 27.478,19.529 27.336,19.529 27.344,19.743 27.81,19.714 27.979,19.533 28.163,19.515 28.163,19.847 
			28.476,19.847 28.476,19.714 28.317,19.714 28.29,19.309 27.536,18.968 		"/>
		<polygon style="fill:#010002;" points="21.727,18.111 21.801,18.307 22.066,18.208 22.092,17.934 21.881,17.894 		"/>
		<polygon style="fill:#010002;" points="18.612,20.419 18.251,20.372 18.251,20.654 18.379,20.803 18.282,20.954 18.135,21.124 
			18.135,21.434 18.335,21.626 18.515,21.337 18.872,20.816 19.04,19.999 18.825,19.999 		"/>
		<polygon style="fill:#010002;" points="25.928,19.62 26.02,19.65 26.047,19.557 25.928,19.557 		"/>
		<rect x="25.377" y="19.65" style="fill:#010002;" width="0.143" height="0.077"/>
		<polygon style="fill:#010002;" points="25.674,19.65 25.59,19.727 25.59,19.795 25.72,19.783 25.72,19.727 25.807,19.727 
			25.807,19.659 25.872,19.65 25.872,19.583 25.732,19.583 		"/>
		<polygon style="fill:#010002;" points="25.943,19.727 25.943,19.849 26.081,19.849 26.081,19.788 26.219,19.788 26.219,19.716 
			26.316,19.727 26.303,19.605 26.145,19.628 26.129,19.706 25.952,19.727 		"/>
		<path style="fill:#010002;" d="M4.555,13.521l-0.191-0.03c0,0.011,0.016,0.214,0.029,0.214c0.014,0,0.131,0,0.131,0L4.555,13.521z
			"/>
		<polygon style="fill:#010002;" points="14.047,13.53 14.062,13.644 13.894,13.678 13.869,13.919 14.075,13.919 14.346,13.894 
			14.486,13.727 14.336,13.669 14.254,13.575 14.13,13.379 14.075,13.097 13.843,13.144 13.779,13.243 13.779,13.354 13.889,13.432 
					"/>
		<polygon style="fill:#010002;" points="13.852,13.623 13.864,13.47 13.73,13.413 13.54,13.456 13.399,13.68 13.399,13.827 
			13.564,13.827 		"/>
		<path style="fill:#010002;" d="M12.692,16.771l-0.04,0.227l-0.111,0.043l-0.006,0.595l0.669,0.765h0.292l0.02-0.049h0.523
			l0.152-0.139h0.297l0.164,0.165l0.443,0.045l-0.058,0.59l0.492,0.87l-0.26,0.495l0.019,0.231l0.206,0.203v0.563l0.267,0.359v0.469
			h0.793l0.596-0.611l0.187-0.332l0.24-0.055v-0.28l0.156-0.188l0.331-0.455l-0.067-0.693l-0.146-0.258l0.652-0.625l0.721-1.031
			l-0.137-0.064l-0.75,0.158l-0.194-0.097l-0.786-1.483l0.055-0.064l0.781,0.949l0.02,0.293l0.179,0.181l0.371-0.022l0.765-0.557
			l0.242-0.155l-0.005-0.194l-0.257-0.031c0,0-0.898-0.424-0.898-0.443c0-0.02,0.005-0.363,0.005-0.363h0.199l0.028,0.25l0.416,0.24
			l0.479,0.023l1.03,0.169l0.243,0.153v0.235l-0.031,0.322l0.529,0.87l0.17,0.039l0.171-0.247l0.094-0.705l0.177-0.379l0.284-0.107
			l0.501,0.049l0.631,0.56v0.801l0.831,0.798l0.044-0.142l-0.675-0.962l0.07-0.279l0.354,0.404l0.199,0.021l0.262-0.174
			l-0.043-0.263l-0.434-0.346l-0.018-0.315l0.123-0.165l0.217,0.069l-0.017,0.148l0.124,0.191l0.11-0.079l-0.062-0.226l0.612-0.221
			l0.269-0.224l-0.043-0.405l-0.53-0.56l-0.011-0.456h0.235l0.736,0.56l0.208-0.054l-0.141-0.18l-0.394-0.24l0.024-0.356
			l0.467,0.001l0.037-0.441l-0.178-0.233l0.105-0.115l0.227,0.229l0.073-0.097l-0.295-0.332l-0.721-0.087l-0.097-0.193l0.209-0.298
			l0.166,0.125l0.498,0.043l0.629-0.42l0.104,0.131l-0.142,0.22v0.217l0.578,0.472l0.185-0.096l-0.067-0.315l-0.412-0.384
			l0.543-0.036v-0.157l0.26-0.053l-0.199-0.138l0.016-0.108l0.554,0.089l0.104-0.089l-0.745-0.314l-2.71-0.14l-0.252-0.128
			l-0.403-0.061l-0.303-0.01l-0.275,0.277l-0.113-0.009l-0.367-0.271h-1.076l-0.499-0.299l-0.999,0.063l-0.758,0.342l0.005,0.393
			l-0.234,0.07l-0.054-0.394l-0.088-0.136l-0.26-0.065l-0.062,0.236l0.075,0.193l-0.933-0.062l-0.443,0.205l-0.067-0.194
			l-0.111,0.029l-0.082,0.216l-0.232,0.182l-0.568-0.016l-0.027-0.126l0.597-0.025l0.12-0.104l-0.717-0.333l-0.874,0.026
			l-0.489,0.25l-0.184,0.328l-0.326,0.126l-0.136,0.149l0.031,0.173l0.168,0.023l0.102,0.252l0.285-0.116l0.05,0.336h-0.09
			l-0.235-0.035l-0.262,0.044l-0.253,0.357l-0.364,0.061l-0.052,0.31l0.154,0.036l-0.044,0.2l-0.362-0.071l-0.33,0.071l-0.069,0.185
			l0.056,0.386l0.196,0.091l0.324-0.001l0.221-0.021l0.067-0.176l0.343-0.444l0.226,0.046l0.222-0.201l0.042,0.156l0.547,0.37
			l-0.067,0.09l-0.247-0.014l0.093,0.135l0.153,0.033l0.178-0.074L15.72,14.92l0.08-0.04l-0.065-0.068l-0.365-0.203l-0.095-0.272
			h0.303l0.096,0.096l0.263,0.226l0.01,0.273l0.272,0.288l0.101-0.395l0.188-0.104l0.036,0.324l0.183,0.202l0.554-0.008l0.164,0.122
			v0.29l-0.202,0.184h-0.562l-0.341-0.254l-0.358,0.036v0.218h-0.115l-0.122-0.088l-0.621-0.158v-0.402l-0.789,0.061l-0.245,0.131
			h-0.311l-0.154-0.016l-0.379,0.211v0.396l-0.776,0.561l0.065,0.239L12.692,16.771L12.692,16.771z M18.431,14.204l0.235-0.022
			l0.201,0.084l0.01,0.141l-0.287-0.016l-0.014,0.129l0.357,0.239v0.176l0.156,0.113v0.124h-0.002l-0.08,0.076l-0.184-0.014
			l-0.035-0.055l-0.286-0.024l0.021-0.092l0.153-0.132V14.82l-0.293-0.212l-0.014-0.272L18.431,14.204z M16.276,12.517l-0.345,0.213
			v0.139l0.195,0.091l0.015,0.189l-0.279,0.413l-0.482-0.005l-0.03-0.099l0.301-0.154l0.003-0.571l0.511-0.358h0.111V12.517z
			 M17.347,14.95L17.347,14.95l-0.455-0.021l-0.136,0.02v-0.31l0.103-0.115l0.108-0.034l0.242-0.027l0.053-0.083l0.1,0.049
			l0.014,0.283l0.265,0.109l0.022,0.129C17.663,14.95,17.347,14.95,17.347,14.95z"/>
		<path style="fill:#010002;" d="M9.926,14.373H9.725v0.104h0.048c0,0,0.003,0.022,0.006,0.05l0.125-0.011l0.074-0.046L10,14.373
			l0.099-0.008l0.04-0.083l-0.092-0.02l-0.078,0.002L9.926,14.373z"/>
		<polygon style="fill:#010002;" points="9.441,14.556 9.589,14.544 9.601,14.442 9.513,14.373 9.45,14.455 		"/>
		<path style="fill:#010002;" d="M3.667,13.096l0.1-0.106h0.599l0.217,0.192L4.57,13.481l0.183,0.168l-0.152,0.109l0.034,0.393
			l-0.543,0.658v0.618l0.291,0.141v0.555L4.665,16.6l0.225,0.034l0.029-0.164l-0.266-0.413L4.6,15.655h0.158l0.067,0.414
			l0.388,0.566l-0.104,0.181l0.249,0.379l0.614,0.152v-0.1l0.245,0.035l-0.022,0.176c0.216,0.035,0.15,0.021,0.49,0.115l0.42,0.479
			l0.536,0.041l0.052,0.438l-0.368,0.258l-0.018,0.389l-0.051,0.24l0.53,0.664l0.041,0.228c0,0,0.193,0.052,0.214,0.052
			c0.023,0,0.433,0.312,0.433,0.312v1.198l0.146,0.043l-0.102,0.55l0.246,0.325L8.72,23.34l0.323,0.569l0.416,0.362l0.416,0.009
			l0.042-0.134l-0.306-0.259c0.023-0.158,0.007-0.098,0.074-0.288l0.012-0.157l-0.209-0.007l-0.107-0.13l0.173-0.167l0.024-0.124
			L9.385,22.96l0.011-0.118l0.274-0.041l0.417-0.199c0.187-0.343,0.279-0.435,0.578-0.817l-0.1-0.437l0.134-0.233l0.402,0.01
			l0.27-0.211l0.088-0.846l0.3-0.384l0.054-0.243l-0.275-0.089l-0.18-0.296l-0.619-0.007l-0.49-0.187l-0.023-0.351l-0.164-0.285
			l-0.44-0.006l-0.257-0.403l-0.228-0.108l-0.012,0.12l-0.413,0.026l-0.152-0.21l-0.433-0.088l-0.356,0.409l-0.559-0.094
			l-0.041-0.631l-0.409-0.07l0.164-0.311l-0.047-0.175l-0.535,0.359l-0.337-0.041l-0.123-0.266c0.092-0.335,0.037-0.203,0.262-0.616
			l0.428-0.218h0.828L7.4,16.155l0.298,0.14l-0.024-0.431c0.228-0.229,0.159-0.179,0.647-0.5l0.028-0.199l0.433-0.45l0.46-0.253
			l-0.041-0.033l0.31-0.293l0.115,0.03l0.053,0.066L9.797,14.1l0.027-0.014c-0.156-0.021-0.1-0.007-0.258-0.061v-0.127l0.069-0.057
			h0.154l0.071,0.031l0.06,0.122l0.074-0.011v-0.007l0.022,0.006l0.214-0.034l0.03-0.105l0.12,0.03v0.113l-0.113,0.079l0.017,0.126
			l0.391,0.12c0,0,0.001,0.002,0.001,0.004l0.089-0.007l0.006-0.168l-0.309-0.141l-0.018-0.083l0.256-0.088l0.011-0.243
			l-0.267-0.164l-0.018-0.413l-0.37,0.18H9.922l0.036-0.315L9.46,12.754L9.252,12.91v0.479L8.88,13.505l-0.15,0.312l-0.161,0.025
			v-0.397l-0.349-0.05l-0.175-0.113l-0.071-0.257L8.6,12.658l0.306-0.093l0.03,0.205l0.172-0.008l0.014-0.104L9.3,12.633
			l0.002-0.035l-0.075-0.032l-0.018-0.109l0.219-0.019L9.56,12.3l0.01-0.01v0.001l0.041-0.042l0.461-0.058l0.203,0.173l-0.536,0.285
			l0.681,0.16l0.087-0.228h0.299l0.104-0.198l-0.209-0.052v-0.25l-0.659-0.292l-0.455,0.052l-0.258,0.134l0.02,0.327L9.08,12.261
			l-0.041-0.18l0.254-0.233l-0.464-0.024l-0.134,0.039l-0.06,0.158l0.176,0.03l-0.036,0.175l-0.296,0.018l-0.047,0.115l-0.434,0.012
			c0,0-0.01-0.245-0.027-0.245c-0.018,0,0.338-0.005,0.338-0.005l0.257-0.251l-0.14-0.071l-0.187,0.182l-0.31-0.017l-0.185-0.257
			H7.347l-0.415,0.31h0.38l0.035,0.111l-0.1,0.093l0.42,0.012l0.065,0.152l-0.473-0.019l-0.023-0.117l-0.297-0.065l-0.158-0.086
			l-0.7,0.007l-0.215,0.209l-0.147-0.012l-0.163-0.095l-0.484-0.144H4.186l-0.513,0.349l-0.344,0.053l-0.158,0.123l0.245,0.036
			v0.098H2.893l-0.205,0.146L2.95,13.09L3.667,13.096z M8.087,14.844H7.864l0.035-0.152l0.105-0.011l0.024-0.052l0.16-0.022v0.136
			h0.001L8.087,14.844z M8.242,14.468l-0.105,0.068l-0.132,0.023c0,0,0-0.208,0-0.23h0.237V14.468z M8.441,14.307l0.108,0.066
			l-0.087,0.071l-0.083-0.071L8.441,14.307z M8.299,14.481h0.017l0.268,0.078v0.137H8.359l-0.06-0.088
			C8.299,14.608,8.299,14.481,8.299,14.481z M8.125,14.105l0.145,0.132l-0.145,0.035V14.105z M7.511,14.127l0.202-0.083H7.99v0.083
			h0.06v0.145H7.628l-0.156-0.043L7.511,14.127z M7.473,14.503l0.16-0.174h0.232l-0.297,0.415l-0.124-0.066L7.473,14.503z
			 M7.258,13.515l0.165,0.038l-0.057,0.224l-0.178,0.058l-0.112-0.233L7.258,13.515z M6.428,12.457v-0.013h0.153l0.014-0.053h0.251
			v0.11l-0.074,0.095H6.428V12.457z M6.671,12.798c0,0,0.154-0.027,0.166-0.027s0,0.154,0,0.154l-0.345,0.022l-0.065-0.078
			L6.671,12.798z"/>
	</g>
</g>
<g>
</g>
<g>
</g>
<g>
</g>
<g>
</g>
<g>
</g>
<g>
</g>
<g>
</g>
<g>
</g>
<g>
</g>
<g>
</g>
<g>
</g>
<g>
</g>
<g>
</g>
<g>
</g>
<g>
</g>
</svg>
